<?xml version="1.0" encoding="utf-8"?>
<!-- Generator: Adobe Illustrator 23.0.2, SVG Export Plug-In . SVG Version: 6.00 Build 0)  -->
<svg version="1.1" id="Layer_3" xmlns="http://www.w3.org/2000/svg" xmlns:xlink="http://www.w3.org/1999/xlink" x="0px" y="0px"
	 viewBox="0 0 979 501.7" style="enable-background:new 0 0 979 501.7;" xml:space="preserve">
<style type="text/css">
	.st0{fill:#BFE4FF;}
	.st1{fill:#D4ECFF;}
	.st2{fill:#181863;}
	.st3{fill:none;stroke:#FFFFFF;stroke-width:1.5022;stroke-miterlimit:10;}
	.st4{fill:#0095EF;}
	.st5{fill:none;stroke:#0C1153;stroke-width:1.2862;stroke-miterlimit:10;}
	.st6{fill:#ABC9EB;}
	.st7{fill:none;stroke:#0095EF;stroke-width:1.2767;stroke-miterlimit:10;}
	.st8{fill:#0C1153;}
	.st9{fill:#FFFFFF;}
	.st10{fill:#F3AA06;}
	.st11{fill:none;stroke:#2094F1;stroke-width:0.2005;stroke-miterlimit:10;}
	.st12{fill:#EBF6FF;}
	.st13{fill:#FFBF0D;}
	.st14{fill:#FECE40;}
	.st15{fill:#FF5931;}
	.st16{fill:#161711;}
	.st17{fill:#E9D6B8;}
	.st18{fill:#D1DBEA;}
	.st19{fill:#B0BFDE;}
	.st20{fill:#194866;}
	.st21{fill:#163F59;}
	.st22{fill:#E2C59C;}
	.st23{fill:#DBDAC6;}
	.st24{fill:#C9C8B6;}
	.st25{fill:none;stroke:#FFFFFF;stroke-width:2.5765;}
	.st26{fill:#4E99FF;}
	.st27{fill:#2B83FD;}
	.st28{fill:#ECB60D;}
	.st29{fill:#C4D1E1;}
	.st30{fill:#E4EEF3;}
	.st31{fill:#282723;}
	.st32{fill:#B6C2C9;}
	.st33{fill:#D8E5ED;}
	.st34{fill:#879BA6;}
	.st35{fill:#E4EFFF;}
	.st36{fill:#323B31;}
	.st37{fill:#3C463B;}
	.st38{fill:#89B8D5;}
</style>
<title>contact</title>
<path class="st0" d="M825.7,290.6c-0.2,0,0.3-13.5,3.8-17.6c2.2-2.9,6.7-4.5,6.7-4.5c-0.4,2.4-1.1,4.7-2.2,6.9
	C832.3,278.5,826.5,287,825.7,290.6z"/>
<path class="st0" d="M824.7,288.2c-2.4-0.6-4.8-1.1-7.3-1.5c-2.9-0.5-5.8-0.7-8.7-0.6c-1.2,0-2.4,0.2-3.6,0.5c0,0,5.8,4.7,10.1,4.7
	S823.9,289.5,824.7,288.2z"/>
<path class="st0" d="M820,276.9c-0.2-0.1,3-12.8,5.9-15.6c3.2-3.6,9.7-6,10.9-6.6c0,0-3.5,4.9-6.4,9.6
	C827.4,268.8,822.7,276.2,820,276.9z"/>
<path class="st0" d="M819,276c0,0-1-0.6-3.6-2.1s-9.8-5.6-12.6-6.6s-8.4-1.3-10.3-1.3c-0.7,0,4.9,4.1,8.5,6c2.7,1.5,6.7,3.7,9.2,4
	c1.2,0.1,6.5-0.2,8.9,1.8S819,276,819,276z"/>
<path class="st0" d="M817,268.2c-0.1,0,1.5-10.5,3.8-13.9c2.2-3.5,5.1-6.4,8.7-8.5c3.5-2,6.7-3.5,6.7-3.6s-2.9,5-5.4,8.4
	s-4.6,6.9-7.7,10C820.9,263.1,818.9,265.6,817,268.2z"/>
<path class="st0" d="M815.6,265.2c-1.2-2.1-3-3.8-5.1-4.9c-3.2-1.8-10.3-7.4-14.6-8.9c-3.6-1.2-7.2-2.6-10.7-4.2
	c-0.3-0.2,8.2,9.3,13.3,11.9c3.6,1.8,7.4,3.2,11.4,4.2c2.6,0.7,5.2,2,6.5,3.7C816.2,266.3,815.9,265.7,815.6,265.2z"/>
<path class="st0" d="M813.8,254.6c0.5-3.4,1.7-6.7,3.6-9.5c3.2-5.2,6.6-9.3,8.6-11s7-3.7,7.6-4.1s-2.5,5.2-3.6,6.9
	c-2.1,2.8-4.5,5.3-7.2,7.6C819.1,247.4,814.7,252.9,813.8,254.6z"/>
<path class="st0" d="M813.4,253.8c-1.5-1.6-5.2-4.1-7.3-5.8s-4.3-1.9-12-9.6c-4.3-4.4-7.9-9.4-10.7-14.8c1.9,1.3,3.8,2.5,5.8,3.6
	c4.5,2.6,10.1,10,15.2,15c2.9,2.9,5.6,6,8.1,9.3C812.7,252.2,813.1,253,813.4,253.8z"/>
<path class="st0" d="M810.8,242.9c-0.1-0.1,4.4-10.5,7.5-14.6c3-4.3,5.3-7.6,10.2-8.2c2.5-0.2,5-0.7,7.4-1.5c0,0-4.4,4.4-8,7.7
	s-8.3,8.1-10,9.5S811.8,243.3,810.8,242.9z"/>
<path class="st0" d="M811,235.7c-2-3.4-4.3-6.5-6.8-9.5c-3.6-4.4-7.6-9.8-10-12s-9.9-9.6-10-9.8s3.9,10.5,7.5,14.6s6.5,8,11.7,11.2
	s7.5,6.3,8.4,8.9S811.3,236.4,811,235.7z"/>
<path class="st0" d="M811.2,228.2c0,0,2.3-4.8,5.1-6s8.8-6.6,10.8-8.4c1.8-2,10.3-8.4,10.9-9s-3.8,1.2-7.2,1.7s-8.3,3.9-11.5,7.3
	s-7.9,10.9-8.3,12.2C810.7,226.8,810.8,227.6,811.2,228.2z"/>
<path class="st0" d="M810.8,222.2c0,0-3.1-4.9-5.8-9.2s-7.8-10.8-9-13s-8.1-10.4-8.1-10.9s2.1,9.2,6.2,16c2.8,5,6.5,9.5,10.9,13.2
	c3.5,3,5.4,5.5,5.9,7.1S810.7,222.2,810.8,222.2z"/>
<path class="st0" d="M812.7,208.1c-0.1-0.1,6-7.4,9.3-9.6s7-5.4,10.2-6.4s8.1-2.5,8.1-2.5s-5.1,4.9-8.8,7.8s-7.7,6.3-11.9,8.9
	c-2.5,1.6-5.2,2.9-7.9,4.1C812,209.7,812.3,208.9,812.7,208.1z"/>
<path class="st0" d="M811.7,206.9c0,0-4.7-9.4-7.2-14.2s-6.8-12.3-8.8-15.1c-1.3-1.8-2.5-3.8-3.6-5.8c-0.2,0.1,4.6,17.3,8.5,22.2
	c3.7,5.2,10.4,14.1,11.1,17.8S811.6,206.9,811.7,206.9z"/>
<path class="st0" d="M815.1,194.2c-0.1-0.1,6.9-7.7,9.5-9.7c2.5-2.1,7.7-4.4,10.6-4.5s9.8-0.9,11-1.6s-4,3.9-8.4,5.9
	s-10.5,4.7-15.3,7.2s-7,3.3-8.4,6.7S815.1,194.2,815.1,194.2z"/>
<path class="st0" d="M814.6,192.6c0,0-2-6-3.9-10.2s-5.1-9.6-6.4-12.6s-6.8-12-6.8-13s1.3,13.4,5.4,20.3c3.9,7,7.3,10.6,8.7,13.2
	s2.7,5.5,2.7,5.5C814.4,194.6,814.5,193.6,814.6,192.6z"/>
<path class="st0" d="M820,179.2c0,0,6.4-5.9,11.6-7.8s12.3-1.5,14.8-1.4c1.4,0,2.7,0.2,4,0.6c0,0-4.4,2-9.2,3.9
	c-4.5,1.6-9.2,2.6-13.9,3.2c-2.8,0.4-7.7,2.7-8.4,4S820,179.2,820,179.2z"/>
<path class="st0" d="M818.9,179.4c0,0-1.8-8.4-3.9-13.7s-3.8-10.7-5-13.2c-1.4-3.3-2.6-6.6-3.6-10c0,0-0.7,8.9,1.4,16
	c1.5,5.5,8.2,17.3,10,21.6C819.2,183.8,818.9,179.4,818.9,179.4z"/>
<path class="st0" d="M824.8,168.1c0,0,6.3-7.1,13.3-8.5c4.8-0.9,9.6-0.8,14.4,0.2c2.2,0.5,4.4,0.8,6.7,0.9c-2.4,1.2-5,2.1-7.6,2.8
	c-3.2,0.6-8.6,1.6-13.1,2.3s-12.9,1.3-14.7,4.1S824.8,168.1,824.8,168.1z"/>
<path class="st0" d="M825.4,166.3c0,0-0.8-3.9-1.3-7.6s-1.6-11.7-2.9-15.7s-4.5-15.4-4.3-16.2c0-0.8-1.7,11.8-0.6,17.8
	c0.9,6,4.9,15.4,6.8,19.7S825.6,167.7,825.4,166.3z"/>
<path class="st0" d="M831.3,156.1c-0.1-0.1,9.9-6.7,15-7.4c5.1-0.8,10.4-0.7,15.5,0.3c2.1,0.3,4.2,0.9,6.2,1.6
	c0-0.1-9.5,2.5-13.7,3.1s-8.6,1.4-13.1,1.5s-9.4,0.9-11.3,3.7S831.3,156.1,831.3,156.1z"/>
<path class="st0" d="M830.7,156.4c0,0,0.2-3.3,1-9.2s2-13.3,2-16.5c-0.1-3.1-2.4-15.9-2.2-16.4c-0.1-0.4-5,12.2-4.8,18.5
	c0,7.4,1.9,12.6,2.4,19.8s0.2,7.3,0.2,7.4C829.7,158.7,830.2,157.5,830.7,156.4z"/>
<path class="st0" d="M838.4,146.1c3.3-2.4,7-4.3,11-5.4c7.1-2.1,11.5-2.8,15.3-2.1c3.1,0.6,6.1,1.5,9.1,2.5c-3,0.9-6,1.6-9.1,2.1
	c-3.9,0.4-11.7,1-16.5,1.7s-9.7,1.8-12.5,4.7S838.4,146.1,838.4,146.1z"/>
<path class="st0" d="M839.5,144.4c2.3-4.3,3.8-8.9,4.7-13.7c1.1-7.4,2.6-10.8,2.4-13.8s0.3-13.8,0.4-13.8c-0.2-0.1-7.5,16-7.7,22.3
	c-0.5,6.3,0.8,12.5-0.5,19C838.2,147.9,839.5,144.4,839.5,144.4z"/>
<path class="st0" d="M847.1,135.3c0,0,6.8-3.5,11.4-4.4c5-1.2,10.3-1.4,15.4-0.5c3,0.5,5.9,1.2,8.8,2.1c-3.5,1.7-7.4,2.6-11.3,2.8
	c-7.1,0.4-12.9,0.1-16.1,0.4s-7.8,0.6-9.6,1.7S847.1,135.3,847.1,135.3z"/>
<path class="st0" d="M852.2,129.1c-0.1,0,4.8-12,7.5-16.2c3.6-6.1,4.1-16.7,4.5-17.8c0.2-1.1-9.1,11.6-10.4,16.6
	c-1,2.8-3.1,13.8-4,17.9S850.7,132,852.2,129.1z"/>
<path class="st0" d="M856.4,126.3c3.1-1.1,6.3-2,9.5-2.8c4.6-1.1,12.9-1.9,16.1-0.8c2.9,1,5.7,2.1,8.4,3.3c-2.9,1.5-6.2,2.3-9.5,2.1
	c-5.8-0.2-11-0.3-14.8-0.7s-10.2-0.1-12.3,1.4S856.3,126.2,856.4,126.3z"/>
<path class="st0" d="M863,120.1c2.1-2.5,4-5.2,5.8-7.9c2.7-4.2,6.2-9.2,8.4-12.4s5-8.9,5-8.9s-8.7,6.4-11.8,11.2
	c-3.3,4.7-7.1,15-9.5,19.4C858.7,125.3,863,120.1,863,120.1z"/>
<path class="st0" d="M865.8,119c3.3-1,6.5-2.3,9.6-3.7c3.4-1.9,11.4-3.3,15.4-2.4s9.1,2.3,9.1,2.3s-5.5,1-8.5,1.5s-6.4,1-13.2,1.6
	s-14.4,2.3-15.9,2.9S865.7,118.9,865.8,119z"/>
<path class="st0" d="M867.9,116.4c0,0,1.5-1.5,5.5-5.1s11.8-9,14.8-10c2.9-1.1,14.5-1.4,15.4-1.6c0.9-0.4-9.3,4.9-12.3,6.7
	s-6.4,4.1-9.7,5.1s-13.1,5-14.2,6.3S867.9,116.4,867.9,116.4z"/>
<path class="st0" d="M838.6,313.3c-0.3,0.2-16-22.4-21.7-41.1c-3.5-9.6-6.4-24.2-6.9-37.5c-0.5-10.1,0-20.1,1.6-30.1
	c1.6-8.9,4.2-17.6,7.6-25.9c3.2-7.9,6.9-15.6,11.3-22.9c4.3-9,22.3-29.5,32.2-36.1c3.4-2.5,7.1-4.6,11-6.2c0.4-0.4-6.5,4.8-8.6,6.6
	c-6.2,4.8-12.1,10.1-17.5,15.8c-5.4,5.4-12.8,16-15.6,20.7c-3.5,4.2-16.3,30.8-18.4,48.6c-1.6,10.8-1.9,21.8-1,32.6
	c1,14.9,5.1,30.8,8.2,38.4c3.3,8.9,7.9,17.3,13.4,25C837,305.1,839.3,312.1,838.6,313.3z"/>
<path class="st0" d="M432.1,417.1c22.2-13.2,6.9-20.2-12.1-22c10.6-10.1,6.2-21.2-15.1-35.3c-9.5-6.3-22.3-4.6-35.4,1.1
	c-6.8-22.6-17.7-38.6-33.3-32.1c-12.9,5.4-22.9,12.5-29.6,20.5c-3.7-2.3-7.6-4.4-11.5-6.2c-9-4.3-16.3-2.4-22.1,3.3
	c-16.9-14.8-34.7-24.2-46.8-16.4c-21,13.6-25.2,26.5-14.3,40.8c-19.1-1.2-34.3,4.7-11.6,24.9c-22.2-5.2-38.7-4-31,13.1
	c17.1,38.1,117.5,54.4,195.1,45.6c48.1,1.8,89-4.6,98.9-22.1C470.6,419.4,454.1,416.1,432.1,417.1z"/>
<path class="st0" d="M916.8,337.4c30.7-18.2,9.5-27.9-16.8-30.4c14.6-14,8.5-29.3-20.9-48.8c-13.2-8.8-30.9-6.3-48.9,1.5
	c-9.4-31.2-24.4-53.4-46-44.3c-17.9,7.5-31.7,17.4-40.9,28.4c-5.2-3.2-10.5-6-15.9-8.6c-12.5-6-22.5-3.4-30.5,4.5
	c-23.4-20.4-47.9-33.5-64.7-22.7c-29.1,18.8-34.8,36.6-19.8,56.4c-26.4-1.6-47.4,6.5-16.1,34.4c-30.7-7.1-53.5-5.5-42.9,18.1
	c23.6,52.8,162.5,75.2,269.8,63c66.5,2.5,123.1-6.4,136.8-30.6C970.1,340.5,947.3,336,916.8,337.4z"/>
<path class="st1" d="M252.4,419.6c65.8-4,269.8-17.2,393.5-31.8c229.4-27.1,417.2-11.1,294.4,24.2c-34.3,9.9,65.5,53.6-177.3,76.9
	c-213.2,20.5-430.9,10.8-536.2,7.3S72.6,479.4,49.9,473.5C30,468.3,22.3,433.5,252.4,419.6z"/>
<path class="st2" d="M797.5,324.7c-31.1,11-54.8,36.7-63.3,68.6c44.4,32.7,106.9,23.2,139.6-21.3c7.4-10.1,12.9-21.5,16.1-33.6
	C863.2,318.9,828.7,313.8,797.5,324.7z"/>
<line class="st3" x1="877.4" y1="342.3" x2="740" y2="390.7"/>
<line class="st3" x1="849.1" y1="352.4" x2="870.6" y2="364.7"/>
<line class="st3" x1="825.7" y1="360.7" x2="852.2" y2="375.8"/>
<line class="st3" x1="802.2" y1="368.9" x2="846.5" y2="394.2"/>
<line class="st3" x1="778.8" y1="377.2" x2="821.9" y2="401.8"/>
<line class="st3" x1="755.4" y1="385.5" x2="779.3" y2="399.1"/>
<line class="st3" x1="851.8" y1="351" x2="860.8" y2="328"/>
<line class="st3" x1="828.4" y1="359.3" x2="842.5" y2="323.4"/>
<line class="st3" x1="804.9" y1="367.5" x2="822.6" y2="322.6"/>
<line class="st3" x1="781.5" y1="375.8" x2="799.6" y2="329.6"/>
<line class="st3" x1="758" y1="384" x2="773.6" y2="344.4"/>
<path class="st4" d="M788.7,263.9c-28.1,23.3-42.8,56.1-42.2,87.3c30.5,6.4,65.5-1.8,93.6-25.1s42.8-56.1,42.2-87.3
	C851.8,232.4,816.8,240.6,788.7,263.9z"/>
<line class="st5" x1="871.3" y1="247.3" x2="751.4" y2="346.5"/>
<line class="st5" x1="846.7" y1="267.9" x2="871" y2="270.2"/>
<line class="st5" x1="826.2" y1="284.8" x2="856.2" y2="287.6"/>
<line class="st5" x1="805.8" y1="301.7" x2="856" y2="306.5"/>
<line class="st5" x1="785.3" y1="318.6" x2="834.1" y2="323.3"/>
<line class="st5" x1="764.9" y1="335.6" x2="792" y2="338.1"/>
<line class="st5" x1="848.9" y1="265.5" x2="851.2" y2="241.2"/>
<line class="st5" x1="828.4" y1="282.5" x2="832" y2="244.5"/>
<line class="st5" x1="808" y1="299.4" x2="812.5" y2="251.9"/>
<line class="st5" x1="787.5" y1="316.3" x2="792.1" y2="267.5"/>
<line class="st5" x1="767.1" y1="333.2" x2="771" y2="291.3"/>
<path class="st1" d="M667.7,80.7c-94-12.5-180.7,53.7-193.2,147.7s53.7,180.6,147.7,193.2s180.7-53.7,193.2-147.7
	S761.7,93.2,667.7,80.7z"/>
<path class="st6" d="M814.6,224.9l-17.8,24.5l-31.3,46.9L753.8,263l-25.5,12.6l-12-30.3l-15.6,15.2l-6.6-2.5l-20.5-11.3l1.2,23.1
	l15.7,8.8l-38.2,67.2l-13.8,6.5l-8.2-27.9l-1.8-45.2l-21.7-3.8l-7.2-17.6l16.7-32.2l18.8-1.9l10.3,8.9l27.7-3l-27.3-20.1l-24-7.5
	l-0.3-7.6l25.5-10.6l-8-16.9l27-18.6l24.5,12.4l44.4-7.7c0,0,18.7-7,39.6-14.6C795.7,163,809.6,192.9,814.6,224.9z"/>
<path class="st6" d="M555.6,104.5L543.7,120l-20.9,28.5c-0.6,0.8-0.7,1.8-0.3,2.7l9.3,20.5c0.4,0.8,1.2,1.4,2.1,1.5
	c0.9,0.1,1.8-0.3,2.4-1l12.1-15.1l16.8,27.1l-43.5,29.6l-22.3-0.8c-1,0-2,0.5-2.5,1.4l-6.5,12.9c-0.4,0.8-0.4,1.8,0.1,2.5l12.2,20.7
	l-22.3-14.1l-5.7-9.1C481.9,176.4,511.5,131.3,555.6,104.5z"/>
<path class="st6" d="M523.1,312.2l-11.2-31.4l20.4-33.3l40.7,48l-49.6,75l-5.6-19.2l5.3-37.8C523.3,313.1,523.2,312.6,523.1,312.2z"
	/>
<path class="st6" d="M583.5,156.6l-13.9-42.7c29.7-10.4,48.7-11.1,56-10.9l-13.1,36L583.5,156.6z"/>
<path class="st2" d="M610.9,271.8c0,0,3.7-6.6,2.4-13.6c-0.5-2.5-3.4-6.5-6.1-6s-4.2,4.1-3.5,7.8
	C605.1,267.1,610.9,271.8,610.9,271.8z"/>
<path class="st2" d="M612.3,283.7c0,0-2-6.3-7.3-9.5c-1.9-1.2-6.2-1.5-7.5,0.5s0.2,5.2,3,6.9C605.8,284.8,612.3,283.7,612.3,283.7z"
	/>
<path class="st2" d="M616.5,296.9c0,0-4.4-4.9-10.5-5.7c-2.2-0.3-6.3,1.2-6.6,3.5s2.3,4.6,5.5,5C611,300.6,616.5,296.9,616.5,296.9z
	"/>
<path class="st2" d="M612.5,284c3.9-0.9,7.4-2.9,10.2-5.6c1.5-1.6,3-5.5,1.6-6.8s-4.5-0.4-6.8,2C615,276.4,613.2,280.1,612.5,284z"
	/>
<path class="st2" d="M615.7,297.2c3.9-0.8,7.5-2.7,10.3-5.5c1.5-1.6,3-5.6,1.5-7s-4.7-0.5-6.9,1.8
	C617.9,289.5,616.2,293.2,615.7,297.2z"/>
<path class="st2" d="M623.2,314.3c0,0,5.3-0.2,8.6-3.6c1.2-1.2,2-4.5,0.5-5.9s-4.2-1-5.9,0.8C623.1,308.9,623.2,314.3,623.2,314.3z"
	/>
<path class="st2" d="M622.5,314.5c-2-2.5-4.8-4.4-7.9-5.4c-1.7-0.5-5.1,0-5.6,1.7s1.4,3.6,3.9,4.3
	C616.1,315.8,619.4,315.6,622.5,314.5z"/>
<path class="st2" d="M638,388.4c-0.7,0.5-1.6,0.8-2.5,1l-0.2-1.2l0.1,0.6l-0.1-0.6c0.1,0,2.9-0.4,4.9-4.2c2.2-4.2,2.6-10.7,1-19.4
	c-2.2-11.9-8-27.5-17.3-46.4c-10.8-22-12.3-35.2-13.4-43.9c-0.3-2.2-0.5-4.2-0.8-5.8l1.2-0.2c0.4,1.7,0.6,3.6,0.9,5.9
	c1,8.7,2.6,21.8,13.3,43.5c20.7,42.1,20.2,59.7,16.2,67C640.6,386.1,639.4,387.4,638,388.4z"/>
<path class="st4" d="M820,414.6c3.8-5.8-0.9-10.8-18.9-13.4c-19.6-2.9-38.4-0.9-53.8,2.6c36.4-17.6,78.9-42.4,40.1-45.3
	c-12.1-0.9-30.7,5-51.3,14.1c23.1-18.8,35.7-34.2,21.8-37c-13-2.7-39.4,12.6-67.6,32.9c16-17,25.3-31.8,18.1-38.8
	c-5.9-5.7-18.4,0.8-32.8,13c0.7-10.7-3.8-17.1-14.1-15.8c-9.6,1.2-17.4,13.6-23,28.4c-9.2-23-33.6-37-58.2-30
	c-28.9,8.2-5.7,63.3,7.2,89.4L820,414.6z"/>
<path class="st7" d="M771.6,251.2c0,0-52.8,37.9-95,144.7"/>
<path class="st7" d="M719.5,265.1c0,0-37.8,52.8-48.8,118.1"/>
<path class="st7" d="M750.4,317.1c0,0-45.4,14.5-55.7,74.3"/>
<path class="st4" d="M778.4,243.1c8.4,7.1,12.9,15.6,10.1,19s-12,0.4-20.5-6.6s-12.9-15.6-10.1-19S770,235.9,778.4,243.1z"/>
<path class="st8" d="M774.9,247.2c2.7,2.2,4.1,5,3.2,6s-3.8,0.1-6.5-2.1s-4.1-5-3.2-6S772.2,245,774.9,247.2z"/>
<path class="st4" d="M722.3,261.7c3.5,3,5.4,6.5,4.2,7.9s-5,0.2-8.5-2.8s-5.4-6.5-4.2-7.9S718.8,258.8,722.3,261.7z"/>
<path class="st8" d="M720.9,263.5c1.1,0.9,1.7,2.1,1.3,2.5s-1.6,0.1-2.7-0.9s-1.7-2.1-1.3-2.5S719.8,262.5,720.9,263.5z"/>
<path class="st4" d="M754,314.7c3.4,4.9,4.5,9.9,2.5,11.3s-6.3-1.5-9.7-6.3s-4.5-9.9-2.5-11.2S750.6,309.8,754,314.7z"/>
<path class="st8" d="M751.5,316.4c1.1,1.5,1.4,3.1,0.8,3.6s-2-0.5-3.1-2s-1.4-3.1-0.8-3.6S750.5,314.8,751.5,316.4z"/>
<path class="st9" d="M711.9,375.5l0.5-0.4c-0.1,0-0.2-0.1-0.2-0.1c-2.2-0.8-3.5-2.4-3.1-3.6s2.5-1.4,4.7-0.5l0.5,0.2
	c0-0.1,0-0.2,0-0.3c-0.3-2.3,0.3-4.3,1.5-4.5s2.5,1.5,2.8,3.8c0,0.2,0,0.4,0.1,0.6l0.2-0.2c1.8-1.5,3.9-1.9,4.7-0.9
	s-0.1,2.9-1.9,4.3l-0.5,0.3l0.2,0.1c2.2,0.9,3.5,2.5,3.1,3.6s-2.5,1.4-4.7,0.5c-0.2-0.1-0.4-0.1-0.5-0.2c0,0.1,0,0.2,0,0.3
	c0.3,2.3-0.3,4.3-1.5,4.5s-2.5-1.5-2.8-3.8c0-0.2,0-0.4-0.1-0.6l-0.2,0.2c-1.8,1.5-3.9,1.9-4.7,0.9S710,377,711.9,375.5z M717,377.1
	c1.2-0.2,2.1-1.3,1.9-2.6c-0.2-1.2-1.3-2.1-2.6-1.9c-1.2,0.2-2.1,1.3-1.9,2.6c0,0,0,0,0,0C714.6,376.4,715.8,377.3,717,377.1
	L717,377.1z"/>
<path class="st9" d="M612.2,349.4c-1.8-0.7-3.8-1-5.7-0.7c1.5-0.3,2.6-1.6,2.7-3.1c0-2.3-3.1-0.5-3.9,2.1c-0.4-1.4-1-2.7-1.6-4
	c-1.3-2.1-3.2-0.4-2.8,1.5c0.2,1.1,0.2,2.6,3.2,4c-1.2,0-2.3,0.2-3.4,0.7c-4.9,2.4-5.1,3.8-3.1,4.3c1.4,0.4,5.5-0.5,7-2.8
	c-0.3,1.9-0.6,5.1,0.4,6.2c1.5,1.8,3.1,1.6,3.1-2.1s-0.5-4-0.6-4.1c1,0.8,2.2,1.3,3.5,1.4C614.3,352.8,614.4,350.4,612.2,349.4z
	 M604.8,350.3c-0.1-0.3,0.1-0.6,0.5-0.7c0.3-0.1,0.6,0.1,0.7,0.5l0,0c0.1,0.3-0.1,0.7-0.4,0.7c0,0,0,0,0,0
	C605.2,350.9,604.9,350.7,604.8,350.3z"/>
<path class="st9" d="M649.9,384.6c-0.9-0.1-1.8,0.1-2.5,0.6c-2,1.4-1.1,2.8,0.6,2.5c1.4-0.3,2.7-1.1,3.8-2.1
	c0.6-0.6-1.8,1.3-0.5,3.1s2.8-3.1,0-4.5s2.4,2.7,4,3.4s2-1,1-2c-0.7-0.7-1.4-2-5.9-0.4s2.3,0.9,4.2-2.4s1.4-4.2,0.1-3.7
	s-4.7,4.5-1.6,6.4s-0.3-0.1-1-1.5c-0.5-1-1.8-3.6-3-4c-1.5-0.4-2.4,0.3-0.9,2.4S649.9,384.6,649.9,384.6z"/>
<path class="st9" d="M651.9,384.8c-0.2,0.2-0.4,0.2-0.6,0c-0.2-0.2-0.2-0.4,0-0.6c0,0,0,0,0,0c0.2-0.2,0.4-0.2,0.6,0c0,0,0,0,0,0
	C652,384.4,652,384.6,651.9,384.8C651.9,384.8,651.9,384.8,651.9,384.8z"/>
<path class="st4" d="M106.7,115.1c0,2.5-2,4.5-4.5,4.5h-3v10.5l-10.4-10.5H54.5c-2.5,0-4.5-2-4.5-4.5c0,0,0,0,0,0V77.7
	c0-2.5,2-4.5,4.5-4.5h0h47.8c2.5,0,4.5,2,4.5,4.5l0,0L106.7,115.1z"/>
<rect x="59" y="86.7" class="st9" width="38.8" height="3"/>
<rect x="59" y="94.2" class="st9" width="38.8" height="3"/>
<rect x="59" y="101.6" class="st9" width="38.8" height="3"/>
<path class="st10" d="M591.1,299.8l-99.8-95.4c-1-1-2-2-3.1-2.9l-1-0.9H487c-9.9-7.6-23.7-7.6-33.6,0h-0.1l-1,0.9
	c-1.1,0.9-2.1,1.9-3.1,2.9l-99.8,95.4c-2.1,2.1-3.3,5-3.3,8v112.8c0,9.4,7.6,16.9,16.9,16.9h214.4c9.4,0,16.9-7.6,16.9-16.9V307.8
	C594.4,304.8,593.2,301.9,591.1,299.8z"/>
<path class="st11" d="M526.7,330.3c0,31.2-25.3,56.4-56.4,56.4s-56.4-25.3-56.4-56.4s25.3-56.4,56.4-56.4c0,0,0,0,0,0
	C501.4,273.9,526.7,299.2,526.7,330.3C526.7,330.3,526.7,330.3,526.7,330.3z"/>
<path class="st12" d="M577.4,403.7V273.9l-62-62.1H380c-9.3,0-16.9,7.6-16.9,16.9v0v174.9H577.4z"/>
<path class="st13" d="M577.4,437.5H363.1c-9.4,0-16.9-7.6-16.9-16.9V307.8L577.4,437.5z"/>
<path class="st14" d="M363.1,437.5h214.4c9.4,0,16.9-7.6,16.9-16.9V307.8L363.1,437.5z"/>
<path class="st4" d="M515.4,211.9V257c0,9.3,7.6,16.9,16.9,16.9h45.1L515.4,211.9z"/>
<rect x="403" y="285.2" class="st0" width="137.2" height="11.3"/>
<rect x="403" y="307.8" class="st0" width="87.6" height="11.3"/>
<rect x="403" y="262.6" class="st0" width="53" height="11.3"/>
<path class="st15" d="M682.1,106.8c-10.3,0-18.6,8.3-18.6,18.6c0,10.3,18.6,38.5,18.6,38.5s18.6-28.2,18.6-38.5
	C700.7,115.1,692.4,106.8,682.1,106.8z M682.1,132c-3,0-5.5-2.5-5.5-5.5s2.5-5.5,5.5-5.5c3,0,5.5,2.5,5.5,5.5S685.1,132,682.1,132
	L682.1,132z"/>
<path class="st13" d="M159.1,57.4h51.4c2.2,0,4.1,1.8,4.1,4.1v35.2c0,2.2-1.8,4.1-4.1,4.1h-51.4c-2.2,0-4.1-1.8-4.1-4.1V61.5
	C155,59.2,156.8,57.4,159.1,57.4z"/>
<path class="st13" d="M159.1,57.4h51.4c2.2,0,4.1,1.8,4.1,4.1v35.2c0,2.2-1.8,4.1-4.1,4.1h-51.4c-2.2,0-4.1-1.8-4.1-4.1V61.5
	C155,59.2,156.8,57.4,159.1,57.4z"/>
<path class="st10" d="M210.5,57.4h-51.4c-2.2,0-4.1,1.8-4.1,4.1l0,0v2.1l47.2,37.1h8.2c2.2,0,4.1-1.8,4.1-4.1V61.5
	C214.5,59.2,212.7,57.4,210.5,57.4L210.5,57.4z"/>
<path class="st14" d="M184.8,84.5l29.8-20.7v-2.3c0-2.2-1.8-4.1-4.1-4.1h-51.4c-2.2,0-4.1,1.8-4.1,4.1l0,0v2.3L184.8,84.5z"/>
<path class="st13" d="M92.3,139.2h29.8c1.3,0,2.3,1.1,2.3,2.4v20.4c0,1.3-1.1,2.4-2.3,2.4H92.3c-1.3,0-2.3-1.1-2.3-2.4v-20.4
	C89.9,140.3,91,139.2,92.3,139.2z"/>
<path class="st13" d="M92.3,139.2h29.8c1.3,0,2.3,1.1,2.3,2.4v20.4c0,1.3-1.1,2.4-2.3,2.4H92.3c-1.3,0-2.3-1.1-2.3-2.4v-20.4
	C89.9,140.3,91,139.2,92.3,139.2z"/>
<path class="st10" d="M122.1,139.2H92.3c-1.3,0-2.3,1.1-2.3,2.4l0,0v1.2l27.4,21.5h4.8c1.3,0,2.4-1.1,2.4-2.3v0v-20.4
	C124.4,140.2,123.3,139.2,122.1,139.2z"/>
<path class="st14" d="M107.2,154.9l17.2-12v-1.3c0-1.3-1.1-2.4-2.3-2.4h0H92.3c-1.3,0-2.3,1.1-2.3,2.4l0,0v1.3L107.2,154.9z"/>
<path class="st13" d="M225.6,152.6h91.1c4,0,7.2,3.2,7.2,7.2V222c0,4-3.2,7.2-7.2,7.2h-91.1c-4,0-7.2-3.2-7.2-7.2v-62.3
	C218.4,155.8,221.6,152.6,225.6,152.6z"/>
<path class="st13" d="M225.6,152.6h91.1c4,0,7.2,3.2,7.2,7.2V222c0,4-3.2,7.2-7.2,7.2h-91.1c-4,0-7.2-3.2-7.2-7.2v-62.3
	C218.4,155.8,221.6,152.6,225.6,152.6z"/>
<path class="st10" d="M316.7,152.6h-91.1c-4,0-7.2,3.2-7.2,7.2c0,0,0,0,0,0v3.8l83.6,65.7h14.6c4,0,7.2-3.2,7.2-7.2l0,0v-62.3
	C323.9,155.8,320.7,152.6,316.7,152.6C316.7,152.6,316.7,152.6,316.7,152.6z"/>
<path class="st14" d="M271.1,200.5l52.7-36.7v-4.1c0-4-3.2-7.2-7.2-7.2c0,0,0,0,0,0h-91.1c-4,0-7.2,3.2-7.2,7.2c0,0,0,0,0,0v4.1
	L271.1,200.5z"/>
<path class="st16" d="M277.8,441.5c-0.4,0.5-0.1,1.7-0.1,1.7s6.7,0.7,8.8,0.2c0.8-0.3,1.6-0.7,2.4-1.1c0.1-0.1,0.4-0.6,0.6-0.7
	s0.4,0.1,0.6,0c0.4-0.2,0.7-0.4,1-0.7c0.6-3.1-0.2-4.3-0.2-4.3s-5.7-1.9-6.8-0.6C281.7,439.1,278.6,440.5,277.8,441.5z"/>
<path class="st16" d="M321.9,438.7l1,5h5.1c0,0,0.3-0.7,0.7-0.7s0.8,0.7,1.3,0.7h12.9c0,0,0.2-1,0-1.4c-0.5-0.3-1-0.5-1.6-0.7
	c-2.6-0.7-10.1-3-11.4-5.5C328.3,433.1,321.9,438.7,321.9,438.7z"/>
<path class="st17" d="M288.2,225.1c0.4,1.8-0.2,3.4-1.4,3.7l0,0c-1.2,0.3-2.5-0.9-3-2.6l-0.5-2.2c-0.4-1.8,0.2-3.4,1.4-3.7l0,0
	c1.2-0.3,2.5,0.9,3,2.6L288.2,225.1z"/>
<path class="st17" d="M344.1,299.4l14.1,19.9l5.8,0.1c0,0,0-0.3-1.2-1c-0.4-0.2-2.1,0-2.4-0.3s-2.2-1-2.3-1.8
	c-0.8-5.7-0.8-14.3-3.7-20.1C349.7,286.8,343.8,299.1,344.1,299.4z"/>
<path class="st18" d="M311.1,245.6c0,0,8.9,3.2,25.8,22.8c17.5,20.2,15,21.5,15,21.5l2.5,5.5l-8.7,6.7l-28.3-32.3L311.1,245.6z"/>
<path class="st19" d="M309.5,261.1l20.1,22l8.1,7.3l-2.5-4.3c0,0-1.8-2.5-11.3-14.8c-3.4-4.6-7.2-8.8-11.5-12.5L309.5,261.1z"/>
<polygon class="st19" points="349.8,292.8 344,296.7 342.7,297.9 345.6,302 351.1,296.2 "/>
<path class="st17" d="M299.2,241.4c-0.3,3.2-2,5.9-3.8,6h-5.1c-1.8-0.1-3.5-2.9-3.8-6c-0.4-5.2-0.8-10.4-1.2-15.6
	c-0.3-3.1,1-9.4,3.6-11.3c2.3-1.6,5.5-1.6,7.8,0c2.7,1.9,3.9,8.1,3.7,11.3L299.2,241.4z"/>
<path class="st17" d="M264.8,294l13.6,22.1c0,0-20.2-9.7-19.2-18.8S264.8,294,264.8,294z"/>
<path class="st18" d="M312.5,246.4c-1.6-2.6-11.5-3.6-11.5-3.6l-7.9,2.4l-9.8-1.1l-10.9,5.4c0,0-4.8,4-0.3,19.1s2.8,32.5,2.8,32.5
	l39.3,2.5C314.2,303.5,317.3,254.3,312.5,246.4z"/>
<path class="st18" d="M279.4,249.4c0,0-5.9-3.4-11.9,4c-10.1,12.6-15,28.1-16,31.2s-2.4,12.1,1.7,14.7l4.2,2.7l8.7-5.4l-1.4-2.7
	l-0.7-1.7c0,0,4.9-10.7,10.1-20.5S279.4,249.4,279.4,249.4z"/>
<path class="st17" d="M301.9,233.4c-0.8,2.9-2,3.6-4.2,4s-2.5,0.4-4.6,0.6s-4.4-2.8-4.9-5.4c-0.8-4.3-3.2-7.9-4-12.2
	c-0.5-2.6,0.6-4.9,3.8-6.8c2.9-1.7,6.3-5.1,9.4-4c3.4,1.2,5.2,6.4,5.1,9C302.2,223,302,229,301.9,233.4z"/>
<polygon class="st19" points="291.1,244.8 287.2,249 283.4,243.4 285.7,240 "/>
<polygon class="st19" points="299.6,240.3 292.2,245.1 295.7,249.4 301.5,242.8 "/>
<rect x="291.6" y="245.1" transform="matrix(0.9993 -3.838781e-02 3.838781e-02 0.9993 -10.2837 11.4605)" class="st19" width="3.3" height="56.8"/>
<path class="st20" d="M291,319.1c0,0,8.1,42.9,17.9,58.3s14.9-2.8,14.9-2.8l-9.7-72.4l-30.7-0.2C283.4,302,286.4,302.5,291,319.1z"
	/>
<path class="st20" d="M302.3,302.2c0,0-9.4,68.4-10.5,72c-4,12-11.8,2.9-13.2-1.1s-3.7-29.9-3.3-51.6s0.5-20.3,0.5-20.3L302.3,302.2
	z"/>
<path class="st20" d="M291.1,361.1c0,0,1.5,16.4,2.9,28.4c1,8.8-0.4,29.2-2,46.7c-0.1,1.1-8.8,0.3-8.8,0.3s-4-46.1-5.1-57.1
	C273.2,332.7,284.1,353.2,291.1,361.1z"/>
<path class="st21" d="M321,376.1c0,0-2.5,0.9-10.2,1.2s10.4,62,10.4,62l11-4.7l-8.5-61.7L321,376.1z"/>
<path class="st21" d="M282.6,217l1.6,3.4c0,0,3.4-3.8,5.7-6.9c0.8-1,8.4-1.1,10.3-0.7c1.4,0.2,1.5,2,1.9,3c1.1,3.7-0.5-6.2-0.5-6.2
	s-2.6-4.6-7.5-5c-2.7-0.2-3.9,1.4-5,3.4c-0.2,0.5,3-0.8,2.4-0.8c-1.2,0.9-2.3,1.9-3.4,3c-0.5,1.1-1,2.1-1.7,3
	C283.9,216.6,282.6,217,282.6,217z"/>
<polygon class="st22" points="294.1,219 296.2,219.3 295.6,220.6 297.3,221.2 298.9,227.7 296.2,227.9 295.7,223.9 294.1,221.9 
	289.8,221.5 "/>
<polygon class="st18" points="257.2,300.3 264.8,294 267.7,298 260.3,304 "/>
<path class="st17" d="M366.2,315.8c1.6,1,4.8,2.3,3.7,3l-5.8-2.3l-3,0.1l-1.8,1.7l-1.1-1.7c-0.8-0.2-1.3-0.4-1-1.6l-0.5-0.7
	c2.3-0.5,3.2-0.7,3.9-0.6l2.8,0.8C364.5,314.8,365.4,315.2,366.2,315.8z"/>
<path class="st17" d="M157.5,300.8c0,0-2-0.6,0.9-11.6s9.7-26.4,9.7-26.4l-4.6,25.9C163.5,288.7,161.3,298.5,157.5,300.8z"/>
<path class="st17" d="M165.1,271.3c1.2-5.3-0.6-8.1-0.9-10.3c-0.2-1.5-0.5-3.1-0.9-4.6c1.8,1.6,1.4,3.4,1.9,4.4s0.2,0.7,0.8-1.1
	c0.3-1-0.9-3.3-1.6-4.9c-0.3-0.7-0.5-1.4-0.4-2.1c0.9,1.2,1.7,2.5,2.4,3.8c0.9,1.9,1.6,4,2,6.1c-0.1,2.5-0.6,4.9-1.5,7.2
	C165.9,272.4,164.2,275.1,165.1,271.3z"/>
<path class="st17" d="M168.3,262.7c0-1.7-0.1-3.4-0.3-5c-0.2-0.6-1.7-3.1-1.7-3.1c-0.1,0.9,0.1,1.8,0.4,2.6
	C167.3,259,167.9,260.8,168.3,262.7z"/>
<path class="st23" d="M165.5,276.5c0,5.5-1.7,13.8-5.1,22.6c-0.4,1-0.8,2.1-1.2,3.1c-0.6,1.5-3.3-0.6-3.1-3.4
	c0.3-5.4,2.4-11.7,5.5-19.7c0.5-1.4,1.1-2.7,1.6-4C163.9,275.6,164.7,276,165.5,276.5z"/>
<path class="st6" d="M142,243.6c-0.5,1.7,0.4,3.5,2.1,4c0,0,0,0,0,0l13.2,4l-3.7,12.2l27-5.1l21.3,6.5c1.7,0.5,3.5-0.4,4-2.1
	c0,0,0,0,0-0.1l21.1-69.1c0.5-1.7-0.4-3.5-2.1-4c0,0,0,0,0,0l-57.8-17.6c-1.7-0.5-3.5,0.4-4,2.1c0,0,0,0,0,0L142,243.6z"/>
<rect x="191.5" y="243.4" transform="matrix(0.2915 -0.9566 0.9566 0.2915 -97.6281 358.9068)" class="st9" width="3.9" height="3.9"/>
<path class="st9" d="M195.4,249l-5.6-1.7l1.7-5.6l5.6,1.7L195.4,249z M192.3,246l1.9,0.6l0.6-1.9l-1.9-0.6L192.3,246z"/>
<polygon class="st9" points="191,252.4 190.1,250.7 193.4,248.9 193.8,247.5 195.7,248 195,250.3 "/>
<rect x="184.1" y="241.1" transform="matrix(0.2922 -0.9564 0.9564 0.2922 -100.745 349.9694)" class="st9" width="3.9" height="3.9"/>
<path class="st9" d="M188,246.7l-5.6-1.7l1.7-5.6l5.6,1.7L188,246.7z M184.9,243.7l1.9,0.6l0.6-1.9l-1.9-0.6L184.9,243.7z"/>
<polygon class="st9" points="183.6,250.1 182.7,248.4 186,246.7 186.4,245.2 188.3,245.8 187.6,248 "/>
<rect x="172.8" y="190.1" transform="matrix(0.2892 -0.9573 0.9573 0.2892 -59.6415 303.8335)" class="st9" width="3.9" height="3.9"/>
<path class="st9" d="M176.2,196.9l-5.6-1.7l1.7-5.6l5.6,1.7L176.2,196.9z M173.1,193.9l1.9,0.6l0.6-1.9l-1.9-0.6L173.1,193.9z"/>
<polygon class="st9" points="173.9,191.1 172.1,190.5 172.8,188.3 176.7,186.2 177.6,187.9 174.4,189.6 "/>
<rect x="179.7" y="193.6" transform="matrix(0.2917 -0.9565 0.9565 0.2917 -58.3155 312.2575)" class="st9" width="3.9" height="3.9"/>
<path class="st9" d="M183.6,199.1l-5.6-1.7l1.7-5.6l5.6,1.7L183.6,199.1z M180.5,196.1l1.9,0.6l0.6-1.9l-1.9-0.6L180.5,196.1z"/>
<polygon class="st9" points="181.3,193.4 179.5,192.8 180.2,190.6 184.1,188.4 185,190.2 181.8,191.9 "/>
<rect x="186.1" y="188.5" transform="matrix(0.2892 -0.9573 0.9573 0.2892 -66.3979 327.1362)" class="st9" width="1.9" height="39.5"/>
<rect x="184.1" y="194.6" transform="matrix(0.2917 -0.9565 0.9565 0.2917 -73.9201 328.7928)" class="st9" width="1.9" height="39.4"/>
<rect x="182.6" y="199.5" transform="matrix(0.2919 -0.9565 0.9565 0.2919 -79.6593 330.7991)" class="st9" width="1.9" height="39.4"/>
<rect x="181.1" y="204.4" transform="matrix(0.2919 -0.9565 0.9565 0.2919 -85.3646 332.8411)" class="st9" width="1.9" height="39.4"/>
<rect x="169.1" y="217" transform="matrix(0.2919 -0.9565 0.9565 0.2919 -95.4372 322.5391)" class="st9" width="1.9" height="17.4"/>
<path class="st15" d="M148.9,260.3c0.3,5.6-3.9,10.4-9.5,10.8c0,0,0,0,0,0l-2.8-4.7c-5.6,0.3-10.7-7.8-11-13.5l-0.2-3.8
	c-0.3-5.6,3.9-10.4,9.5-10.8l2.5-0.2c5.6-0.3,10.4,3.9,10.8,9.5L148.9,260.3z"/>
<path class="st15" d="M126.9,248.9c-0.5,0-1.1,0.1-1.6,0.2c0.1,0.7,0.2,1.3,0.3,2c0.3,6.8-4.4,12.7-11.1,13.9
	c1.4,7.3,8.6,12.1,15.9,10.6c7.3-1.4,12.1-8.6,10.6-15.9C139.7,253,133.7,248.4,126.9,248.9L126.9,248.9z"/>
<path class="st17" d="M143.7,241.7c0,1,0,1.9-0.1,2.9c-0.6,6.6-4.3,11.8-8.6,12.7c0,2.7-0.3,5.4-1,8c-0.6,2.6-3.5,5.5-3.5,5.5
	c-0.5,4.6,15.5,10.4,15.1,9.6s-4.6-5.8-6.1-10.7c-0.9-2.8-0.5-5.8,1.1-8.3c1.4-1.8,3.5-3,5.8-3.2c0.3,0,0.6-0.2,0.8-0.4
	c0.2-0.7,0.2-1.4,0.2-2.1l-0.5-8.4C146.7,245,145.5,242.9,143.7,241.7z"/>
<path class="st23" d="M140.2,307.5c-1.7,4.2-11,4.2-12.7,0l-9.7-26.5c-2.4-5.9,6.8-8.8,11.5-11.3l3.4-0.3l4.9,2.4l2.3-2.5l4.6,0.2
	c4,0,5.9,3.5,4.2,7.7L140.2,307.5z"/>
<path class="st23" d="M149,272.2l9.8,29.4c0,0,0.7,2-1.4,0.7c-2.9-1.9-9.3-8.7-15.1-22.4C138.1,269.9,146.4,271.6,149,272.2z"/>
<path class="st17" d="M151.2,383.8c-0.5-1.6-0.8-3.3-1.2-4.9c-1.6-2.5-3-3.9-4.2-3.9c-4.5,0-6.8,15.2,2.3,44.4
	c0.5,1.6,8.5,30.9,8.5,29.7C156.8,425.5,152.9,389.7,151.2,383.8z"/>
<path class="st17" d="M123.9,384.1c0.4-1.7,0.8-3.3,1.2-4.9c-0.2-3-0.9-4.9-1.9-5.4c-3.9-2.1-13.2,10.3-18.7,40.3
	c-0.3,1.7-6.9,31.3-6.3,30.3C109.4,423.6,122.6,390.1,123.9,384.1z"/>
<polygon class="st24" points="139.1,271 137.3,274.5 130.4,269.7 132.7,267.5 "/>
<polygon class="st24" points="139.5,268.3 139.1,271 140.9,273.7 140.6,269.8 "/>
<path class="st20" d="M153.3,392.4c0.2-1.1,0.3-2.2,0.3-3.4c-0.2-6.8,0-13.7-1.1-26.7c-1.6-17.8-4.6-35.4-8.9-52.7
	c-0.4-1.9-1.1-3.8-1.9-5.6c-4.8-0.7-9.8,2.6-14.8,4c-2.1,3.9-3.6,8.1-4.6,12.4c-5.4,22.3-8.2,35.1-9.6,45.9
	c-1.5,10.5-1.6,18.9-2.4,24.5C124.4,413.9,138.6,371.1,153.3,392.4z"/>
<path class="st17" d="M170.7,449c-1.9,0.1-3.8,0.4-5.7,0.9c-2.4,0.5-4.1,1.2-5.2,0.7c-1.9-0.8-3.4-9.1-3.6-15.2
	c0-0.7-4.1-2.3-3.9-1.5c1.4,5.7,2.4,11.5,2.8,17.3c0.4,2.3,1.5,4.4,2.6,4.5c2.2,0.1,12.4-4.5,13.3-5S170.9,448.7,170.7,449z"/>
<path class="st20" d="M93.6,450.7c-1,5.9-0.5,10.8,1,11.1s3.6-4.3,4.6-10.1s0.5-10.8-1-11.1S94.5,444.9,93.6,450.7z"/>
<path class="st17" d="M94.7,447.7c-1.3,4.2-0.8,8.3,0.8,8.5s3.2-2.9,3.7-7.3c0.7-5.5,0.3-7.8,2.1-10.8s2.1-6.2,1.7-6.6
	s-2.5,0.7-2.8,2.3c-0.3,1.8-0.9,3.4-1.8,5C96.9,441.6,95.6,444.6,94.7,447.7z"/>
<path class="st20" d="M168.3,449.2c1.6,2.2-6.4,4.4-8.6,4.6c-1.1,0.1-2.3,0.2-3.4,0.5l-0.2,0.1c0,0.1,0,0.1,0,0.2
	c0.6,1.4,0.7,3.4,2.9,2.5l13.6-5.7C183.7,446.7,168.2,449.2,168.3,449.2z"/>
<path class="st4" d="M172.8,317.9c0.3-1.6-0.6-3.1-2.2-3.5l-12.4-3l2.8-11.5l-20,7.4l-62.2-14.8c-1.6-0.3-3.2,0.6-3.6,2.2l-8,33.5
	c-0.3,1.6,0.6,3.2,2.2,3.5l91.9,21.9c1.6,0.4,3.2-0.6,3.6-2.2L172.8,317.9z"/>
<line class="st25" x1="108.6" y1="315.5" x2="162.7" y2="328.4"/>
<line class="st25" x1="107" y1="322.3" x2="148.5" y2="332.2"/>
<path class="st9" d="M97.5,323.3l0.3-1.1c0.2-1.1-0.4-2.1-1.5-2.4l-6.7-1.6c-1.1-0.2-2.1,0.4-2.4,1.5l-1.4,5.7
	c-0.2,1.1,0.4,2.1,1.5,2.4l6.7,1.6c1.1,0.2,2.1-0.4,2.4-1.5l0.3-1.1l2.4,2.6l1.8-7.4L97.5,323.3z"/>
<path class="st9" d="M87.4,312.7c-2.4-0.6-3.8-3-3.3-5.3s3-3.8,5.3-3.3c2.4,0.6,3.8,3,3.3,5.3C92.2,311.8,89.8,313.3,87.4,312.7z
	 M89,306c-1.3-0.3-2.6,0.5-3,1.8c-0.3,1.3,0.5,2.6,1.8,3c1.3,0.3,2.6-0.5,2.9-1.8C91.1,307.7,90.4,306.4,89,306
	C89,306,89,306,89,306L89,306z"/>
<path class="st9" d="M79.8,317c0.4-1.6,2-2.5,3.6-2.2l6.7,1.6c0.8,0.2,1.5,0.7,1.9,1.5l2.2,0.5c-0.3-1.9-1.8-3.5-3.7-3.9l-6.7-1.6
	c-2.6-0.6-5.3,1-5.9,3.6l-0.7,2.9l8.6,2l0.5-1.9l-6.7-1.6L79.8,317z"/>
<path class="st23" d="M117.6,303.6c0,0-2.3-0.2-3.9,9.3c-0.7,4.2-1.1,8.5-1.3,12.7c-0.3,5.4,2.8-0.2,2.8-0.2l3.3-10.4
	C118.5,315,120.4,306.6,117.6,303.6z"/>
<path class="st23" d="M118.4,276c-4.1,8.6-3.1,35.2-3.1,35.2s4.1,14.6,8.3-27.5C124.8,271.1,119.4,273.9,118.4,276z"/>
<path class="st17" d="M111.9,346.1l-1.7-2.2l-0.8-2.1l0.1-3.7c0.2-1.8,0.7-3.6,1.3-5.3c0.7-1.4,1.6-7.2,1.9-7.9s2.4-0.6,2.4-0.6
	s-1.1,5.2-1.8,7.6s-0.4,6.1-0.6,7c-0.2,1-0.6,1.9-1.1,2.8c0,0,0.1-2.6,0.3-3.3s-0.7-0.4-0.7-0.4c-0.3,1.5-0.4,3-0.3,4.5
	c0.2,0.6,0.4,1.2,0.8,1.8L111.9,346.1z"/>
<path class="st26" d="M557.4,369.3c4.3,1.1,12.1,4.9,13.8,11.4c2.5,9.8-2.5,24.2,5.3,38.3c2.5,4.5-43.2,10.5-43.2,10.5l-8.8-49.6
	c0,0,11-10.8,13.3-11.5C542.4,367,548.8,367.1,557.4,369.3z"/>
<path class="st27" d="M524.4,380c-1.6,4-5.6,27.5-1.1,33.1c0.5,0.6-2.3,1.6-1.8,4.6c0.1,0.5,0.9,2.8,0.9,2.8l3.7,1l11-6.3l-2-2.6h-1
	c-0.5-0.5-0.8-1.3-0.7-2c0.3-1.1-2.5-2.8-6.8-21.1C525.3,384.1,524.7,379.1,524.4,380z"/>
<path class="st28" d="M528.6,412l3.3-0.7l1.3-0.2c0,0.6,0.3,1.1,0.7,1.6l-2.5,0.1l-3,0.6l-3.6,2L528.6,412z"/>
<path class="st29" d="M533.3,415.1c-1.6,0-3.3,0.5-4.7,1.3c-1.6,1-3.1,3.2-1.6,4.4c1.2,0.9,2.5,1.6,3.8,2.3
	C530.8,423,536.6,423.2,533.3,415.1z"/>
<path class="st30" d="M527,420.8l1.5-0.3c0,0,5.3-0.5,6-0.1s3.2,2.1,3.2,2.1l0.5,0.5c-0.9,0.4-2,0.3-2.8-0.4
	c-1.6-1.1-1.7-0.3-1.7-0.3l0.3,1.4v1.8l0.2,0.8c0,0,0.2,0.4,0,0.6c-0.3,0.3-0.6,0.3-1,0.2l-1.6-2.8l-0.4,3.1
	c-0.2,0.3-0.4,0.5-0.7,0.5c-0.5,0.1-0.5,0-0.5,0l-0.4-0.8c0,0.2-0.2,0.4-0.3,0.5c-0.3,0.2-0.6,0.3-1,0.3l0.2-3.2l-0.7,1.6
	c-0.2,0.3-0.4,0.4-0.7,0.5l-0.7,0.2L527,420.8z"/>
<path class="st17" d="M554.4,408.2c0,0-3.8,9.7-13.1,12.4c-1.6,0.5-2.6,2.2-1.8,2.7c1,0.7,2.3,0.9,4.7,0.9c4.8,0,11.4-1.5,16-5.9
	c6.7-6.5,8.8-9.5,8.2-12.8S554.4,408.2,554.4,408.2z"/>
<path class="st27" d="M569.8,377.4c2,3.2,3.1,8.4,3.1,15.8c0,5.7-5,15.1-5.7,18c-0.1,0.5-0.4,2.5-0.4,2.5l-5.5,5.3l-11-7.4l3.3-5.1
	l1,0.1c0.3-1.3,0.5-2.6,0.5-3.9c-0.2-1.1,3-15.9,4.6-25.3C560.7,371.9,567.9,374.2,569.8,377.4z"/>
<path class="st26" d="M560,406.5l-3.2-1l-1.3-0.3c-0.1,0.6-0.4,1.1-0.8,1.5l2.5,0.3l2.9,0.9l3.4,2.3L560,406.5z"/>
<path class="st17" d="M542,420.5l-5.6-1.5c0,0-1.6,2.1-1.3,2.6s0,3.7,0,3.7l2.7,2.3l2.2-0.7c0,0,0.2-1-0.6-1s0.5-0.6,0.9-0.9
	S544,423.1,542,420.5z"/>
<path class="st30" d="M540.3,359.7l3.2-1.1c1.8-0.6,3.7,0.3,4.4,2.1l2.8,8.1c0.6,1.8-0.3,3.7-2.1,4.4l-3.2,1.1
	c-1.8,0.6-3.7-0.3-4.4-2.1l-2.8-8.1C537.6,362.3,538.5,360.4,540.3,359.7z"/>
<path class="st17" d="M536.8,375.9c0.3,1.2,1.5,1.9,2.7,1.5c0,0,0,0,0,0l9.6-2.6c1.2-0.3,1.9-1.5,1.5-2.7c0,0,0,0,0,0l-3.9-14.2
	c-0.3-1.2-1.5-1.8-2.7-1.5l-9.6,2.6c-1.2,0.3-1.9,1.5-1.5,2.7L536.8,375.9z"/>
<path class="st21" d="M533.7,364.6c-0.8-0.5-1.5-1.1-2.1-1.8c-0.3-1-0.1-2.2,0.6-3c0.9-0.9,2.1,0,2.1,0s-1.4,1.4-1.4,1.8
	S533.7,364.6,533.7,364.6z"/>
<path class="st20" d="M549.4,364.1c0,0-0.1-5.9-0.8-7.4s-1.2-2.6-3.2-2.2c-3,0.5-2.8,1.2-4.5,0.7s-4.8-1.9-5.7-1.9
	c-1.7-0.1-3.1,1.2-3.1,2.8c0,0.4,0,0.7,0.1,1.1c0.3,1,0.1,2.2-0.6,3c0.2,0.2,0.8,0.3,1.8,0.5c3,0.6,4.7,0.4,6.6-0.7s5.4-3.3,6.2-1.9
	s2,6,2.2,6.3S549.1,364.4,549.4,364.1z"/>
<path class="st17" d="M547.1,364.4l2.1-0.6c0.4-0.1,0.8,0.1,0.9,0.5l1,3.8c0.1,0.4-0.1,0.8-0.5,0.9l-2.1,0.6
	c-0.4,0.1-0.8-0.1-0.9-0.5l-1-3.8C546.4,365,546.7,364.5,547.1,364.4z"/>
<path class="st17" d="M535.2,372.5c0.1,0.4,0.5,0.6,0.9,0.5l2.1-0.6c0.4-0.1,0.6-0.5,0.5-0.9c0,0,0,0,0,0l-1-3.8
	c-0.1-0.4-0.5-0.6-0.9-0.5l-2.1,0.6c-0.4,0.1-0.6,0.5-0.5,0.9L535.2,372.5z"/>
<path class="st20" d="M548.8,365.5l2,7.4c0.5,1.7,0.8,5.6-8.7,8.2c-5.6,1.5-6.6-2.6-6.9-4c-0.2-1.7-0.1-3.5,0.5-5.2l0.6,2.3
	c0.4-1.6,1.6-2.9,3.2-3.3c4.3-1.2,6,1.1,7.9,0.5C548.9,371,549.4,368.3,548.8,365.5z"/>
<path class="st17" d="M542.4,374.1l-3,0.8c-0.4,0.1-0.8-0.1-0.9-0.5c0,0,0,0,0,0l-0.1-0.4l4.4-1.2l0.1,0.4
	C543,373.5,542.8,373.9,542.4,374.1z"/>
<path class="st31" d="M495.7,430.7c1.4,3.8,25.2,17.6,33.2,16.8l24.1,1.1c20.5-2.5,30.2-34.4,30.2-34.4c-0.8-8-21,3.6-28.2,7.2
	c-11.4,5.7-18.6,6-18.6,6c-7.6,0.8-16.5-5.1-26.1-5.3C499.8,421.9,493.6,424.8,495.7,430.7z"/>
<path class="st32" d="M548.2,426.9L548.2,426.9v-1l-41.5-0.8v1l0,0l0.1,0.2c0.6,0.8,1.6,1.2,2.6,1.1l36.1,0.6c1,0.2,2-0.2,2.6-1
	L548.2,426.9z"/>
<path class="st33" d="M538.2,426.9L538.2,426.9l0.1,0.2c0.2,0.2,0.4,0.4,0.6,0.5l6.3,0.1c0.9,0.2,1.8-0.1,2.5-0.8l0.1-0.1l0,0v-0.5
	l-9.6-0.2L538.2,426.9z"/>
<polygon class="st34" points="532.6,426.5 511.8,426.1 511.8,425.4 532.6,425.8 "/>
<path class="st19" d="M538,425.6l-5-20.5c-0.2-0.6-0.6-1-1.2-1l-29.1-0.5c-0.4,0-0.8,0.2-0.8,0.6c0,0.1,0,0.2,0.1,0.4l5,20.5
	L538,425.6z"/>
<path class="st35" d="M521.7,414.6c0.3,0.7-0.1,1.5-0.9,1.8c-0.2,0.1-0.4,0.1-0.6,0.1c-1.1-0.1-2.1-0.9-2.3-1.9
	c-0.3-0.7,0.1-1.5,0.9-1.8c0.2-0.1,0.4-0.1,0.5-0.1C520.4,412.8,521.4,413.6,521.7,414.6z"/>
<path class="st17" d="M556.7,454c-2.9,0.5-5.1-2.8-5.1-2.8l-7.4-5.8l1.6-4l14.5,6.5C560.3,447.8,559.6,453.5,556.7,454z"/>
<path class="st27" d="M551.7,450.9c0.1,0.6,0.3,1.3,0.5,1.9c0.5,1.5,1.2,2.1,2,2.3c2.8,0.8,4.8,0.4,11.4,1.7s8.7,0.3,10.6-2.8
	s-0.1-5.5-3.3-5.7c-4.7-0.4-7.3,0.2-9.8-0.2s-2.7-1-4.2-1.9s-2.7,4.3-1.4,5.5C558.7,452.7,552.7,452.8,551.7,450.9z"/>
<path class="st9" d="M553.1,453.9c2.8,0.8,4.8,0.4,11.4,1.7s8.7,0.3,10.6-2.8c0.8-1,1-2.5,0.4-3.7c1.5,1,2,2.8,0.6,4.8
	c-2,3.1-4,4-10.6,2.8s-8.7-0.9-11.4-1.7c-0.7-0.2-1.3-0.7-1.5-1.4C552.8,453.7,552.9,453.8,553.1,453.9z"/>
<path class="st17" d="M551.7,451C551.7,451,551.7,450.9,551.7,451C551.7,450.9,551.7,451,551.7,451L551.7,451z"/>
<path class="st9" d="M566.1,453.3c0.2,0.1,0.4-0.3,0.5-0.9c0.1-1.2,0.4-2.3,0.8-3.4c0.2-0.6,0.2-1.1,0-1.1s-0.6,0.3-0.8,0.9
	c-0.4,1.1-0.6,2.2-0.7,3.4C565.7,452.7,565.8,453.2,566.1,453.3z"/>
<path class="st9" d="M564,452.9c0.2,0,0.4-0.4,0.5-0.9c0.1-1.1,0.4-2.2,0.8-3.2c0.2-0.5,0.2-1-0.1-1s-0.6,0.4-0.8,0.9
	c-0.4,1-0.6,2.1-0.7,3.2C563.6,452.4,563.8,452.9,564,452.9z"/>
<path class="st9" d="M561.8,452.8c0.2,0,0.5-0.4,0.5-0.9c0.2-1.1,0.5-2.3,0.9-3.3c0.2-0.5,0.2-1,0-1s-0.7,0.4-0.9,1
	c-0.4,1.1-0.7,2.2-0.9,3.3C561.4,452.3,561.6,452.8,561.8,452.8z"/>
<path class="st36" d="M556.2,444.4c0,0-51-21-53.9-21c-9.9-0.1-7.6,9.9-2.6,14.6c5.9,5.5,50.7,15.7,50.7,15.7L556.2,444.4z"/>
<polygon class="st17" points="536,448.1 549.9,434.9 544,429 528.8,445 "/>
<path class="st37" d="M533.1,437.7c0,0,35.4-32.5,37.8-33.4c8.1-3.3,13.1,5.6,12.8,8.7c-0.4,4-36.4,36.5-36.4,36.5L533.1,437.7z"/>
<path class="st27" d="M512.1,449.1c-0.8,0.8-1,3-1,3s11.8,4.5,16,4.5c1.7-0.1,3.3-0.4,4.9-0.9c0.3-0.1,1-0.9,1.3-1
	c0.6-0.2,0.7,0.4,1.2,0.2c0.7-0.2,1.5-0.5,2.2-0.8c2.5-5.3,1.7-7.9,1.7-7.9s-5.4,1.5-4.5,0.3c2-2.6-3.7-5.3-5-3.9
	C523.8,448.2,514.5,446.9,512.1,449.1z"/>
<path class="st9" d="M511.5,450.2c3.6,1.4,11.3,4.4,12.8,4.5c6.2,0.4,10.6-1.8,13.5-3.1c-0.3,0.9-0.6,1.7-1,2.5
	c-0.7,0.3-1.4,0.6-2.2,0.8c-0.5,0.1-0.6-0.4-1.2-0.2c-0.3,0.1-1,0.9-1.3,1c-1.6,0.5-3.2,0.8-4.9,0.9c-4.2-0.1-16-4.5-16-4.5
	C511.2,451.5,511.3,450.8,511.5,450.2z"/>
<path class="st9" d="M519.8,446.8c-0.1,0.2,0.3,0.5,1,0.6c1.4,0.3,2.7,0.7,4,1.2c0.6,0.3,1.2,0.3,1.3,0.1s-0.3-0.6-1-0.9
	c-1.3-0.5-2.6-0.9-4-1.2C520.5,446.5,519.9,446.5,519.8,446.8z"/>
<path class="st9" d="M522.5,445.8c-0.1,0.2,0.4,0.5,1,0.7c1.3,0.4,2.6,0.9,3.9,1.5c0.6,0.3,1.2,0.4,1.3,0.2s-0.3-0.7-1-1
	c-1.2-0.6-2.5-1.1-3.8-1.5C523.2,445.5,522.6,445.6,522.5,445.8z"/>
<path class="st9" d="M525,445c-0.1,0.2,0.3,0.6,1,0.8c1.3,0.5,2.5,1.1,3.7,1.8c0.6,0.4,1.1,0.5,1.2,0.2s-0.3-0.8-0.9-1.1
	c-1.2-0.7-2.4-1.3-3.7-1.8C525.7,444.7,525.1,444.8,525,445z"/>
<path class="st4" d="M388.2,225.9v5.8l-6.5-5.8h-25.2c-1.6,0-2.9-1.3-2.9-2.9l0,0v-36c0-1.6,1.3-2.9,2.9-2.9c0,0,0,0,0,0h40.3
	c1.6,0,2.9,1.3,2.9,2.9c0,0,0,0,0,0v36c0,1.6-1.3,2.9-2.9,2.9l0,0h-4.3"/>
<path class="st9" d="M363.8,217.2v-1.4c0-4.8,3.9-8.6,8.6-8.6h0h8.6c4.8,0,8.6,3.9,8.6,8.6c0,0,0,0,0,0v1.4H363.8z"/>
<path class="st9" d="M371,197.1c0,3.2,2.6,5.8,5.8,5.8c3.2,0,5.8-2.6,5.8-5.8s-2.6-5.8-5.8-5.8c0,0,0,0,0,0
	C373.6,191.3,371,193.9,371,197.1L371,197.1z"/>
<path class="st1" d="M435.9,135.6c0,1.4-1.2,2.6-2.6,2.6h-86.6c-1.4,0-2.6-1.2-2.6-2.6v-21.3l-3.6-4.1l3.6-4.7v-3.4
	c0-1.4,1.2-2.6,2.6-2.6h86.5c1.4,0,2.6,1.2,2.6,2.6V135.6z"/>
<rect x="350.9" y="105.6" class="st6" width="19.7" height="3.1"/>
<rect x="373.3" y="105.6" class="st6" width="23.9" height="3.1"/>
<rect x="400.2" y="105.6" class="st6" width="8.9" height="3.1"/>
<rect x="350.9" y="113.2" class="st6" width="31.3" height="3.1"/>
<rect x="384.4" y="113.2" class="st6" width="5.1" height="3.1"/>
<rect x="392.6" y="113.2" class="st6" width="36.7" height="3.1"/>
<rect x="350.9" y="120.8" class="st6" width="8" height="3.1"/>
<rect x="361.6" y="120.8" class="st6" width="31.7" height="3.1"/>
<rect x="395.6" y="120.8" class="st6" width="18.9" height="3.1"/>
<rect x="350.9" y="128.4" class="st6" width="39.3" height="3.1"/>
<rect x="393.4" y="128.4" class="st6" width="8.2" height="3.1"/>
<rect x="405.2" y="128.4" class="st6" width="21" height="3.1"/>
<path class="st1" d="M354.9,163.9c0,1.4,1.2,2.6,2.6,2.6h86c1.4,0,2.6-1.2,2.6-2.6v-4.1l3.6-4.1l-3.5-4.7v-3.4
	c0-1.4-1.2-2.6-2.6-2.6h-86c-1.4,0-2.6,1.2-2.6,2.6L354.9,163.9z"/>
<rect x="423.3" y="154.1" class="st6" width="5.6" height="3.1"/>
<rect x="403.2" y="154.1" class="st6" width="17.9" height="3.1"/>
<rect x="363.4" y="154.1" class="st6" width="36.7" height="3.1"/>
<path class="st6" d="M467.9,143.2c-6.7,0-12.1,5.4-12.1,12.1c0,6.7,5.4,12.1,12.1,12.1S480,162,480,155.3c0,0,0,0,0,0
	C480,148.6,474.6,143.2,467.9,143.2z"/>
<path class="st1" d="M472.4,156c-1-0.5-2-0.8-3.1-0.9c0-0.2,0.1-0.5,0.1-0.8c0.2-0.1,0.4-0.3,0.4-0.6c0-0.2,0-0.5,0.1-0.7
	c0,0,0.1,0.1,0.1,0.1c0.1,0,0.2-0.1,0.2-0.2c0,0,0,0,0,0l0.1-1.1c0-0.1-0.1-0.2-0.2-0.2c0,0,0,0,0,0c0,0-0.1,0-0.1,0
	c0-0.2,0-0.4,0.1-0.6c0.1-0.5,0-1.1-0.4-1.5c-1-0.8-2.3-0.8-3.3,0c-0.4,0.4-0.5,1-0.4,1.5c0,0.2,0,0.4,0.1,0.6c0,0-0.1,0-0.1,0
	c-0.1,0-0.2,0.1-0.2,0.2l0.1,1.1c0,0.1,0.1,0.2,0.2,0.2c0,0,0,0,0,0c0,0,0.1,0,0.1-0.1c0,0.2,0.1,0.5,0.1,0.7
	c0.1,0.2,0.2,0.4,0.4,0.6c0,0.2,0.1,0.5,0.1,0.8c-1.1,0.1-2.1,0.4-3.1,0.9c-0.3,0.2-0.5,0.5-0.5,0.9l0.1,1.1c0,0.3,0.3,0.6,0.6,0.7
	c2.6,0.4,5.4,0.4,8,0c0.3-0.1,0.6-0.4,0.6-0.7c0-0.4,0.1-0.8,0.1-1.1C472.9,156.5,472.7,156.2,472.4,156z"/>
<path class="st1" d="M325.2,97.8c-6.7,0-12.1,5.4-12.1,12.1s5.4,12.1,12.1,12.1c6.7,0,12.1-5.4,12.1-12.1c0,0,0,0,0,0
	C337.3,103.2,331.8,97.8,325.2,97.8z"/>
<path class="st6" d="M329.6,110.5c-1-0.5-2-0.8-3.1-0.9c0-0.2,0.1-0.5,0.1-0.8c0.2-0.1,0.4-0.3,0.4-0.6c0-0.2,0-0.5,0.1-0.7
	c0,0,0.1,0.1,0.1,0.1c0.1,0,0.2-0.1,0.2-0.2c0,0,0,0,0,0l0.1-1.1c0-0.1-0.1-0.2-0.2-0.2h-0.1c0-0.2,0-0.4,0.1-0.6
	c0.1-0.5,0-1.1-0.4-1.5c-1-0.8-2.3-0.8-3.3,0c-0.4,0.4-0.5,1-0.4,1.5c0,0.2,0,0.4,0.1,0.6c0,0-0.1,0-0.1,0c-0.1,0-0.2,0.1-0.2,0.2
	l0.1,1.1c0,0.1,0.1,0.2,0.2,0.2c0,0,0,0,0,0c0.1,0,0.1,0,0.1-0.1c0,0.2,0,0.5,0.1,0.7c0,0.2,0.2,0.4,0.4,0.6c0,0.2,0.1,0.5,0.1,0.8
	c-1.1,0.1-2.1,0.4-3.1,0.9c-0.3,0.2-0.5,0.5-0.5,0.9c0,0.4,0.1,0.8,0.1,1.1c0,0.3,0.3,0.6,0.6,0.7c2.7,0.4,5.3,0.4,8,0
	c0.3-0.1,0.6-0.4,0.6-0.7c0-0.4,0.1-0.8,0.1-1.1C330.2,111.1,330,110.7,329.6,110.5z"/>
<path class="st0" d="M257.2,97.2c-4.8,0-8.6,3.9-8.6,8.7c0,4.8,8.6,14.8,8.6,14.8s8.6-10.1,8.6-14.8C265.9,101,262,97.2,257.2,97.2z
	 M257.2,109.5c-2,0-3.7-1.7-3.7-3.7c0-2,1.7-3.7,3.7-3.7c2,0,3.7,1.7,3.7,3.7C261,107.8,259.3,109.5,257.2,109.5
	C257.2,109.5,257.2,109.5,257.2,109.5L257.2,109.5z"/>
<path class="st38" d="M176.2,145.7c-9.7,0-17.5-7.8-17.5-17.5v-4.4c0-1.2,1-2.2,2.2-2.2l0,0h4.4c0.3,0,0.6,0.1,0.8,0.2
	c0.3,0.3,0.3,0.8,0.3,1.6v4.9c0,0.8,0,1.4-0.3,1.6c-0.2,0.2-0.5,0.3-0.7,0.2h-1.2l0.1,1.2c0.5,4.5,4.1,8,8.6,8.6l1.2,0.1v-1.2
	c0-0.3,0.1-0.5,0.2-0.7c0.3-0.3,0.7-0.3,1.4-0.3h5.5c0.7,0,1.1,0,1.4,0.3c0.2,0.2,0.3,0.5,0.3,0.8v4.4c0,1.2-1,2.2-2.2,2.2
	L176.2,145.7z"/>
<path class="st0" d="M529.3,218.9c-4.8,0-8.6,3.9-8.6,8.6c0,4.8,8.6,14.8,8.6,14.8s8.6-10.1,8.6-14.8
	C537.9,222.8,534.1,218.9,529.3,218.9z M529.3,231.2c-2,0-3.7-1.7-3.7-3.7c0-2,1.7-3.7,3.7-3.7c2,0,3.7,1.7,3.7,3.7
	C533,229.6,531.3,231.2,529.3,231.2C529.3,231.2,529.3,231.2,529.3,231.2L529.3,231.2z"/>
<path class="st0" d="M123.7,33.9c-4.8,0-8.6,3.9-8.6,8.7c0,4.8,8.6,14.8,8.6,14.8s8.6-10.1,8.6-14.8
	C132.4,37.8,128.5,33.9,123.7,33.9z M123.7,46.2c-2,0-3.7-1.7-3.7-3.7c0-2,1.7-3.7,3.7-3.7c2,0,3.7,1.7,3.7,3.7
	C127.5,44.6,125.8,46.3,123.7,46.2C123.7,46.3,123.7,46.3,123.7,46.2L123.7,46.2z"/>
</svg>
