<svg xmlns="http://www.w3.org/2000/svg" xmlns:xlink="http://www.w3.org/1999/xlink" viewBox="0 0 1171.97 881.08"><defs><style>.cls-1{fill:none;}.cls-2{isolation:isolate;}.cls-12,.cls-29,.cls-3,.cls-5,.cls-6,.cls-61,.cls-7{fill:#b3b8c7;}.cls-3{opacity:0.14;}.cls-19,.cls-4{fill:#eadbb9;}.cls-16,.cls-28,.cls-30,.cls-32,.cls-33,.cls-36,.cls-39,.cls-4,.cls-42,.cls-57,.cls-61{opacity:0.5;}.cls-14,.cls-46,.cls-5,.cls-6{opacity:0.3;}.cls-12,.cls-14,.cls-15,.cls-27,.cls-28,.cls-33,.cls-35,.cls-36,.cls-42,.cls-56,.cls-57,.cls-58,.cls-59,.cls-6,.cls-7{mix-blend-mode:multiply;}.cls-10,.cls-27,.cls-35,.cls-48,.cls-54,.cls-7{opacity:0.2;}.cls-8{fill:#002c42;}.cls-9{fill:#ddb359;}.cls-10,.cls-23{fill:#fff;}.cls-10,.cls-16,.cls-30,.cls-32,.cls-39,.cls-61{mix-blend-mode:screen;}.cls-11,.cls-30,.cls-36{fill:#bc994e;}.cls-12{opacity:0.25;}.cls-13,.cls-14,.cls-15,.cls-16,.cls-33{fill:#8b96b5;}.cls-15{opacity:0.1;}.cls-17,.cls-54{fill:#f2f5f7;}.cls-18{clip-path:url(#clip-path);}.cls-20{fill:#eaca82;}.cls-21{fill:#ffeb9c;}.cls-22{fill:#c4a563;}.cls-24{fill:#f3f7fa;}.cls-25,.cls-27,.cls-28{fill:#a1c4d4;}.cls-26{fill:#003c59;}.cls-31,.cls-32{fill:#de7752;}.cls-34,.cls-35{fill:#69a683;}.cls-37{fill:#f28f68;}.cls-38{fill:#e3cc9a;}.cls-39{fill:#edd091;}.cls-40{fill:#fbb99e;}.cls-41,.cls-42{fill:#de8035;}.cls-43,.cls-58{fill:#5c0c00;}.cls-44,.cls-56{opacity:0.4;}.cls-45{clip-path:url(#clip-path-2);}.cls-47{clip-path:url(#clip-path-3);}.cls-49{clip-path:url(#clip-path-4);}.cls-50{clip-path:url(#clip-path-5);}.cls-51{fill:#b9d7c6;}.cls-52{fill:#771000;}.cls-53,.cls-57,.cls-59{fill:#507163;}.cls-54{mix-blend-mode:color-dodge;}.cls-55,.cls-56{fill:#824415;}.cls-58{opacity:0.7;}.cls-60{fill:#6e7996;}.cls-62{fill:#99a1b8;}.cls-63{fill:#2a72b8;}</style><clipPath id="clip-path" transform="translate(-374.18 -113.92)"><rect class="cls-1" x="854.44" y="254.51" width="150.86" height="286.94" rx="0.5" transform="translate(1327.85 -531.88) rotate(90)"/></clipPath><clipPath id="clip-path-2" transform="translate(-374.18 -113.92)"><path class="cls-1" d="M552.16,910.75c.83,3,1,6.11,1.94,9a36.87,36.87,0,0,0,4.91,9.09c2.26,3.38,4.57,6.82,7.8,9.3,3.68,2.82,8.25,4.17,12.71,5.45a111.32,111.32,0,0,0,16.07,3.8c14.22,1.9,28.56-1.72,42.32-5.8,3.71-1.09,7.51-2.28,10.51-4.72,5.19-4.23,7-11.28,8.4-17.82.18-.8.26-1.82-.44-2.23a1.88,1.88,0,0,0-1.24-.11c-3.38.55-6.5,2.11-9.73,3.24A39.8,39.8,0,0,1,635,922.14a24,24,0,0,1-7.93-.59c-2.56-.68-4.92-1.92-7.41-2.82-12.25-4.42-26.15,0-38.72-3.39-8-2.16-15-7.37-23.16-8.45a11.26,11.26,0,0,1-3.16-.66c-2-.89-3-3-4.61-4.53-.59-.56-1.61-1.05-1.86-.05-.16.63,1,2.14,1.32,2.66A33.52,33.52,0,0,1,552.16,910.75Z"/></clipPath><clipPath id="clip-path-3" transform="translate(-374.18 -113.92)"><path class="cls-1" d="M632.21,908.86c12-6.48,23.76-13.29,35.93-19.38,4.2-2.51,8.58-5.05,13.44-5.66,8.53-1.08,18,3.79,25.35-.71,6.71-4.13,7.25-14,4.36-21.3-3.82-9.74-12.63-17.07-22.57-20-9.66-2.85-18.53,1.6-28,2.88-10.79,1.48-16.36-4.83-25.34-9.36-5.62-2.83-12-3.62-18.32-3.89-7.47-.31-15.65-.17-22.55,2.82-6.48,2.81-12.65,7.3-18.13,11.71-15.13,12.18-39.27,37.86-26.87,59,2.47,4.21,6.31,7.48,10.43,10.12a57,57,0,0,0,36.28,8.34C609.74,922,620.59,915.15,632.21,908.86Z"/></clipPath><clipPath id="clip-path-4" transform="translate(-374.18 -113.92)"><path class="cls-1" d="M647.85,889.86a39.59,39.59,0,0,0,6.41,8.69,9.93,9.93,0,0,0,3.09,2.62,9.81,9.81,0,0,0,3,.63,29.85,29.85,0,0,0,14.77-1.68,110,110,0,0,1,14.3-4c6-1,12.54-.93,17.57-4.38,2.28-1.56,4.2-4.42,3.15-7-1-2.38-4-3.19-6.51-3.15-7,.11-13.54,4.14-20.5,3.75-3.5-.2-6.83-1.52-10.09-2.82a19.56,19.56,0,0,1-2.83-1.3c-.7-.42-1.34-.92-2.07-1.27a10.07,10.07,0,0,0-3.25-.8c-1.91-.22-3.84-.31-5.76-.4l-7.61-.33c-1.76-.08-5.48-1-7,0-1.84,1.25-.13,3.34.53,4.75C646.13,885.39,646.79,887.7,647.85,889.86Z"/></clipPath><clipPath id="clip-path-5" transform="translate(-374.18 -113.92)"><path class="cls-1" d="M555.75,900.9c.82,3.7,4.5,7,6.82,9.8a51.77,51.77,0,0,0,8.76,9c9.83,7.36,25.89,5.75,36.92,2.55,9.06-2.62,17.45-7.31,26.6-9.58,2.15-.54,4.74-1.31,5.26-3.46.41-1.7-.84-3.45-2.42-4.2a11.61,11.61,0,0,0-5.15-.72l-15.24.19a1.52,1.52,0,0,1-.94-.18,1.41,1.41,0,0,1-.47-1,19.65,19.65,0,0,1,.15-4,20.61,20.61,0,0,0-1.25-7.72,33.58,33.58,0,0,0-49.35-17.86c-3.1,1.85-7.29,4.66-9,8-2,3.95-1.5,9.36-1.2,13.61.19,2.73.42,5.58,1.89,7.89Z"/></clipPath></defs><g class="cls-2"><g id="Layer_1" data-name="Layer 1"><path class="cls-3" d="M375.38,802.14H1546.15s-17.27-391.49-227.26-501.31C1167.33,221.57,1125.34,197.8,956.5,143,593.52,25.22,375.38,269.11,375.38,802.14Z" transform="translate(-374.18 -113.92)"/><path class="cls-4" d="M1545,802.63c5.54,134.84-294.77,207.11-468.38,189.85-173.45-17.24-282.19-25.89-407.83-13s-298.25-40.2-294.55-176.89Z" transform="translate(-374.18 -113.92)"/><polygon class="cls-5" points="110.5 688.71 1170.82 688.71 776.89 659.82 110.5 688.71"/><path class="cls-6" d="M565.36,938.55c16.17,17.62,43.36,24.11,65.74,15.69,9.06-3.41,17.91-9.94,19.94-19.41.43-2,.44-4.38-1-5.87-1.17-1.21-3-1.51-4.64-1.74L629.23,925c-1.82-3.48,1.61-7.67,5.38-8.77s7.84-.4,11.69-1.15,7.87-4,7.06-7.86c7.68-1.75,15.65.3,23.53.38a47.39,47.39,0,0,0,26.3-7.71c6.91-4.55,13-12.19,11.66-20.36-1-6.08-6-10.93-11.63-13.37s-12-2.87-18.13-3.1c-12.67-.46-25.61-.2-37.64,3.82-7.79,2.6-15,6.71-22.5,10a112.12,112.12,0,0,1-32.66,8.64c-8,.85-16.28.89-23.66,4.09C546.23,899.27,552.1,924.09,565.36,938.55Z" transform="translate(-374.18 -113.92)"/><circle class="cls-7" cx="739.11" cy="108.06" r="65.68"/><path class="cls-8" d="M639.72,871.15a14.19,14.19,0,0,1-14.22-14.21V546a3.08,3.08,0,1,1,6.15,0V856.94A8.07,8.07,0,0,0,645,863l28.2-24.69a8.06,8.06,0,0,0,2.76-6.06V546a3.08,3.08,0,1,1,6.16,0V832.26a14.21,14.21,0,0,1-4.86,10.7l-28.21,24.68A14.18,14.18,0,0,1,639.72,871.15Z" transform="translate(-374.18 -113.92)"/><path class="cls-8" d="M1222.28,871.15a14.18,14.18,0,0,1-9.36-3.51L1184.71,843a14.23,14.23,0,0,1-4.85-10.7V546a3.08,3.08,0,1,1,6.15,0V832.26a8.06,8.06,0,0,0,2.76,6.06L1217,863a8.07,8.07,0,0,0,13.38-6.07V546a3.08,3.08,0,1,1,6.15,0V856.94a14.19,14.19,0,0,1-14.22,14.21Z" transform="translate(-374.18 -113.92)"/><polygon class="cls-9" points="232.23 426.47 264.25 403.96 859.25 403.96 882.64 426.47 232.23 426.47"/><polygon class="cls-10" points="232.23 426.47 264.25 403.96 859.25 403.96 882.64 426.47 232.23 426.47"/><polygon class="cls-10" points="232.23 426.47 249.24 414.51 753.85 415.21 882.64 426.47 232.23 426.47"/><path class="cls-6" d="M632.32,865.27l46.75-33S870.36,822.75,928,822c63.65-.8,254.9,5.92,254.9,5.92l46.76,37.32Z" transform="translate(-374.18 -113.92)"/><rect class="cls-11" x="232.23" y="426.47" width="650.41" height="11.22"/><path class="cls-12" d="M734.77,529.13c0-3.48,10-6.31,22.32-6.31s22.33,2.83,22.33,6.31-10,6.32-22.33,6.32S734.77,532.62,734.77,529.13Z" transform="translate(-374.18 -113.92)"/><rect class="cls-13" x="360.13" y="369.96" width="40.02" height="47.41" rx="2.88"/><rect class="cls-14" x="364.29" y="369.96" width="11.39" height="47.41" rx="1.54"/><path class="cls-15" d="M764,531.29h0a2.46,2.46,0,0,1-2.46-2.46V486.34a2.46,2.46,0,0,1,2.46-2.46h0a2.46,2.46,0,0,1,2.46,2.46v42.49A2.46,2.46,0,0,1,764,531.29Z" transform="translate(-374.18 -113.92)"/><path class="cls-13" d="M770.64,525.9a3.08,3.08,0,0,1,0-6.16c7.45,0,11-7.06,11.92-9.23,2.09-5,1.91-10.3-.42-12.69s-7-1.47-10.37-.15a3.08,3.08,0,1,1-2.26-5.73c9.73-3.83,14.85-.66,17,1.58,4.12,4.21,4.8,12,1.69,19.38C784.85,520.92,778.11,525.9,770.64,525.9Z" transform="translate(-374.18 -113.92)"/><path class="cls-16" d="M767.57,531.29h0a2.46,2.46,0,0,1-2.46-2.46V486.34a2.46,2.46,0,0,1,2.46-2.46h0a2.46,2.46,0,0,1,2.46,2.46v42.49A2.46,2.46,0,0,1,767.57,531.29Z" transform="translate(-374.18 -113.92)"/><rect class="cls-8" x="406.06" y="202.48" width="299.25" height="163.17" rx="3"/><rect class="cls-8" x="533.52" y="247.86" width="44.33" height="163.17" rx="1.16"/><rect class="cls-8" x="507.96" y="399.05" width="95.44" height="16.16" rx="0.53"/><rect class="cls-17" x="854.44" y="254.51" width="150.86" height="286.94" rx="0.5" transform="translate(953.67 -645.8) rotate(90)"/><g class="cls-18"><image width="1920" height="1080" transform="translate(411.6 208.36) scale(0.15)" xlink:href="../Project%20-%20otti%20V.01/otti%20-%20App%20%26%20Webdesign/Page%20-%20Log%20In%20Security.jpg"/></g><path class="cls-6" d="M1148.05,523.66c0-2.13,17.55-3.86,39.2-3.86s39.21,1.73,39.21,3.86-17.56,3.85-39.21,3.85S1148.05,525.79,1148.05,523.66Z" transform="translate(-374.18 -113.92)"/><rect class="cls-12" x="207.77" y="224.79" width="126.23" height="139.91" rx="3.63"/><rect class="cls-11" x="206.23" y="219.63" width="126.23" height="139.91" rx="3.63"/><rect class="cls-19" x="577.26" y="344.09" width="132.52" height="118.84" rx="2.13" transform="translate(672.84 -353.94) rotate(90)"/><path class="cls-20" d="M606,379.18a.61.61,0,0,1-.51-.27,10.41,10.41,0,0,0-5.1-4,1.45,1.45,0,0,1-.94-1.39.78.78,0,0,1,.79-.65h0a.61.61,0,0,1,.61.6.54.54,0,0,1-.05.28h0a11.71,11.71,0,0,1,5.71,4.49.61.61,0,0,1-.17.85A.64.64,0,0,1,606,379.18Z" transform="translate(-374.18 -113.92)"/><path class="cls-20" d="M646.52,376.33l-.14,0a.6.6,0,0,1-.46-.73l1-4.3a.62.62,0,0,1,.74-.47.6.6,0,0,1,.46.73l-1,4.31A.62.62,0,0,1,646.52,376.33Z" transform="translate(-374.18 -113.92)"/><path class="cls-20" d="M657.35,383.11a.58.58,0,0,1-.28-.07.62.62,0,0,1-.27-.83,8.86,8.86,0,0,0,.91-3.15.6.6,0,0,1,.67-.55.62.62,0,0,1,.56.67,10.09,10.09,0,0,1-1,3.59A.63.63,0,0,1,657.35,383.11Z" transform="translate(-374.18 -113.92)"/><path class="cls-20" d="M675.77,393a.61.61,0,0,1-.5-.26,2.27,2.27,0,0,1-.27-2.17.61.61,0,1,1,1.14.46,1.09,1.09,0,0,0,.13,1,.61.61,0,0,1-.14.86A.6.6,0,0,1,675.77,393Z" transform="translate(-374.18 -113.92)"/><path class="cls-20" d="M684.47,370.8h-.31a.61.61,0,0,1-.62-.61.62.62,0,0,1,.62-.62h.31a.61.61,0,0,1,.61.62A.61.61,0,0,1,684.47,370.8Z" transform="translate(-374.18 -113.92)"/><path class="cls-20" d="M690.62,361.26a.62.62,0,0,1-.6-.49l-.31-1.54a.62.62,0,0,1,.49-.73.61.61,0,0,1,.72.48l.31,1.54a.63.63,0,0,1-.48.73Z" transform="translate(-374.18 -113.92)"/><path class="cls-20" d="M615.2,351.1a.67.67,0,0,1-.28-.06l-.62-.31a.62.62,0,0,1-.27-.83.61.61,0,0,1,.83-.27l.61.3a.63.63,0,0,1,.28.83A.61.61,0,0,1,615.2,351.1Z" transform="translate(-374.18 -113.92)"/><path class="cls-20" d="M597.63,353.58a.63.63,0,0,1-.47-.22,17.22,17.22,0,0,0-2.91-2.75.62.62,0,0,1,.73-1,18.9,18.9,0,0,1,3.12,2.94.62.62,0,0,1-.47,1Z" transform="translate(-374.18 -113.92)"/><path class="cls-20" d="M587.49,349.25a.59.59,0,0,1-.23,0l-1.54-.62a.6.6,0,0,1-.34-.8.61.61,0,0,1,.8-.34l1.54.62a.61.61,0,0,1-.23,1.18Z" transform="translate(-374.18 -113.92)"/><path class="cls-20" d="M648.45,347.1a.58.58,0,0,1-.37-.13.61.61,0,0,1-.13-.86l.93-1.23a.61.61,0,1,1,1,.74l-.92,1.23A.63.63,0,0,1,648.45,347.1Z" transform="translate(-374.18 -113.92)"/><path class="cls-20" d="M631.78,377.56a.79.79,0,0,1-.25-.05.61.61,0,0,1-.31-.81,13.37,13.37,0,0,1,2.31-3.53.62.62,0,1,1,.91.83,11.71,11.71,0,0,0-2.09,3.2A.61.61,0,0,1,631.78,377.56Z" transform="translate(-374.18 -113.92)"/><path class="cls-20" d="M623.51,407.44l-.15,0a.61.61,0,0,1-.45-.74l.31-1.24a.61.61,0,0,1,1.19.3l-.3,1.23A.62.62,0,0,1,623.51,407.44Z" transform="translate(-374.18 -113.92)"/><path class="cls-20" d="M642,409.9h-1.85a.61.61,0,0,1-.61-.61.61.61,0,0,1,.61-.62H642a.62.62,0,0,1,.62.62A.61.61,0,0,1,642,409.9Z" transform="translate(-374.18 -113.92)"/><path class="cls-20" d="M683.84,407.16a.58.58,0,0,1-.28-.07l-1.23-.62a.62.62,0,1,1,.56-1.1l1.23.62a.63.63,0,0,1,.27.83A.63.63,0,0,1,683.84,407.16Z" transform="translate(-374.18 -113.92)"/><path class="cls-20" d="M696.19,410.82a.62.62,0,0,1-.55-.34L694.4,408a.62.62,0,0,1,1.1-.56l1.24,2.46a.62.62,0,0,1-.28.83A.54.54,0,0,1,696.19,410.82Z" transform="translate(-374.18 -113.92)"/><path class="cls-20" d="M679.85,439.15a.61.61,0,0,1-.62-.61v-3.39a.62.62,0,0,1,.62-.62.61.61,0,0,1,.61.62v3.39A.61.61,0,0,1,679.85,439.15Z" transform="translate(-374.18 -113.92)"/><path class="cls-20" d="M637.07,450.56a.61.61,0,0,1-.43-1.05l.61-.62a.62.62,0,0,1,.87,0,.63.63,0,0,1,0,.88l-.61.61A.64.64,0,0,1,637.07,450.56Z" transform="translate(-374.18 -113.92)"/><path class="cls-20" d="M611.5,450.85a.6.6,0,0,1-.43-.18l-1.85-1.85a.62.62,0,1,1,.87-.87l1.85,1.85a.62.62,0,0,1-.44,1.05Z" transform="translate(-374.18 -113.92)"/><path class="cls-20" d="M603.19,430.22a.61.61,0,0,1-.62-.61v-2.47a.61.61,0,0,1,.62-.61.61.61,0,0,1,.61.61v2.47A.61.61,0,0,1,603.19,430.22Z" transform="translate(-374.18 -113.92)"/><path class="cls-20" d="M602.6,415.76h-.05a.6.6,0,0,1-.56-.66l.33-4a.61.61,0,1,1,1.22.1l-.32,4A.63.63,0,0,1,602.6,415.76Z" transform="translate(-374.18 -113.92)"/><path class="cls-20" d="M606.61,395.77a.59.59,0,0,1-.43-.17.61.61,0,0,1,0-.87l1.53-1.55a.61.61,0,0,1,.87,0,.63.63,0,0,1,0,.87l-1.53,1.55A.62.62,0,0,1,606.61,395.77Z" transform="translate(-374.18 -113.92)"/><path class="cls-20" d="M614,424.37a.66.66,0,0,1-.27-.06l-.62-.31a.62.62,0,0,1-.27-.83.61.61,0,0,1,.82-.27l.62.31a.61.61,0,0,1-.28,1.16Z" transform="translate(-374.18 -113.92)"/><path class="cls-20" d="M587.18,421.29a.6.6,0,0,1-.6-.49l-.31-1.54a.61.61,0,0,1,.48-.72.62.62,0,0,1,.73.48l.3,1.54a.61.61,0,0,1-.48.72Z" transform="translate(-374.18 -113.92)"/><path class="cls-20" d="M590.26,454.55a.62.62,0,0,1-.62-.62v-2.16a.61.61,0,0,1,.62-.61.61.61,0,0,1,.61.61v2.16A.61.61,0,0,1,590.26,454.55Z" transform="translate(-374.18 -113.92)"/><path class="cls-20" d="M597,460.7h-2.15a.61.61,0,0,1-.62-.61.62.62,0,0,1,.62-.62H597a.62.62,0,0,1,.62.62A.61.61,0,0,1,597,460.7Z" transform="translate(-374.18 -113.92)"/><path class="cls-20" d="M629.66,460.35a.61.61,0,0,1-.11-1.22l1.85-.32a.62.62,0,0,1,.21,1.22l-1.85.31Z" transform="translate(-374.18 -113.92)"/><path class="cls-20" d="M664,455.49a7.78,7.78,0,0,1-3.22-.7.61.61,0,0,1,.5-1.12,6.62,6.62,0,0,0,3.1.58.62.62,0,1,1,.07,1.23Z" transform="translate(-374.18 -113.92)"/><path class="cls-20" d="M682.22,460a.66.66,0,0,1-.27-.06,3.11,3.11,0,0,1-1.65-3.27.61.61,0,0,1,1.21.21,1.9,1.9,0,0,0,1,2,.6.6,0,0,1,.27.82A.59.59,0,0,1,682.22,460Z" transform="translate(-374.18 -113.92)"/><path class="cls-20" d="M692.81,460.12a.67.67,0,0,1-.39-.14.62.62,0,0,1-.08-.87l1.26-1.52a.61.61,0,0,1,.86-.08.62.62,0,0,1,.09.87l-1.26,1.51A.62.62,0,0,1,692.81,460.12Z" transform="translate(-374.18 -113.92)"/><path class="cls-20" d="M696.17,440.69a.69.69,0,0,1-.2,0,.62.62,0,0,1-.39-.78l.93-2.77a.6.6,0,0,1,.77-.39.61.61,0,0,1,.39.78l-.92,2.77A.62.62,0,0,1,696.17,440.69Z" transform="translate(-374.18 -113.92)"/><path class="cls-20" d="M652.73,426.84a.63.63,0,0,1-.62-.57.77.77,0,0,0-.65-.68.61.61,0,1,1,.13-1.22,2,2,0,0,1,1.75,1.81.62.62,0,0,1-.57.66Z" transform="translate(-374.18 -113.92)"/><path class="cls-20" d="M632.8,428a.6.6,0,0,1-.5-.27l-.64-.91a.61.61,0,0,1,.16-.85.6.6,0,0,1,.85.15l.64.91a.62.62,0,0,1-.51,1Z" transform="translate(-374.18 -113.92)"/><path class="cls-20" d="M659.22,405.29a.6.6,0,0,1-.43-.18l-.31-.31a.62.62,0,0,1,0-.87.61.61,0,0,1,.87,0l.31.3a.62.62,0,0,1,0,.87A.63.63,0,0,1,659.22,405.29Z" transform="translate(-374.18 -113.92)"/><path class="cls-20" d="M642.6,391.43h-.31a.61.61,0,0,1-.62-.61.62.62,0,0,1,.62-.62h.31a.61.61,0,0,1,.61.62A.61.61,0,0,1,642.6,391.43Z" transform="translate(-374.18 -113.92)"/><path class="cls-20" d="M626.89,362.8a.62.62,0,0,1-.43-1.05l.62-.62a.62.62,0,1,1,.87.87l-.62.62A.62.62,0,0,1,626.89,362.8Z" transform="translate(-374.18 -113.92)"/><path class="cls-20" d="M683,377.88a.62.62,0,0,1-.61-.56l-.32-3.38a.62.62,0,0,1,1.23-.12l.31,3.39a.6.6,0,0,1-.55.67Z" transform="translate(-374.18 -113.92)"/><path class="cls-20" d="M691.66,381.67a.62.62,0,0,1-.57-.38l-1-2.56a.63.63,0,0,1,.34-.8.6.6,0,0,1,.8.34l.87,2.12.34,0a.61.61,0,0,1,.68.54.62.62,0,0,1-.54.69l-.81.09Z" transform="translate(-374.18 -113.92)"/><path class="cls-20" d="M692.14,350.2a.6.6,0,0,1-.43-.18l-1.23-1.23a.63.63,0,0,1,0-.88.62.62,0,0,1,.87,0l1.23,1.23a.62.62,0,0,1-.44,1.05Z" transform="translate(-374.18 -113.92)"/><path class="cls-20" d="M682.62,344.64H682a.62.62,0,0,1,0-1.24h.62a.62.62,0,1,1,0,1.24Z" transform="translate(-374.18 -113.92)"/><path class="cls-20" d="M661.71,352.31a.59.59,0,0,1-.44-.19,1.47,1.47,0,0,1-.37-1.36,1.49,1.49,0,0,1,.87-1.11.61.61,0,1,1,.48,1.13.31.31,0,0,0-.15.22.3.3,0,0,0,0,.26.62.62,0,0,1,0,.87A.6.6,0,0,1,661.71,352.31Z" transform="translate(-374.18 -113.92)"/><path class="cls-20" d="M665.11,365.23a.6.6,0,0,1-.47-.22l-1.56-1.83a.62.62,0,0,1,.94-.8l1.56,1.83a.62.62,0,0,1-.47,1Z" transform="translate(-374.18 -113.92)"/><path class="cls-20" d="M622,346.8a.62.62,0,0,1-.53-.93,2,2,0,0,1,1.77-.94.62.62,0,0,1,.59.64.61.61,0,0,1-.65.59.73.73,0,0,0-.65.35A.62.62,0,0,1,622,346.8Z" transform="translate(-374.18 -113.92)"/><path class="cls-20" d="M590.58,386.9h-.06a2.7,2.7,0,0,1-2.26-2.27,6.71,6.71,0,0,1,.25-2.88.61.61,0,0,1,.74-.45.62.62,0,0,1,.46.74,5.63,5.63,0,0,0-.24,2.35,1.52,1.52,0,0,0,1.16,1.28.62.62,0,0,1,0,1.23Z" transform="translate(-374.18 -113.92)"/><path class="cls-21" d="M653.3,396.4a.54.54,0,0,1-.27-.07,1.29,1.29,0,0,1-.59-.82,1.22,1.22,0,0,1,.15-1,.61.61,0,0,1,.84-.2.62.62,0,0,1,.2.85.66.66,0,0,1-.33,1.23Z" transform="translate(-374.18 -113.92)"/><path class="cls-21" d="M671.56,401.27a.62.62,0,0,1-.48-.23l-1.24-1.54a.63.63,0,0,1,.1-.87.62.62,0,0,1,.87.1l1.23,1.54a.61.61,0,0,1-.1.86A.62.62,0,0,1,671.56,401.27Z" transform="translate(-374.18 -113.92)"/><path class="cls-21" d="M674.9,424.67a.58.58,0,0,1-.28-.07.88.88,0,0,1,.14-1.75,1.07,1.07,0,0,1,.69,1.48A.63.63,0,0,1,674.9,424.67Zm-.43-.62h0Z" transform="translate(-374.18 -113.92)"/><path class="cls-21" d="M642,452.07a.67.67,0,0,1-.28-.06.61.61,0,0,1-.33-.64.63.63,0,0,1-.28-.67.62.62,0,0,1,.75-.45,1.07,1.07,0,0,1,.69,1.48A.63.63,0,0,1,642,452.07Zm-.43-.62h0Z" transform="translate(-374.18 -113.92)"/><path class="cls-21" d="M618.27,446.54a.62.62,0,0,1-.6-.49l-.31-1.54a.62.62,0,0,1,.49-.73.61.61,0,0,1,.72.49l.31,1.53a.62.62,0,0,1-.48.73Z" transform="translate(-374.18 -113.92)"/><path class="cls-21" d="M611.77,436.11a.59.59,0,0,1-.42-.18l-.63-.6a.62.62,0,0,1,.86-.89l.62.61a.62.62,0,0,1,0,.87A.6.6,0,0,1,611.77,436.11Z" transform="translate(-374.18 -113.92)"/><path class="cls-21" d="M600.87,445.31a1,1,0,0,1-.46-.1,1.08,1.08,0,0,1-.58-.61.62.62,0,0,1,1.16-.42.5.5,0,0,1,.7.3c.13.32-.13.63-.44.76A1,1,0,0,1,600.87,445.31Z" transform="translate(-374.18 -113.92)"/><path class="cls-21" d="M591.8,447.16h-.31a.62.62,0,0,1,0-1.24h.31a.62.62,0,0,1,0,1.24Z" transform="translate(-374.18 -113.92)"/><path class="cls-21" d="M617.35,461.93h-.61a.61.61,0,0,1-.62-.61.62.62,0,0,1,.62-.62h.61a.62.62,0,0,1,.62.62A.61.61,0,0,1,617.35,461.93Z" transform="translate(-374.18 -113.92)"/><path class="cls-21" d="M654,465.32a.61.61,0,0,1-.18-1.2,8.47,8.47,0,0,1,3.32-.34.62.62,0,0,1,.55.68.62.62,0,0,1-.67.55,7.36,7.36,0,0,0-2.84.28Z" transform="translate(-374.18 -113.92)"/><path class="cls-21" d="M689.09,449.29H689l-1.54-.32a.61.61,0,0,1,.24-1.2l1.54.31a.62.62,0,0,1,.48.73A.61.61,0,0,1,689.09,449.29Z" transform="translate(-374.18 -113.92)"/><path class="cls-21" d="M699.85,451.16l-.14,0a.62.62,0,0,1-.46-.74,1.3,1.3,0,0,0-.41-1.23.61.61,0,0,1,.79-.94,2.5,2.5,0,0,1,.82,2.45A.62.62,0,0,1,699.85,451.16Z" transform="translate(-374.18 -113.92)"/><path class="cls-21" d="M660.11,437.93a1.3,1.3,0,0,1-.65-.18,1.2,1.2,0,0,1-.6-1.15.64.64,0,0,1,.69-.53.62.62,0,0,1,.54.69.58.58,0,0,1,.83.12.6.6,0,0,1-.16.85A1.09,1.09,0,0,1,660.11,437.93Z" transform="translate(-374.18 -113.92)"/><path class="cls-21" d="M667.25,414.85a2,2,0,0,1-.47-.06.62.62,0,0,1-.46-.74.62.62,0,0,1,.74-.46.93.93,0,0,0,.74-.15.61.61,0,0,1,.86.12.62.62,0,0,1-.12.86A2.15,2.15,0,0,1,667.25,414.85Z" transform="translate(-374.18 -113.92)"/><path class="cls-21" d="M669.1,392.37a.58.58,0,0,1-.28-.07.61.61,0,0,1-.27-.82l.31-.62a.62.62,0,0,1,1.1.56l-.31.61A.6.6,0,0,1,669.1,392.37Z" transform="translate(-374.18 -113.92)"/><path class="cls-21" d="M675.53,375.7a.62.62,0,0,1-.08-1.23s0,0,.08-.06a.69.69,0,0,1,.5-.78.6.6,0,0,1,.74.43,1.35,1.35,0,0,1-.23,1.06,1.36,1.36,0,0,1-.93.57Z" transform="translate(-374.18 -113.92)"/><path class="cls-21" d="M678.92,365.57a.61.61,0,0,1-.31-.09.61.61,0,0,1-.21-.84l.92-1.54a.62.62,0,0,1,1.06.63l-.93,1.54A.62.62,0,0,1,678.92,365.57Z" transform="translate(-374.18 -113.92)"/><path class="cls-21" d="M681.7,361a.61.61,0,0,1-.62-.61v-.93a.61.61,0,0,1,.62-.61.61.61,0,0,1,.61.61v.93A.61.61,0,0,1,681.7,361Z" transform="translate(-374.18 -113.92)"/><path class="cls-21" d="M608.73,376h-.31a.61.61,0,0,1-.61-.62.61.61,0,0,1,.61-.61h.31a.61.61,0,0,1,.62.61A.62.62,0,0,1,608.73,376Z" transform="translate(-374.18 -113.92)"/><path class="cls-21" d="M607.18,358.48a.61.61,0,0,1-.45-.2.62.62,0,0,1,0-.87,2.64,2.64,0,0,0,.8-1.48.61.61,0,0,1,1.21.21,3.81,3.81,0,0,1-1.17,2.17A.63.63,0,0,1,607.18,358.48Z" transform="translate(-374.18 -113.92)"/><path class="cls-21" d="M606.88,344.33a.61.61,0,0,1-.61-.62v-.92a.61.61,0,0,1,.61-.62.62.62,0,0,1,.62.62v.92A.62.62,0,0,1,606.88,344.33Z" transform="translate(-374.18 -113.92)"/><path class="cls-21" d="M591.49,363.11a.62.62,0,0,1-.62-.62V361a.62.62,0,0,1,1.24,0v1.54A.62.62,0,0,1,591.49,363.11Z" transform="translate(-374.18 -113.92)"/><path class="cls-21" d="M591.51,347.39a.64.64,0,0,1-.47-.21.28.28,0,0,0-.29-.08.63.63,0,0,1-.77-.42.63.63,0,0,1,.42-.77,1.54,1.54,0,0,1,1.57.46.62.62,0,0,1-.06.87A.6.6,0,0,1,591.51,347.39Z" transform="translate(-374.18 -113.92)"/><path class="cls-21" d="M663.91,349.23a.6.6,0,0,1-.58-.42l-.31-.92a.6.6,0,0,1,.39-.78.6.6,0,0,1,.77.39l.31.92a.61.61,0,0,1-.38.78Z" transform="translate(-374.18 -113.92)"/><path class="cls-21" d="M643.82,358.2a.58.58,0,0,1-.31-.08,1.66,1.66,0,0,0-1.56,0,.62.62,0,0,1-.84-.26.62.62,0,0,1,.27-.83,2.87,2.87,0,0,1,2.74.05.61.61,0,0,1,.23.84A.6.6,0,0,1,643.82,358.2Z" transform="translate(-374.18 -113.92)"/><path class="cls-21" d="M637.68,370.47a.69.69,0,0,1-.24-.05l-2.16-.92a.61.61,0,0,1-.32-.81.62.62,0,0,1,.81-.32l2.15.92a.61.61,0,0,1,.33.81A.62.62,0,0,1,637.68,370.47Z" transform="translate(-374.18 -113.92)"/><path class="cls-21" d="M639.75,393.85a.67.67,0,0,1-.33-.1.62.62,0,0,1-.18-.86.62.62,0,0,0-.4-.84.61.61,0,0,1,.12-1.22,1.83,1.83,0,0,1,1.31,2.74A.63.63,0,0,1,639.75,393.85Z" transform="translate(-374.18 -113.92)"/><path class="cls-21" d="M627.25,395.7a.6.6,0,0,1-.43-.18l-.63-.6a.62.62,0,0,1,.86-.89l.63.61a.63.63,0,0,1,0,.87A.59.59,0,0,1,627.25,395.7Z" transform="translate(-374.18 -113.92)"/><path class="cls-21" d="M618,381.87a.59.59,0,0,1-.55-.34l-.31-.61a.61.61,0,0,1,.27-.83.63.63,0,0,1,.83.27l.31.62a.62.62,0,0,1-.28.83A.66.66,0,0,1,618,381.87Z" transform="translate(-374.18 -113.92)"/><path class="cls-21" d="M590.87,404.36a.63.63,0,0,1-.34-.1.62.62,0,0,1-.17-.86l.62-.92a.61.61,0,1,1,1,.68l-.61.93A.62.62,0,0,1,590.87,404.36Z" transform="translate(-374.18 -113.92)"/><path class="cls-21" d="M587.18,389.58H587a.62.62,0,0,1-.71-.5.74.74,0,0,1,1.19-.69.77.77,0,0,1,.26.74A.61.61,0,0,1,587.18,389.58Z" transform="translate(-374.18 -113.92)"/><path class="cls-21" d="M601,390.2h-1.84a.62.62,0,0,1-.62-.62.61.61,0,0,1,.62-.61H601a.61.61,0,0,1,.62.61A.62.62,0,0,1,601,390.2Z" transform="translate(-374.18 -113.92)"/><path class="cls-21" d="M590,372h-.31a.62.62,0,0,1,0-1.24H590a.62.62,0,0,1,0,1.24Z" transform="translate(-374.18 -113.92)"/><path class="cls-21" d="M666.63,363.44a.6.6,0,0,1-.49-.24.61.61,0,0,1,.12-.86l1.22-.93a.62.62,0,0,1,.87.11.63.63,0,0,1-.12.87l-1.23.93A.63.63,0,0,1,666.63,363.44Z" transform="translate(-374.18 -113.92)"/><path class="cls-21" d="M681.08,353h-.92a.62.62,0,0,1-.62-.62.61.61,0,0,1,.62-.61h.92a.61.61,0,0,1,.62.61A.62.62,0,0,1,681.08,353Z" transform="translate(-374.18 -113.92)"/><path class="cls-21" d="M694.32,345.25h-1.23a.62.62,0,1,1,0-1.23h1.23a.62.62,0,0,1,0,1.23Z" transform="translate(-374.18 -113.92)"/><path class="cls-21" d="M698.39,365.56a.62.62,0,0,1-.6-.49l-.64-3.08a.62.62,0,0,1,.47-.73.63.63,0,0,1,.73.48l.65,3.07a.62.62,0,0,1-.48.73Z" transform="translate(-374.18 -113.92)"/><path class="cls-21" d="M697.71,381a.61.61,0,0,1-.62-.61v-2.16a.61.61,0,0,1,.62-.61.61.61,0,0,1,.61.61v2.16A.61.61,0,0,1,697.71,381Z" transform="translate(-374.18 -113.92)"/><path class="cls-21" d="M699,352a.62.62,0,0,1-.6-.48l-.64-2.76a.62.62,0,0,1,1.2-.28l.64,2.76a.61.61,0,0,1-.46.74Z" transform="translate(-374.18 -113.92)"/><path class="cls-21" d="M699.56,390.83a.62.62,0,0,1-.36-1.12,1.4,1.4,0,0,1,1.63,0,.61.61,0,0,1,.14.86.62.62,0,0,1-.86.13.19.19,0,0,0-.19,0A.6.6,0,0,1,699.56,390.83Z" transform="translate(-374.18 -113.92)"/><path class="cls-21" d="M689.67,408.05h-.11a.61.61,0,0,1-.5-.71l.31-1.84a.61.61,0,1,1,1.21.2l-.31,1.85A.61.61,0,0,1,689.67,408.05Z" transform="translate(-374.18 -113.92)"/><path class="cls-21" d="M689.39,429.3a.62.62,0,0,1-.43-1.05l.31-.31a.62.62,0,0,1,.87.87l-.31.31A.62.62,0,0,1,689.39,429.3Z" transform="translate(-374.18 -113.92)"/><path class="cls-21" d="M667.88,441.54a.54.54,0,0,1-.3-.08l-1.56-.89a.6.6,0,0,1-.23-.83.61.61,0,0,1,.84-.23l1.56.88a.62.62,0,0,1-.31,1.15Z" transform="translate(-374.18 -113.92)"/><path class="cls-21" d="M666,453.93h-1.23a.61.61,0,0,1-.61-.62.61.61,0,0,1,.61-.61H666a.61.61,0,0,1,.62.61A.62.62,0,0,1,666,453.93Z" transform="translate(-374.18 -113.92)"/><path class="cls-21" d="M646.29,451.16h-1.23a.62.62,0,0,1-.62-.62.61.61,0,0,1,.62-.61h1.23a.61.61,0,0,1,.62.61A.62.62,0,0,1,646.29,451.16Z" transform="translate(-374.18 -113.92)"/><path class="cls-21" d="M642,436.07a.6.6,0,0,1-.43-.18l-.62-.61a.62.62,0,0,1,.87-.87l.62.61a.62.62,0,0,1-.44,1.05Z" transform="translate(-374.18 -113.92)"/><path class="cls-21" d="M639.84,417.89a.62.62,0,0,1-.32-.09,1.5,1.5,0,0,0-1.11-.2.61.61,0,0,1-.72-.48.62.62,0,0,1,.47-.73,2.8,2.8,0,0,1,2,.36.61.61,0,0,1,.2.84A.6.6,0,0,1,639.84,417.89Z" transform="translate(-374.18 -113.92)"/><path class="cls-21" d="M620.74,416.68a.62.62,0,0,1-.44-1.05l.31-.31a.62.62,0,1,1,.87.87l-.31.31A.6.6,0,0,1,620.74,416.68Z" transform="translate(-374.18 -113.92)"/><path class="cls-21" d="M625.78,465.84h-.06a1.67,1.67,0,0,1-1.42-1,.86.86,0,0,1,.36-.95.61.61,0,0,1,.94.68.53.53,0,0,0,.23.08.62.62,0,0,1-.05,1.23Z" transform="translate(-374.18 -113.92)"/><path class="cls-21" d="M605,465.94a.62.62,0,0,1-.44-1.05l.31-.31a.62.62,0,1,1,.87.87l-.31.31A.61.61,0,0,1,605,465.94Z" transform="translate(-374.18 -113.92)"/><path class="cls-21" d="M606.27,454.24H606a.62.62,0,0,1-.62-.62A.61.61,0,0,1,606,453h.31a.61.61,0,0,1,.61.61A.61.61,0,0,1,606.27,454.24Z" transform="translate(-374.18 -113.92)"/><path class="cls-21" d="M595.77,437a.61.61,0,0,1-.55-.34l-.31-.61a.62.62,0,0,1,1.1-.56l.31.62a.63.63,0,0,1-.27.83A.71.71,0,0,1,595.77,437Z" transform="translate(-374.18 -113.92)"/><path class="cls-21" d="M595.8,421a.62.62,0,0,1-.44-1.05l.62-.62a.62.62,0,0,1,.87.87l-.61.62A.62.62,0,0,1,595.8,421Z" transform="translate(-374.18 -113.92)"/><path class="cls-22" d="M649.68,385a.64.64,0,0,1-.54-.31l-1.23-2.16a.62.62,0,0,1,.23-.84.61.61,0,0,1,.84.23l1.23,2.15a.61.61,0,0,1-.23.84A.55.55,0,0,1,649.68,385Z" transform="translate(-374.18 -113.92)"/><path class="cls-22" d="M657.68,412.37a.61.61,0,0,1-.61-.62v-.61a.61.61,0,0,1,.61-.62.62.62,0,0,1,.62.62v.61A.62.62,0,0,1,657.68,412.37Z" transform="translate(-374.18 -113.92)"/><path class="cls-22" d="M689.08,421.91a.61.61,0,0,1-.61-.62V421a.62.62,0,1,1,1.23,0v.3A.61.61,0,0,1,689.08,421.91Z" transform="translate(-374.18 -113.92)"/><path class="cls-22" d="M695.24,393.59a.61.61,0,0,1-.51-.28l-1.23-1.84a.62.62,0,0,1,.17-.86.61.61,0,0,1,.85.17l1.23,1.85a.62.62,0,0,1-.51,1Z" transform="translate(-374.18 -113.92)"/><path class="cls-22" d="M650,368a.62.62,0,0,1-.59-.42l-.31-.92a.63.63,0,0,1,.39-.78.62.62,0,0,1,.78.39l.31.92a.62.62,0,0,1-.39.78A.63.63,0,0,1,650,368Z" transform="translate(-374.18 -113.92)"/><path class="cls-22" d="M644.75,346.48h-.31a.61.61,0,0,1-.61-.61.61.61,0,0,1,.61-.62h.31a.62.62,0,0,1,.62.62A.61.61,0,0,1,644.75,346.48Z" transform="translate(-374.18 -113.92)"/><path class="cls-22" d="M609.65,366.19h-.3a.62.62,0,1,1,0-1.24h.3a.62.62,0,1,1,0,1.24Z" transform="translate(-374.18 -113.92)"/><path class="cls-22" d="M594.88,376a.63.63,0,0,1-.52-.28.62.62,0,0,1,.17-.85l.93-.62a.62.62,0,0,1,.68,1l-.92.61A.65.65,0,0,1,594.88,376Z" transform="translate(-374.18 -113.92)"/><path class="cls-22" d="M615.78,427.14h0a.63.63,0,0,1-.57-.67,2.21,2.21,0,0,0-.63-1.74.61.61,0,0,1,0-.87.62.62,0,0,1,.87,0,3.5,3.5,0,0,1,1,2.72A.62.62,0,0,1,615.78,427.14Z" transform="translate(-374.18 -113.92)"/><path class="cls-22" d="M619.17,393a.63.63,0,0,1-.53-.3,6.66,6.66,0,0,1-1-3.75.6.6,0,0,1,.65-.59.62.62,0,0,1,.58.65,5.45,5.45,0,0,0,.79,3.05.63.63,0,0,1-.21.85A.62.62,0,0,1,619.17,393Z" transform="translate(-374.18 -113.92)"/><path class="cls-22" d="M627.2,369.89a.57.57,0,0,1-.41-.16,5.45,5.45,0,0,1-1.73-3.13.61.61,0,0,1,.51-.71.62.62,0,0,1,.71.5,4.12,4.12,0,0,0,1.33,2.42.62.62,0,0,1,0,.87A.58.58,0,0,1,627.2,369.89Z" transform="translate(-374.18 -113.92)"/><path class="cls-22" d="M679.52,345.3a.79.79,0,0,1-.2,0l-.92-.32a.62.62,0,0,1-.37-.79.6.6,0,0,1,.78-.37l.92.32a.61.61,0,0,1,.38.78A.62.62,0,0,1,679.52,345.3Z" transform="translate(-374.18 -113.92)"/><path class="cls-22" d="M668.77,340.94a.62.62,0,0,1-.62-.62V340a.62.62,0,0,1,.62-.62.61.61,0,0,1,.61.62v.3A.61.61,0,0,1,668.77,340.94Z" transform="translate(-374.18 -113.92)"/><path class="cls-22" d="M638.59,340.63A.61.61,0,0,1,638,340v-.31a.61.61,0,0,1,.61-.62.62.62,0,0,1,.62.62V340A.61.61,0,0,1,638.59,340.63Z" transform="translate(-374.18 -113.92)"/><path class="cls-22" d="M598,343.4a.62.62,0,0,1-.44-1l.31-.31a.62.62,0,0,1,.87,0,.63.63,0,0,1,0,.88l-.31.3A.61.61,0,0,1,598,343.4Z" transform="translate(-374.18 -113.92)"/><path class="cls-22" d="M593.57,411.15a.61.61,0,0,1-.59-.45l-.59-2.16a.63.63,0,0,1,.44-.76.61.61,0,0,1,.75.43l.59,2.17a.61.61,0,0,1-.43.75A.5.5,0,0,1,593.57,411.15Z" transform="translate(-374.18 -113.92)"/><path class="cls-22" d="M590.31,434.5a.61.61,0,0,1-.51-.28,2.18,2.18,0,0,1-.14-2.14.62.62,0,0,1,1.11.55,1,1,0,0,0,.05.91.62.62,0,0,1-.51,1Z" transform="translate(-374.18 -113.92)"/><path class="cls-22" d="M588.1,449h-.3a.61.61,0,0,1-.62-.61.62.62,0,0,1,.62-.62h.3a.62.62,0,0,1,.62.62A.61.61,0,0,1,588.1,449Z" transform="translate(-374.18 -113.92)"/><path class="cls-22" d="M603.5,456.7h-1.23a.62.62,0,0,1-.62-.62.61.61,0,0,1,.62-.61h1.23a.61.61,0,0,1,.61.61A.61.61,0,0,1,603.5,456.7Z" transform="translate(-374.18 -113.92)"/><path class="cls-22" d="M603.19,443.46H602a.61.61,0,0,1-.62-.61.62.62,0,0,1,.62-.62h1.23a.61.61,0,0,1,.61.62A.61.61,0,0,1,603.19,443.46Z" transform="translate(-374.18 -113.92)"/><path class="cls-22" d="M586.85,468.47a.69.69,0,0,1-.2,0l-.92-.31a.62.62,0,0,1,.39-1.17l.92.31a.61.61,0,0,1,.39.78A.6.6,0,0,1,586.85,468.47Z" transform="translate(-374.18 -113.92)"/><path class="cls-22" d="M614.58,468.09h-.92a.61.61,0,0,1-.62-.61.62.62,0,0,1,.62-.62h.92a.62.62,0,0,1,.62.62A.61.61,0,0,1,614.58,468.09Z" transform="translate(-374.18 -113.92)"/><path class="cls-22" d="M645.37,466.86h-1.54a.62.62,0,0,1-.62-.62.61.61,0,0,1,.62-.61h1.54a.61.61,0,0,1,.61.61A.61.61,0,0,1,645.37,466.86Z" transform="translate(-374.18 -113.92)"/><path class="cls-22" d="M674.92,467.78h-1.23a.61.61,0,0,1-.61-.61.61.61,0,0,1,.61-.62h1.23a.62.62,0,0,1,.62.62A.61.61,0,0,1,674.92,467.78Z" transform="translate(-374.18 -113.92)"/><path class="cls-22" d="M693.87,463.47a1,1,0,0,1-.38-.07.62.62,0,0,1-.35-.8.61.61,0,0,1,.69-.37.56.56,0,0,1,.74-.3.65.65,0,0,1,.34.83,1.08,1.08,0,0,1-.58.61A1.06,1.06,0,0,1,693.87,463.47Z" transform="translate(-374.18 -113.92)"/><path class="cls-22" d="M693.4,429.61a.64.64,0,0,1-.59-.42l-.31-.93a.62.62,0,1,1,1.17-.39l.31.93a.62.62,0,0,1-.39.78A.63.63,0,0,1,693.4,429.61Z" transform="translate(-374.18 -113.92)"/><path class="cls-22" d="M659,427.07a.66.66,0,0,1-.33-.09l-.94-.58a.62.62,0,0,1,.65-1l.94.59a.61.61,0,0,1,.2.84A.61.61,0,0,1,659,427.07Z" transform="translate(-374.18 -113.92)"/><path class="cls-22" d="M669.38,434.23h-.61a.62.62,0,0,1,0-1.24h.61a.62.62,0,0,1,0,1.24Z" transform="translate(-374.18 -113.92)"/><path class="cls-22" d="M647.21,441.61a.61.61,0,0,1-.59-.46l-.31-1.23a.62.62,0,0,1,.45-.75.61.61,0,0,1,.74.45l.31,1.23a.63.63,0,0,1-.45.75Z" transform="translate(-374.18 -113.92)"/><path class="cls-23" d="M680.77,388.66a.61.61,0,0,1-.61-.62v-.3a.61.61,0,0,1,.61-.62.62.62,0,0,1,.62.62v.3A.62.62,0,0,1,680.77,388.66Z" transform="translate(-374.18 -113.92)"/><path class="cls-23" d="M689.08,356.33a.61.61,0,0,1-.61-.61v-1.23a.62.62,0,1,1,1.23,0v1.23A.61.61,0,0,1,689.08,356.33Z" transform="translate(-374.18 -113.92)"/><path class="cls-23" d="M648.38,350.82a.63.63,0,0,1-.59-.43l-.31-.92a.63.63,0,0,1,.39-.78.62.62,0,0,1,.78.39l.31.93a.6.6,0,0,1-.39.77A.43.43,0,0,1,648.38,350.82Z" transform="translate(-374.18 -113.92)"/><path class="cls-23" d="M625.36,350.79h-.31a.61.61,0,0,1-.62-.61.62.62,0,0,1,.62-.62h.31a.61.61,0,0,1,.61.62A.61.61,0,0,1,625.36,350.79Z" transform="translate(-374.18 -113.92)"/><path class="cls-23" d="M613.22,409.3a1,1,0,0,1-.44-.1.61.61,0,0,1,.36-1.16.6.6,0,0,1,.66-.27.62.62,0,0,1,.46.74,1.08,1.08,0,0,1-.58.69A1.06,1.06,0,0,1,613.22,409.3Zm.11-1.2Z" transform="translate(-374.18 -113.92)"/><path class="cls-23" d="M598,370.19a.62.62,0,0,1-.62-.62v-.31a.62.62,0,0,1,1.23,0v.31A.61.61,0,0,1,598,370.19Z" transform="translate(-374.18 -113.92)"/><path class="cls-23" d="M608.42,423.14h-.31a.61.61,0,0,1-.61-.61.61.61,0,0,1,.61-.62h.31a.62.62,0,0,1,.62.62A.61.61,0,0,1,608.42,423.14Z" transform="translate(-374.18 -113.92)"/><path class="cls-23" d="M638.9,402.21a.61.61,0,0,1-.43-.18l-.31-.31a.62.62,0,0,1,.87-.87l.31.3a.63.63,0,0,1,0,.88A.62.62,0,0,1,638.9,402.21Z" transform="translate(-374.18 -113.92)"/><path class="cls-23" d="M664.76,390.82l-.14,0a.62.62,0,0,1-.46-.74,1.07,1.07,0,0,1,.58-.7,1.09,1.09,0,0,1,.9,0,.62.62,0,0,1-.36,1.17A.64.64,0,0,1,664.76,390.82Z" transform="translate(-374.18 -113.92)"/><path class="cls-23" d="M672.15,381.58h-1.23a.62.62,0,0,1-.62-.62.61.61,0,0,1,.62-.61h1.23a.61.61,0,0,1,.62.61A.62.62,0,0,1,672.15,381.58Z" transform="translate(-374.18 -113.92)"/><path class="cls-23" d="M684.16,401.59h-.92a.61.61,0,0,1-.62-.61.62.62,0,0,1,.62-.62h.92a.61.61,0,0,1,.61.62A.61.61,0,0,1,684.16,401.59Z" transform="translate(-374.18 -113.92)"/><path class="cls-23" d="M683.24,429l-.2,0-.92-.33a.61.61,0,0,1-.38-.78.63.63,0,0,1,.79-.38l.92.32a.62.62,0,0,1-.21,1.2Z" transform="translate(-374.18 -113.92)"/><path class="cls-23" d="M684.47,445.92a.62.62,0,0,1-.44-1.05l.31-.3a.62.62,0,1,1,.87.87l-.31.3A.61.61,0,0,1,684.47,445.92Z" transform="translate(-374.18 -113.92)"/><path class="cls-12" d="M619.18,410.55c4-.53,8.34-.86,11.5-3.39-5.81-8.72-7.69-19.39-9.51-29.71a1.8,1.8,0,0,0-.63-1.28c-.72-.44-1.57.29-2.07,1a42.41,42.41,0,0,0-8.35,23.05,64.3,64.3,0,0,1-.42,6.8c-.4,2.57-1.2,5.09-1.54,7.67,1.09-1.59,2.41-1.47,4.06-2C614.59,411.94,616.68,410.88,619.18,410.55Z" transform="translate(-374.18 -113.92)"/><path class="cls-23" d="M597.65,381.58s16-8.62,22.78-5.54c.62,11.7,8,27.46,8,27.46s-19.08,1.82-20.32,11.81C605.65,409.9,597.65,381.58,597.65,381.58Z" transform="translate(-374.18 -113.92)"/><path class="cls-12" d="M650.77,438.69c8.18,3.67,16.16,5.39,23.89,9.93a124.64,124.64,0,0,0,3.28-29.94c-3,.34-5.52,2.18-8.28,3.34-3.84,1.6-8.08,1.88-11.95,3.4-1.74.68-3.61,1.53-4.58,3.14C651.88,430.65,651.49,436.35,650.77,438.69Z" transform="translate(-374.18 -113.92)"/><path class="cls-24" d="M649.37,433.61A85.27,85.27,0,0,1,674,447.7c4.31-12.55,11.7-44.2,11.7-44.2s-22.78-4.06-22.78-9.61C659.22,404.36,649.37,433.61,649.37,433.61Z" transform="translate(-374.18 -113.92)"/><path class="cls-25" d="M669,403.5a1.92,1.92,0,1,1,1.92,1.92A1.91,1.91,0,0,1,669,403.5Z" transform="translate(-374.18 -113.92)"/><circle class="cls-25" cx="233.63" cy="266.89" r="1.23"/><path class="cls-26" d="M665.78,426.61a3.74,3.74,0,0,1-2.54-.89,5.44,5.44,0,0,1-1.35-2.83.5.5,0,0,0,0-.12,2.07,2.07,0,0,1-3.24.16c-.91-.86-1.36-2.36-.51-3.29a1.76,1.76,0,0,1,1.3-.54h0a2.58,2.58,0,0,1,1.8.78,4.3,4.3,0,0,1,.91,1.61,19.15,19.15,0,0,0,2.76-4.32,8.3,8.3,0,0,0,.56-5.3,1.25,1.25,0,0,0-.46-.8,1.06,1.06,0,0,0-.79-.05,2.89,2.89,0,0,0-2.1,2,.31.31,0,0,1-.37.22.32.32,0,0,1-.22-.38,3.55,3.55,0,0,1,2.55-2.48,1.67,1.67,0,0,1,1.25.13,1.89,1.89,0,0,1,.74,1.17,8.84,8.84,0,0,1-.6,5.69,20.81,20.81,0,0,1-3.09,4.79h0c0,.18.09.35.13.52a4.88,4.88,0,0,0,1.17,2.54A3.24,3.24,0,0,0,666,426a9.39,9.39,0,0,0,2.62-.68.31.31,0,1,1,.22.58,10,10,0,0,1-2.8.71Zm-6.34-6.9h0a1.18,1.18,0,0,0-.85.35c-.59.63-.23,1.76.47,2.42a1.75,1.75,0,0,0,1,.54,2.14,2.14,0,0,0,1.63-1,4.24,4.24,0,0,0-.88-1.76A2,2,0,0,0,659.44,419.71Z" transform="translate(-374.18 -113.92)"/><path class="cls-26" d="M670.92,426.4h0a.3.3,0,0,1-.25-.35,21.51,21.51,0,0,1,1.49-5.28,7.86,7.86,0,0,1-2.9-.12.3.3,0,0,1-.22-.19.31.31,0,0,1,0-.29,59.3,59.3,0,0,0,4.22-6.73.29.29,0,0,1,.41-.12.3.3,0,0,1,.13.41,59.54,59.54,0,0,1-4,6.41,7.28,7.28,0,0,0,2.55,0h0l.33-.67c.4-.79.95-1.17,1.5-1a.32.32,0,0,1,.22.23,1.55,1.55,0,0,1-.59,1.51,2.74,2.74,0,0,1-1,.49,22,22,0,0,0-1.62,5.52A.3.3,0,0,1,670.92,426.4Zm2.94-7.39a1.45,1.45,0,0,0-.58.69l-.06.12a1.38,1.38,0,0,0,.25-.17A1.12,1.12,0,0,0,673.86,419Z" transform="translate(-374.18 -113.92)"/><path class="cls-26" d="M606.73,392a2,2,0,0,1-1-.26,1.92,1.92,0,0,1-.86-1.21,1.7,1.7,0,0,1,.21-1.33.31.31,0,0,1,.42-.09.32.32,0,0,1,.09.43,1.07,1.07,0,0,0-.12.85,1.29,1.29,0,0,0,.57.82,1.59,1.59,0,0,0,1.55,0h0a3,3,0,0,1-.48-1.83,1.92,1.92,0,0,1,.38-1.31.83.83,0,0,1,.58-.26c.61,0,1,.56,1,1.11a2.91,2.91,0,0,1-.52,2.24,1.76,1.76,0,0,0,.31,0,1.92,1.92,0,0,0,1.35-.56,2.9,2.9,0,0,0,.39-.53.75.75,0,0,1-.07-.12,2.72,2.72,0,0,1,.07-2.55A.77.77,0,0,1,611,387a.57.57,0,0,1,.46,0,.71.71,0,0,1,.4.4,1.26,1.26,0,0,1,0,.72,8.47,8.47,0,0,1-.49,1.85,1.74,1.74,0,0,0,1.11.43,2.56,2.56,0,0,0,1.62-.58,3.38,3.38,0,0,0,.71-.75,1.64,1.64,0,0,1-.57-.6,3.56,3.56,0,0,1-.26-1.9c0-.83.37-1.34.9-1.4s1,.54,1.13,1.13a4.19,4.19,0,0,1-.27,2.35l.09,0a.31.31,0,0,1,.33.52,1.16,1.16,0,0,1-.76.16,3.93,3.93,0,0,1-.93,1,3.26,3.26,0,0,1-2,.71,2.39,2.39,0,0,1-1.39-.49,2.57,2.57,0,0,1-.38.49,2.43,2.43,0,0,1-1.83.75,1.89,1.89,0,0,1-.76-.18A2.37,2.37,0,0,1,606.73,392Zm1.33-3.63h0a.25.25,0,0,0-.16.08,1.33,1.33,0,0,0-.2.87,2.32,2.32,0,0,0,.34,1.45,2.26,2.26,0,0,0,.44-1.79C608.43,388.67,608.26,388.36,608.06,388.36Zm3.16-.79s0,0-.05.07a2.48,2.48,0,0,0-.24,1.64c.12-.4.21-.83.3-1.29a.86.86,0,0,0,0-.39S611.23,387.57,611.22,387.57Zm3.72-1.81h0c-.23,0-.34.46-.36.82a3.12,3.12,0,0,0,.19,1.58,1.06,1.06,0,0,0,.34.36,3.55,3.55,0,0,0,.28-2.13C615.31,386.08,615.13,385.76,614.94,385.76Z" transform="translate(-374.18 -113.92)"/><path class="cls-26" d="M608.44,402a1.65,1.65,0,0,1-1.29-.55,2.63,2.63,0,0,1-.47-1.79,26.76,26.76,0,0,1,.19-3,.3.3,0,0,1,.33-.27.65.65,0,0,1,.59.58.31.31,0,0,1-.28.33h-.09a23.12,23.12,0,0,0-.12,2.35,2.14,2.14,0,0,0,.32,1.38,1.29,1.29,0,0,0,1.64.1,2.38,2.38,0,0,0,.72-.81,3.42,3.42,0,0,1-1-1.32,7.64,7.64,0,0,1-.38-3.29,1.06,1.06,0,0,1,.38-.92.82.82,0,0,1,.55-.12c1,.07,1.59,1.18,1.68,2.26a7.2,7.2,0,0,1-.27,2.69c0,.16-.1.32-.16.47a1.66,1.66,0,0,0,.91.15,2,2,0,0,0,1.44-1.1,3,3,0,0,1-1.06-2.29,8.62,8.62,0,0,1,.12-1.53,7.09,7.09,0,0,0,.1-1.64.33.33,0,0,1,.17-.31,1,1,0,0,1,1.11.34,4.41,4.41,0,0,1,.75,3.82,5.73,5.73,0,0,1-.37,1.33l.17,0c.8.07,1.41-.71,1.64-1a4.32,4.32,0,0,0,.34-.53,4.67,4.67,0,0,1-.19-.73,8.11,8.11,0,0,1,0-2.46.79.79,0,0,1,.17-.45.67.67,0,0,1,.47-.2.74.74,0,0,1,.56.26,1.24,1.24,0,0,1,.25.79,5.79,5.79,0,0,1-.56,2.81,1.32,1.32,0,0,0,.78.77,1.1,1.1,0,0,0,.88-.15c0-1.55.05-3.1.16-4.64a.28.28,0,0,1,.15-.24.3.3,0,0,1,.29,0c1.12.53,1.26,2,1,3.19a3.87,3.87,0,0,1-.75,1.77,1.88,1.88,0,0,1-.25.24c0,.65,0,1.3,0,1.95a.3.3,0,0,1-.29.32.3.3,0,0,1-.32-.29c0-.54,0-1.07,0-1.61a1.68,1.68,0,0,1-1.06.06,1.74,1.74,0,0,1-1-.72l-.15.23a2.63,2.63,0,0,1-2.19,1.29,1.86,1.86,0,0,1-.41-.08,2.59,2.59,0,0,1-1.9,1.43,2.22,2.22,0,0,1-1.25-.21,2.74,2.74,0,0,1-.9,1A2.08,2.08,0,0,1,608.44,402Zm1-6.7a.19.19,0,0,0-.12,0c-.1.06-.11.32-.11.42a7.42,7.42,0,0,0,.33,3,3,3,0,0,0,.71,1,2.11,2.11,0,0,0,.1-.3,6.6,6.6,0,0,0,.25-2.46c-.07-.79-.45-1.65-1.11-1.7Zm3.48-1.31a9.51,9.51,0,0,1-.12,1.43,8.9,8.9,0,0,0-.12,1.43,2.5,2.5,0,0,0,.72,1.74,5.22,5.22,0,0,0,.31-1.14,4,4,0,0,0-.6-3.3A.9.9,0,0,0,612.9,393.94Zm6.24,0c-.07,1.11-.11,2.23-.12,3.35a3.64,3.64,0,0,0,.4-1.16A2.85,2.85,0,0,0,619.14,393.92Zm-2.65.14h0s0,.1,0,.13a7.24,7.24,0,0,0,0,2.13,5.4,5.4,0,0,0,.22-1.79.75.75,0,0,0-.11-.42A.14.14,0,0,0,616.49,394.06Z" transform="translate(-374.18 -113.92)"/><circle class="cls-13" cx="737.33" cy="105.19" r="65.68"/><circle class="cls-23" cx="1111.51" cy="219.11" r="63.01" transform="translate(343 1167.25) rotate(-80.78)"/><path class="cls-13" d="M1109.46,173.54c0-3.11.91-5.63,2-5.63s2,2.52,2,5.63-.92,5.63-2,5.63S1109.46,176.65,1109.46,173.54Z" transform="translate(-374.18 -113.92)"/><path class="cls-13" d="M1109.46,269.6c0-3.1.91-5.62,2-5.62s2,2.52,2,5.62-.92,5.63-2,5.63S1109.46,272.71,1109.46,269.6Z" transform="translate(-374.18 -113.92)"/><ellipse class="cls-13" cx="689.3" cy="107.65" rx="5.63" ry="2.05"/><ellipse class="cls-13" cx="785.36" cy="107.65" rx="5.63" ry="2.05"/><path class="cls-13" d="M1111.51,220.34a1.22,1.22,0,0,1-.84-.33l-34.89-32.43a1.23,1.23,0,1,1,1.67-1.8l34.16,31.74,21.76-15.63a1.23,1.23,0,0,1,1.72.29,1.22,1.22,0,0,1-.29,1.71l-22.57,16.22A1.28,1.28,0,0,1,1111.51,220.34Z" transform="translate(-374.18 -113.92)"/><polygon class="cls-23" points="1030.58 120.17 781.67 244.57 995.06 39.51 1030.58 120.17"/><path class="cls-25" d="M1211.27,518.18h0a3.08,3.08,0,0,1-3.08-3.08v-6.84a3.08,3.08,0,0,1,3.08-3.08h0a3.07,3.07,0,0,1,3.07,3.08v6.84A3.07,3.07,0,0,1,1211.27,518.18Z" transform="translate(-374.18 -113.92)"/><path class="cls-8" d="M1190.64,513.93a1.23,1.23,0,0,1-1.23-1.23V419.35L1160.69,376l-32.27,10.89a1.23,1.23,0,1,1-.79-2.33l33.17-11.2a1.22,1.22,0,0,1,1.42.49l29.44,44.41a1.19,1.19,0,0,1,.21.68V512.7A1.23,1.23,0,0,1,1190.64,513.93Z" transform="translate(-374.18 -113.92)"/><path class="cls-8" d="M1187.25,519.41a1.24,1.24,0,0,1-1.23-1.18l-4.3-98.3-21.65-39.69-26.21,4.49a1.23,1.23,0,0,1-1.42-1,1.24,1.24,0,0,1,1-1.42l27.07-4.63a1.23,1.23,0,0,1,1.29.62L1184,419a1.2,1.2,0,0,1,.15.53l4.31,98.58a1.23,1.23,0,0,1-1.17,1.29Z" transform="translate(-374.18 -113.92)"/><path class="cls-25" d="M1225.43,523.66h-69.58v-8.55a2.41,2.41,0,0,1,2.41-2.41h64.28a2.88,2.88,0,0,1,2.89,2.88Z" transform="translate(-374.18 -113.92)"/><polygon class="cls-27" points="851.25 409.74 781.67 409.74 781.67 401.05 816.46 401.05 851.25 401.05 851.25 409.74"/><path class="cls-25" d="M1090.09,387.94c11.61-12,34.49-8.65,43.68-6.7a4.91,4.91,0,0,1,3.91,4.94c-.24,8.71-1.55,29.4-8.6,39C1120,437.55,1078.16,400.25,1090.09,387.94Z" transform="translate(-374.18 -113.92)"/><path class="cls-28" d="M1122.19,421.61c.07-.12.14-.26.23-.41a108.29,108.29,0,0,0,5.77-10.78c.51-1.18,1-2.37,1.43-3.57l-1,2.82c1.23-1.52,1.52-5.49,2-7.39.81-3.59,1.47-7.21,2.08-10.83a110.19,110.19,0,0,1-13.86,12c-4.84,3.64-9.87,7-14.64,10.74-.6.46-1.35,1.32-2.11,1.91,5.3,4.82,11.28,8.77,16.4,10.53C1119.72,425,1121,423.3,1122.19,421.61Z" transform="translate(-374.18 -113.92)"/><path class="cls-23" d="M1118.1,414.57a1.27,1.27,0,0,1-.71-.23c-9.36-6.57-14-14-19.9-23.43l-1.21-1.94a1.23,1.23,0,1,1,2.08-1.31l1.22,1.94c5.74,9.19,10.27,16.44,19.23,22.73a1.22,1.22,0,0,1,.3,1.71A1.24,1.24,0,0,1,1118.1,414.57Z" transform="translate(-374.18 -113.92)"/><path class="cls-29" d="M1105.88,219.11a5.63,5.63,0,1,1,5.63,5.63A5.63,5.63,0,0,1,1105.88,219.11Z" transform="translate(-374.18 -113.92)"/><rect class="cls-7" x="580.41" y="284.78" width="260.25" height="11.08" rx="0.92" transform="translate(1046.89 466.72) rotate(180)"/><rect class="cls-29" x="789.35" y="195.37" width="21.96" height="89.08" rx="0.96" transform="translate(1226.47 365.9) rotate(180)"/><rect class="cls-11" x="760.2" y="210.97" width="29.15" height="73.48" rx="0.96" transform="translate(1175.37 381.5) rotate(180)"/><rect class="cls-30" x="767.75" y="219.08" width="14.05" height="57.26" rx="0.59" transform="translate(1175.37 381.5) rotate(180)"/><rect class="cls-31" x="751.17" y="191.27" width="9.03" height="95.44" rx="0.96" transform="translate(1137.2 364.05) rotate(180)"/><rect class="cls-32" x="752.4" y="191.27" width="4.52" height="95.44" rx="0.68" transform="translate(1135.14 364.05) rotate(180)"/><path class="cls-13" d="M749.41,204.18l-5-3a2.35,2.35,0,0,0-3.33,1l-33.61,69.91a2.36,2.36,0,0,0,1.05,3.12l9.2,4.75a2.36,2.36,0,0,0,3.26-1.2l29.46-71.68A2.36,2.36,0,0,0,749.41,204.18Z" transform="translate(-374.18 -113.92)"/><path class="cls-33" d="M710.3,266.14,712,265c2.8-1.92,5.46-4,8.18-6.08,4.16-3.13,8.45-6.07,12.67-9.1l-11.91,29a2.36,2.36,0,0,1-3.26,1.2l-9.2-4.75a2.36,2.36,0,0,1-1.05-3.12Z" transform="translate(-374.18 -113.92)"/><path class="cls-34" d="M729.81,219.26l-13.26-4a2.35,2.35,0,0,0-2.8,1.21l-26.61,53.9a2.34,2.34,0,0,0,1,3.14L701,280.05a2.35,2.35,0,0,0,3.21-1.09l2.25-4.77,24.82-51.65A2.36,2.36,0,0,0,729.81,219.26Z" transform="translate(-374.18 -113.92)"/><path class="cls-35" d="M689,267.25a16.54,16.54,0,0,1,1.25-1.26c4.69-4.28,8.94-9,13.6-13.19,4.5-4.06,7.32-9.92,11-14.69,4.8-6.29,9.7-12.23,13.69-19.11,1-1.67,2.86,2.46,2.86,3.11,0,2.25-2.88,6.09-3.86,8.15l-7.62,15.93q-7.64,15.93-15.3,31.83c-.47,1-1.08,2.05-2.14,2.23a3.41,3.41,0,0,1-2-.52l-10.55-5.27a5.47,5.47,0,0,1-2.3-1.7C686.41,271,687.52,268.93,689,267.25Z" transform="translate(-374.18 -113.92)"/><rect class="cls-11" x="586.56" y="269.67" width="98.52" height="11.49" rx="0.96" transform="translate(897.47 436.92) rotate(180)"/><path class="cls-36" d="M685.08,275.73v3.08a2.36,2.36,0,0,1-2.36,2.36h-93.8a2.36,2.36,0,0,1-2.36-2.36v-3.08Z" transform="translate(-374.18 -113.92)"/><rect class="cls-37" x="612.01" y="254.48" width="66.09" height="15.19" rx="0.96" transform="translate(915.94 410.24) rotate(180)"/><rect class="cls-25" x="629.67" y="245.45" width="55.42" height="9.03" rx="0.96" transform="translate(940.57 386.02) rotate(180)"/><rect class="cls-28" x="629.67" y="247.71" width="55.42" height="4.52" rx="0.68" transform="translate(940.57 386.02) rotate(180)"/><rect class="cls-38" x="580.41" y="281.17" width="260.25" height="11.08" rx="0.92" transform="translate(1046.89 459.5) rotate(180)"/><path class="cls-39" d="M804.45,288.35a16,16,0,0,1-6.35-1.13.61.61,0,1,1,.48-1.13c3.43,1.45,7.4,1.05,10.9.69a62.32,62.32,0,0,0,11.5-1.9c.56-.16,1.11-.35,1.67-.53a19.7,19.7,0,0,1,5.91-1.28h.05c2.72,0,5.82,1.48,6.51,4.31a.62.62,0,0,1-1.2.29c-.53-2.19-3.13-3.36-5.31-3.36h0a18.22,18.22,0,0,0-5.54,1.21c-.56.19-1.13.37-1.7.54A63,63,0,0,1,809.61,288,50.23,50.23,0,0,1,804.45,288.35Z" transform="translate(-374.18 -113.92)"/><path class="cls-39" d="M772.63,289.78a12.37,12.37,0,0,1-6.85-1.65.61.61,0,0,1-.17-.85.61.61,0,0,1,.85-.18c2.43,1.6,5.51,1.55,9,1.33l12.76-.78a.62.62,0,0,1,.08,1.23l-12.76.78C774.64,289.72,773.66,289.78,772.63,289.78Z" transform="translate(-374.18 -113.92)"/><path class="cls-39" d="M754.76,286a24.15,24.15,0,0,1-6.33-.74.62.62,0,1,1,.32-1.19c3.7,1,7.62.71,11.42.43l12.6-1a.62.62,0,0,1,.09,1.23l-12.6,1C758.51,285.87,756.65,286,754.76,286Z" transform="translate(-374.18 -113.92)"/><path class="cls-39" d="M735.88,287.43h-2.15a.62.62,0,0,1,0-1.24h2.15a.62.62,0,1,1,0,1.24Z" transform="translate(-374.18 -113.92)"/><path class="cls-39" d="M682.2,288.54h-.61a27.7,27.7,0,0,1-4.11-.62,28.11,28.11,0,0,0-3.64-.57,27.37,27.37,0,0,0-5.91.48c-.85.13-1.7.26-2.55.36a68,68,0,0,1-10.77.09l-.59,0c-12.95-.59-26.09-.74-39-.45a.59.59,0,0,1-.63-.6.61.61,0,0,1,.6-.63c13-.29,26.16-.14,39.14.45l.59,0a67.69,67.69,0,0,0,10.56-.08c.84-.1,1.68-.23,2.51-.36a28.25,28.25,0,0,1,6.18-.49,29.65,29.65,0,0,1,3.81.6,25.88,25.88,0,0,0,3.91.59,26.3,26.3,0,0,0,6.39-.83l1.85-.38a45.82,45.82,0,0,1,15.32-.37.61.61,0,0,1,.52.7.6.6,0,0,1-.69.52,44.43,44.43,0,0,0-14.91.36c-.61.11-1.22.25-1.83.38A29.51,29.51,0,0,1,682.2,288.54Z" transform="translate(-374.18 -113.92)"/><path class="cls-39" d="M607.7,285.31c-.39,0-.78,0-1.17-.05a.61.61,0,0,1-.57-.66.63.63,0,0,1,.66-.57,13.3,13.3,0,0,0,4.7-.45l.62-.18a6.87,6.87,0,0,1,4.37-.25l.59.11a25.25,25.25,0,0,0,7.7-.27l1.69-.22c2.93-.37,6.69-.56,9.78,1.12a.6.6,0,0,1,.24.83.61.61,0,0,1-.83.25c-2.77-1.5-6.12-1.34-9-1l-1.67.22a26.37,26.37,0,0,1-8.08.27l-.62-.12a8.38,8.38,0,0,0-1.75-.22,8,8,0,0,0-2,.43l-.65.2A14.7,14.7,0,0,1,607.7,285.31Z" transform="translate(-374.18 -113.92)"/><path class="cls-39" d="M594.26,288.35h-8a.62.62,0,0,1-.62-.62.61.61,0,0,1,.62-.61h8a.61.61,0,0,1,.62.61A.62.62,0,0,1,594.26,288.35Z" transform="translate(-374.18 -113.92)"/><path class="cls-23" d="M808.23,206.15H791.58a1.85,1.85,0,0,1,0-3.7h16.65a1.85,1.85,0,1,1,0,3.7Z" transform="translate(-374.18 -113.92)"/><path class="cls-23" d="M808.85,277H791.91a1.85,1.85,0,0,1,0-3.7h16.94a1.85,1.85,0,0,1,0,3.7Z" transform="translate(-374.18 -113.92)"/><rect class="cls-40" x="240.78" y="143.85" width="61.2" height="8.62"/><path class="cls-41" d="M632.21,908.86c12-6.48,23.76-13.29,35.93-19.38,4.2-2.51,8.58-5.05,13.44-5.66,8.53-1.08,18,3.79,25.35-.71,6.71-4.13,7.25-14,4.36-21.3-3.82-9.74-12.63-17.07-22.57-20-9.66-2.85-18.53,1.6-28,2.88-10.79,1.48-16.36-4.83-25.34-9.36-5.62-2.83-12-3.62-18.32-3.89-7.47-.31-15.65-.17-22.55,2.82-6.48,2.81-12.65,7.3-18.13,11.71-15.13,12.18-39.27,37.86-26.87,59,2.47,4.21,6.31,7.48,10.43,10.12a57,57,0,0,0,36.28,8.34C609.74,922,620.59,915.15,632.21,908.86Z" transform="translate(-374.18 -113.92)"/><path class="cls-41" d="M669.29,843a19.65,19.65,0,0,1,1.16-4.94,4.45,4.45,0,0,1,3.89-2.81c1.61.07,2.88,1.31,4,2.47l5.12,5.38c.75.79,1.56,1.9,1,2.87a2.3,2.3,0,0,1-1,.86c-2.76,1.51-9,2.92-12.13,2.6C666.37,848.88,668.44,847.65,669.29,843Z" transform="translate(-374.18 -113.92)"/><path class="cls-42" d="M675.07,836.24a4.09,4.09,0,0,1-.37.51c-2.65,2.87-4.27,7.89-4.73,12.43a12.32,12.32,0,0,0,1.4.2c3.14.32,9.37-1.09,12.13-2.6a2.77,2.77,0,0,0,.82-.66A30.76,30.76,0,0,0,675.07,836.24Z" transform="translate(-374.18 -113.92)"/><path class="cls-41" d="M715.5,848.87a1,1,0,0,1,.89.11,1.1,1.1,0,0,1,.25.69c.28,2.64.58,5.52-.49,8-1.18,2.76-2.73,5.47-4,8.19-2.06-.41-2.63-3-3.31-5-1-2.9-6.42-5.37-5.69-8.52.26-1.12,2.27-2.1,3.37-2.37,2.87-.72,5.94-.29,8.79-1.1Z" transform="translate(-374.18 -113.92)"/><path class="cls-42" d="M715,851.19c-1.26.48-2.51,1-3.8,1.4-.69.23-6.18,3.76-5.89,4.07,1.22,1.3,3,2.49,3.56,4.26.68,2,1.25,4.56,3.31,5,1.29-2.72,2.84-5.43,4-8.19,1-2.24.82-4.76.58-7.15C716.13,850.75,715.54,851,715,851.19Z" transform="translate(-374.18 -113.92)"/><path class="cls-43" d="M679.51,864.46a4,4,0,0,1-2.64-1,5.38,5.38,0,0,1-1.59-3,1.23,1.23,0,0,1,2.41-.51,3,3,0,0,0,.81,1.68,1.6,1.6,0,0,0,1.83.13,1.23,1.23,0,0,1,1.35,2.06A3.93,3.93,0,0,1,679.51,864.46Z" transform="translate(-374.18 -113.92)"/><path class="cls-43" d="M700.76,870.2a5.08,5.08,0,0,1-4.14-2.08,1.23,1.23,0,1,1,2-1.41,2.61,2.61,0,0,0,3.06.84,1.23,1.23,0,0,1,1,2.26A4.71,4.71,0,0,1,700.76,870.2Z" transform="translate(-374.18 -113.92)"/><path class="cls-43" d="M688.64,875.21l-.38,0h0c-1.62-.3-2.81-2.28-3.11-3.52a1.84,1.84,0,0,1,.55-2.06,1.81,1.81,0,0,1,2.09,0c.23.14.45.3.67.46a2.35,2.35,0,0,0,.32.23,4.58,4.58,0,0,0,1.74.45,6.82,6.82,0,0,1,2.49.67,1.19,1.19,0,0,1,.64,1,1.22,1.22,0,0,1-.47,1.07,8.51,8.51,0,0,1-2.63,1.22l-.76.27A3.18,3.18,0,0,1,688.64,875.21Z" transform="translate(-374.18 -113.92)"/><path class="cls-43" d="M689.63,878.58a12.47,12.47,0,0,1-4.27-.75,4.33,4.33,0,0,1-2.75-2.23.62.62,0,0,1,1.14-.47,3.19,3.19,0,0,0,2,1.54,11.5,11.5,0,0,0,3.94.68.62.62,0,0,1,0,1.23Z" transform="translate(-374.18 -113.92)"/><path class="cls-43" d="M685.93,877.53a.61.61,0,0,1-.46-1,7.69,7.69,0,0,0,1.06-1.48.61.61,0,0,1,.84-.24.6.6,0,0,1,.24.83,8.7,8.7,0,0,1-1.23,1.72A.62.62,0,0,1,685.93,877.53Z" transform="translate(-374.18 -113.92)"/><path class="cls-43" d="M677.77,884.1a1.24,1.24,0,0,1-.33,0A21.59,21.59,0,0,1,661.7,864a1.24,1.24,0,0,1,1.19-1.28,1.2,1.2,0,0,1,1.27,1.19,19.13,19.13,0,0,0,14,17.78,1.23,1.23,0,0,1-.34,2.41Z" transform="translate(-374.18 -113.92)"/><path class="cls-41" d="M647.85,889.86a39.59,39.59,0,0,0,6.41,8.69,9.93,9.93,0,0,0,3.09,2.62,9.81,9.81,0,0,0,3,.63,29.85,29.85,0,0,0,14.77-1.68,110,110,0,0,1,14.3-4c6-1,12.54-.93,17.57-4.38,2.28-1.56,4.2-4.42,3.15-7-1-2.38-4-3.19-6.51-3.15-7,.11-13.54,4.14-20.5,3.75-3.5-.2-6.83-1.52-10.09-2.82a19.56,19.56,0,0,1-2.83-1.3c-.7-.42-1.34-.92-2.07-1.27a10.07,10.07,0,0,0-3.25-.8c-1.91-.22-3.84-.31-5.76-.4l-7.61-.33c-1.76-.08-5.48-1-7,0-1.84,1.25-.13,3.34.53,4.75C646.13,885.39,646.79,887.7,647.85,889.86Z" transform="translate(-374.18 -113.92)"/><path class="cls-43" d="M652.3,897.9a1.23,1.23,0,0,1-1-.47,53.71,53.71,0,0,1-6-10.74c-.45-1-.9-2-1.37-2.94a1.23,1.23,0,0,1,2.22-1.06c.48,1,.93,2,1.39,3a52,52,0,0,0,5.68,10.26,1.24,1.24,0,0,1-.22,1.73A1.26,1.26,0,0,1,652.3,897.9Z" transform="translate(-374.18 -113.92)"/><path class="cls-41" d="M555.75,900.9c.82,3.7,4.5,7,6.82,9.8a51.77,51.77,0,0,0,8.76,9c9.83,7.36,25.89,5.75,36.92,2.55,9.06-2.62,17.45-7.31,26.6-9.58,2.15-.54,4.74-1.31,5.26-3.46.41-1.7-.84-3.45-2.42-4.2a11.61,11.61,0,0,0-5.15-.72l-15.24.19a1.52,1.52,0,0,1-.94-.18,1.41,1.41,0,0,1-.47-1,19.65,19.65,0,0,1,.15-4,20.61,20.61,0,0,0-1.25-7.72,33.58,33.58,0,0,0-49.35-17.86c-3.1,1.85-7.29,4.66-9,8-2,3.95-1.5,9.36-1.2,13.61.19,2.73.42,5.58,1.89,7.89Z" transform="translate(-374.18 -113.92)"/><path class="cls-41" d="M552.16,910.75c.83,3,1,6.11,1.94,9a36.87,36.87,0,0,0,4.91,9.09c2.26,3.38,4.57,6.82,7.8,9.3,3.68,2.82,8.25,4.17,12.71,5.45a111.32,111.32,0,0,0,16.07,3.8c14.22,1.9,28.56-1.72,42.32-5.8,3.71-1.09,7.51-2.28,10.51-4.72,5.19-4.23,7-11.28,8.4-17.82.18-.8.26-1.82-.44-2.23a1.88,1.88,0,0,0-1.24-.11c-3.38.55-6.5,2.11-9.73,3.24A39.8,39.8,0,0,1,635,922.14a24,24,0,0,1-7.93-.59c-2.56-.68-4.92-1.92-7.41-2.82-12.25-4.42-26.15,0-38.72-3.39-8-2.16-15-7.37-23.16-8.45a11.26,11.26,0,0,1-3.16-.66c-2-.89-3-3-4.61-4.53-.59-.56-1.61-1.05-1.86-.05-.16.63,1,2.14,1.32,2.66A33.52,33.52,0,0,1,552.16,910.75Z" transform="translate(-374.18 -113.92)"/><path class="cls-43" d="M616.62,920a1.06,1.06,0,0,1-.43-.08c-6.56-2.44-13.06-2.33-20-2.22-3.42.05-7,.11-10.51-.17-5.74-.45-11.05-2.79-16.18-5a62.53,62.53,0,0,0-12.07-4.36,1.24,1.24,0,0,1-1-1.46,1.22,1.22,0,0,1,1.46-.95,64.67,64.67,0,0,1,12.56,4.52c5.17,2.28,10.05,4.43,15.37,4.85,3.44.27,6.92.21,10.28.16,6.81-.12,13.85-.23,20.84,2.38a1.23,1.23,0,0,1-.42,2.38Z" transform="translate(-374.18 -113.92)"/><g class="cls-44"><g class="cls-45"><path class="cls-23" d="M556.38,930.52a7,7,0,0,1-1.37-.14,1.23,1.23,0,1,1,.5-2.41,8.35,8.35,0,0,0,4.8-1c5.2-2.29,8.89-5.19,11-8.64a1.23,1.23,0,0,1,2.11,1.28c-2.39,3.94-6.35,7.08-12.1,9.61A12.53,12.53,0,0,1,556.38,930.52Z" transform="translate(-374.18 -113.92)"/><path class="cls-23" d="M564.25,943a1.23,1.23,0,0,1-.2-2.44,28.84,28.84,0,0,0,22.06-18.15,1.23,1.23,0,1,1,2.31.85,31.35,31.35,0,0,1-24,19.73Z" transform="translate(-374.18 -113.92)"/><path class="cls-23" d="M582.44,949.82a1.23,1.23,0,0,1-.71-2.24c4.41-3.12,9-6.35,12.46-10.51,3.81-4.55,5.7-9.66,5.34-14.37a1.23,1.23,0,0,1,2.45-.19c.42,5.36-1.68,11.09-5.9,16.14-3.69,4.4-8.39,7.73-12.93,10.94A1.16,1.16,0,0,1,582.44,949.82Z" transform="translate(-374.18 -113.92)"/><path class="cls-23" d="M602.35,953.5a1.26,1.26,0,0,1-.59-.15,1.24,1.24,0,0,1-.49-1.67,32.52,32.52,0,0,1,6.15-8c.59-.56,1.21-1.1,1.83-1.65a26.37,26.37,0,0,0,3.63-3.61c2.46-3.17,3.59-7.7,3.34-13.46a1.23,1.23,0,0,1,1.18-1.28,1.24,1.24,0,0,1,1.28,1.18c.27,6.35-1,11.42-3.86,15.08a29.4,29.4,0,0,1-4,3.94c-.59.53-1.18,1-1.76,1.59a29.85,29.85,0,0,0-5.68,7.39A1.22,1.22,0,0,1,602.35,953.5Z" transform="translate(-374.18 -113.92)"/><path class="cls-23" d="M624.69,948.56a1.21,1.21,0,0,1-.66-.19,1.22,1.22,0,0,1-.38-1.7,55.54,55.54,0,0,1,4.85-6.24c.77-.89,1.53-1.78,2.27-2.7,1.93-2.39,4.24-5.61,4.94-9.35a1.24,1.24,0,0,1,1.44-1,1.23,1.23,0,0,1,1,1.44c-.81,4.27-3.33,7.82-5.45,10.44-.75.93-1.53,1.84-2.31,2.75a54.14,54.14,0,0,0-4.64,6A1.24,1.24,0,0,1,624.69,948.56Z" transform="translate(-374.18 -113.92)"/></g></g><g class="cls-46"><g class="cls-47"><path class="cls-23" d="M667.17,866.77a1.22,1.22,0,0,1-.9-.39c-2.47-2.62-4.3-6.12-5.75-11-.14-.45-.29-.93-.44-1.43-1-3.22-2.24-7.24-1.88-10.45a1.24,1.24,0,0,1,1.36-1.08,1.22,1.22,0,0,1,1.09,1.36c-.31,2.7.85,6.44,1.78,9.44l.45,1.46c1.34,4.5,3,7.68,5.18,10a1.22,1.22,0,0,1,0,1.74A1.25,1.25,0,0,1,667.17,866.77Z" transform="translate(-374.18 -113.92)"/><path class="cls-23" d="M705.32,881.48c-.8,0-1.62,0-2.46-.08a50.73,50.73,0,0,1-8.49-1.27,1.23,1.23,0,0,1,.57-2.4,47.91,47.91,0,0,0,8.08,1.21c6.06.39,10.78-.7,14-3.24a1.23,1.23,0,1,1,1.51,1.95C715.3,880.19,710.85,881.48,705.32,881.48Z" transform="translate(-374.18 -113.92)"/><path class="cls-23" d="M703.9,874.85l-1.12,0a1.22,1.22,0,0,1-1.19-1.26,1.25,1.25,0,0,1,1.26-1.2,36.41,36.41,0,0,0,12.43-1.8,3.57,3.57,0,0,0,2-1.24,1.23,1.23,0,0,1,2.19,1.14,5.61,5.61,0,0,1-3.47,2.44A38.84,38.84,0,0,1,703.9,874.85Z" transform="translate(-374.18 -113.92)"/><path class="cls-23" d="M667.11,851.78a1.24,1.24,0,0,1-1.12-.7c-2.2-4.66-1.31-9.67-.6-13.69a28.34,28.34,0,0,0,.6-4.66,1.24,1.24,0,0,1,2.47,0,31.9,31.9,0,0,1-.64,5.08c-.69,3.87-1.47,8.26.4,12.2a1.24,1.24,0,0,1-.59,1.65A1.22,1.22,0,0,1,667.11,851.78Z" transform="translate(-374.18 -113.92)"/><path class="cls-23" d="M689.72,853.28h-.05a1.23,1.23,0,0,1-1.18-1.28,20.93,20.93,0,0,0-4.15-13.35,1.23,1.23,0,0,1,2-1.47A23.5,23.5,0,0,1,691,852.09,1.23,1.23,0,0,1,689.72,853.28Z" transform="translate(-374.18 -113.92)"/><path class="cls-23" d="M695.67,857.61a1.25,1.25,0,0,1-.5-.11,1.23,1.23,0,0,1-.62-1.63c2.47-5.52,4.89-10.32,9.52-13a1.23,1.23,0,1,1,1.25,2.12c-4,2.36-6.23,6.8-8.52,11.94A1.26,1.26,0,0,1,695.67,857.61Z" transform="translate(-374.18 -113.92)"/><path class="cls-23" d="M693,848.55a1.31,1.31,0,0,1-.38-.06,1.23,1.23,0,0,1-.79-1.55A86.54,86.54,0,0,1,695.2,838a1.22,1.22,0,0,1,1.62-.63,1.25,1.25,0,0,1,.63,1.63,86.56,86.56,0,0,0-3.33,8.67A1.22,1.22,0,0,1,693,848.55Z" transform="translate(-374.18 -113.92)"/><path class="cls-23" d="M660,878.44a1.25,1.25,0,0,1-.75-.25c-5.08-3.9-7-10.46-8.34-17-1.5-7.33-2.69-15.16-1.23-22.7a1.23,1.23,0,1,1,2.42.47c-1.38,7.12-.23,14.65,1.22,21.73,1.15,5.63,2.77,11.94,7.43,15.51a1.23,1.23,0,0,1-.75,2.21Z" transform="translate(-374.18 -113.92)"/><path class="cls-23" d="M654.05,886.26a1.25,1.25,0,0,1-1-.49,64.89,64.89,0,0,1-11.45-52,1.23,1.23,0,0,1,2.41.52,62.34,62.34,0,0,0,11,50,1.23,1.23,0,0,1-.24,1.72A1.2,1.2,0,0,1,654.05,886.26Z" transform="translate(-374.18 -113.92)"/><path class="cls-23" d="M641.21,892.92a1.26,1.26,0,0,1-.85-.33c-5.73-5.4-9.3-13.76-10.62-24.83a90.68,90.68,0,0,1,3.85-38.31,1.23,1.23,0,0,1,2.35.76,87.88,87.88,0,0,0-3.75,37.26c1.24,10.48,4.56,18.33,9.86,23.33a1.23,1.23,0,0,1,.06,1.74A1.27,1.27,0,0,1,641.21,892.92Z" transform="translate(-374.18 -113.92)"/><path class="cls-23" d="M629.23,895.09a1.23,1.23,0,0,1-1.05-.59,76.05,76.05,0,0,1-4.5-69.44,1.23,1.23,0,1,1,2.25,1,73.57,73.57,0,0,0,4.35,67.16,1.22,1.22,0,0,1-.41,1.69A1.24,1.24,0,0,1,629.23,895.09Z" transform="translate(-374.18 -113.92)"/><path class="cls-23" d="M612.14,876.76a1.85,1.85,0,0,1-1.61-1,64.87,64.87,0,0,1-4.76-51.19,1.85,1.85,0,1,1,3.5,1.17A61.14,61.14,0,0,0,613.76,874a1.85,1.85,0,0,1-.72,2.51A1.8,1.8,0,0,1,612.14,876.76Z" transform="translate(-374.18 -113.92)"/><path class="cls-23" d="M587.48,877.24a1.84,1.84,0,0,1-1.61-.94,30.94,30.94,0,0,1-3.54-12.11,59.05,59.05,0,0,1,7.27-35.52,1.85,1.85,0,1,1,3.21,1.82A55.35,55.35,0,0,0,586,863.78a27.57,27.57,0,0,0,3.08,10.7,1.84,1.84,0,0,1-.69,2.51A1.79,1.79,0,0,1,587.48,877.24Z" transform="translate(-374.18 -113.92)"/><path class="cls-23" d="M601.17,898.25a2.46,2.46,0,0,1-.92-.17c-1.15-.46-2.37-.94-3.63-1.42-8.8-3.41-19.74-7.65-25.66-15-9.09-11.21-8.93-27.19-8.44-33.54a2.46,2.46,0,0,1,4.91.38c-.44,5.76-.62,20.22,7.36,30.06,5.09,6.29,15.36,10.27,23.61,13.46l3.68,1.44a2.46,2.46,0,0,1-.91,4.75Z" transform="translate(-374.18 -113.92)"/><path class="cls-23" d="M592,907a1.09,1.09,0,0,1-.4-.07c-9.89-3.4-20.11-6.91-29-13-9.93-6.85-16.45-16.35-17.9-26.06a1.23,1.23,0,0,1,2.44-.37c1.34,9,7.49,17.94,16.86,24.4,8.57,5.92,18.63,9.38,28.36,12.72a1.24,1.24,0,0,1,.76,1.57A1.22,1.22,0,0,1,592,907Z" transform="translate(-374.18 -113.92)"/><path class="cls-23" d="M557.1,902.16H557c-3.4-.36-6.4-2-9-3.44a26.28,26.28,0,0,1-6-4.1,9.75,9.75,0,0,1-3.15-7.1,1.2,1.2,0,0,1,1.27-1.18,1.23,1.23,0,0,1,1.19,1.27,7.34,7.34,0,0,0,2.42,5.26,24.17,24.17,0,0,0,5.48,3.69c2.44,1.33,5.21,2.85,8.11,3.15a1.23,1.23,0,0,1-.12,2.46Z" transform="translate(-374.18 -113.92)"/></g></g><g class="cls-48"><g class="cls-49"><path class="cls-23" d="M690.92,899.67a8.58,8.58,0,0,1-3.43-.94,25.53,25.53,0,0,1-4.81-2.6,24.8,24.8,0,0,1-3.52-3.33l-3.9-4.18a20.42,20.42,0,0,1-2.29-2.78,11.07,11.07,0,0,1-1.8-5.86,1.21,1.21,0,0,1,1.2-1.25,1.26,1.26,0,0,1,1.26,1.2,8.82,8.82,0,0,0,1.4,4.57,19.54,19.54,0,0,0,2,2.44l3.89,4.18a17.44,17.44,0,0,0,7.54,5.37c1.17.53,2.37,1,3.15.56a1.23,1.23,0,0,1,1.14,2.18A4,4,0,0,1,690.92,899.67Z" transform="translate(-374.18 -113.92)"/><path class="cls-23" d="M708.56,897.68l-.19,0a25.83,25.83,0,0,1-19.72-15.78,1.23,1.23,0,1,1,2.29-.9,23.35,23.35,0,0,0,17.81,14.25,1.22,1.22,0,0,1,1,1.4A1.23,1.23,0,0,1,708.56,897.68Z" transform="translate(-374.18 -113.92)"/><path class="cls-23" d="M675.06,897.44a31.48,31.48,0,0,1-7.33-.75,17.11,17.11,0,0,1-8.73-4.84c-.41-.46-.8-.94-1.18-1.42a16.65,16.65,0,0,0-1.58-1.8,1.23,1.23,0,1,1,1.67-1.81,18.57,18.57,0,0,1,1.84,2.07c.34.44.69.88,1.07,1.29a14.73,14.73,0,0,0,7.49,4.11,34.09,34.09,0,0,0,9,.65,1.19,1.19,0,0,1,1.28,1.18,1.24,1.24,0,0,1-1.19,1.28C676.66,897.42,675.87,897.44,675.06,897.44Z" transform="translate(-374.18 -113.92)"/></g></g><g class="cls-48"><g class="cls-50"><path class="cls-23" d="M610.44,915.8h0a1.24,1.24,0,0,1-1.21-1.26,11.52,11.52,0,0,0-.2-1.95,11.35,11.35,0,0,1-.19-3,9,9,0,0,1,1.06-3.15,17.25,17.25,0,0,1,10-8.39,1.23,1.23,0,0,1,1.55.79,1.24,1.24,0,0,1-.8,1.55,14.78,14.78,0,0,0-8.52,7.19,6.82,6.82,0,0,0-.79,2.28,9.65,9.65,0,0,0,.17,2.35,14,14,0,0,1,.23,2.37A1.23,1.23,0,0,1,610.44,915.8Z" transform="translate(-374.18 -113.92)"/><path class="cls-23" d="M627.48,912.81a1.2,1.2,0,0,1-.68-.2c-1.45-1-2.07-2.82-1.76-5.25a16.21,16.21,0,0,1,2.73-7.12,1.23,1.23,0,1,1,2,1.4,13.72,13.72,0,0,0-2.32,6c-.06.53-.21,2.29.68,2.89a1.23,1.23,0,0,1,.34,1.71A1.21,1.21,0,0,1,627.48,912.81Z" transform="translate(-374.18 -113.92)"/></g></g><path class="cls-43" d="M637.44,906.26a1,1,0,0,1-.29,0,45.36,45.36,0,0,0-10.52-.89,45.24,45.24,0,0,1-11.5-1.06,1.24,1.24,0,0,1-.91-1.35,31.88,31.88,0,0,0-3.08-18,15.69,15.69,0,0,0-2.1-3.31,21.83,21.83,0,0,0-4.37-3.52l-5.34-3.61a1.23,1.23,0,0,1,1.38-2l5.34,3.61a23.53,23.53,0,0,1,4.85,4,17.74,17.74,0,0,1,2.45,3.83,34.51,34.51,0,0,1,3.44,18.35,47.41,47.41,0,0,0,9.86.74,47.86,47.86,0,0,1,11.09,1,1.23,1.23,0,0,1-.3,2.43Z" transform="translate(-374.18 -113.92)"/><path class="cls-43" d="M709.58,886.83a1.23,1.23,0,0,1-1.23-1.14,2.37,2.37,0,0,0-1-2c-2.87-2-10.78.33-15.5,1.71a38.9,38.9,0,0,1-4,1,1.23,1.23,0,0,1-1.42-1,1.25,1.25,0,0,1,1-1.42c.75-.12,2.11-.52,3.68-1,5.8-1.7,13.76-4,17.59-1.38a4.82,4.82,0,0,1,2.06,3.79,1.23,1.23,0,0,1-1.14,1.32Z" transform="translate(-374.18 -113.92)"/><ellipse class="cls-6" cx="968.38" cy="734.61" rx="63.05" ry="27.68"/><path class="cls-51" d="M1364.86,599.36c1-13.28.14-26.63.82-39.93.93-18.15,7.35-34.77,9.72-52.39,2.42-18,13-33.22,18-50.59,3.66-12.78,4.07-26.23,4.46-39.52.07-2.56.13-5.22-1-7.53-3.07-6.53-7.6-2.21-10.3,1.61-22.22,31.47-48.15,67.17-58.61,104.73-4.13,14.82-5,31.14.06,45.84s17.13,27,18,43c.34,5.93-4.37,33.64,7.2,29.46C1362.49,630.77,1364.25,607.24,1364.86,599.36Z" transform="translate(-374.18 -113.92)"/><path class="cls-34" d="M1365.49,564.35c-9.25-17.39-9-39-8.18-58.11q.27-7,.76-14.09a152.48,152.48,0,0,0-4.87,15.05c-4.33,16.4-7.21,34.39-6.38,51.28.43,8.82,4.1,16.76,3.34,25.6-.67,7.77-3.21,15.25-4.08,23-.42,8.8-3.18,30.81,7.23,27.05,9.18-3.32,10.94-26.85,11.55-34.73C1365.77,587.72,1365.19,576,1365.49,564.35Z" transform="translate(-374.18 -113.92)"/><path class="cls-51" d="M1392.52,678.05c7.71-5.55,10.27-17.65,11.85-26.42,2.32-12.84,4.35-25.65,8.2-38.16,1.94-6.31,4.28-12.52,5.56-19a84,84,0,0,0,1.11-20.9,16.87,16.87,0,0,0-1.54-7.21c-7.53-13.93-27.65,28.21-30.88,33.68-10.27,17.35-20.81,34.74-34.49,49.68-6.58,7.19-7.75,10-7.86,19.68q-.17,14.1.54,28.2c3.18.61,5.24-3.09,7-5.83,4.36-6.93,11.45-9.24,19.18-9.59C1378.43,681.86,1386.27,682.55,1392.52,678.05Z" transform="translate(-374.18 -113.92)"/><path class="cls-34" d="M1368.94,680.51c8.22-6.94,21.37-11.91,24.38-23.13,2-7.65,1-15.89,1.48-23.72a200.59,200.59,0,0,1,3.82-29.31c2.69-12.67,6.84-24.74,9-37.26-8.57,8.41-18.64,29.22-20.84,32.95-10.27,17.35-20.81,34.74-34.49,49.68-6.58,7.19-7.75,10-7.86,19.68q-.17,14.1.54,28.2c3.18.61,5.24-3.09,7-5.83,3.48-5.54,8.71-8.12,14.62-9.11C1367.35,681.92,1368.12,681.21,1368.94,680.51Z" transform="translate(-374.18 -113.92)"/><path class="cls-34" d="M1301.25,661.77c-15.81.26-21.63,20.79-27.11,32.47-3.06,6.53-6.17,13.29-6.36,20.49-.22,8.42,3.57,17,1.11,25-1.12,3.62-4,13.38,3.72,11.87,4.17-.81,7.11-11.34,8.39-14.68,4.55-11.92,6.53-25,15-35.08,2.7-3.21,6.2-6.24,10.39-6.4s11.39,4.12,15.42,1.69c5-3,2.21-14,1.31-18.59-1.48-7.52-5.6-13.56-13.47-15.66A30.68,30.68,0,0,0,1301.25,661.77Z" transform="translate(-374.18 -113.92)"/><path class="cls-51" d="M1308.78,695.54a23.17,23.17,0,0,0,8-13c1-4,1.9-11.2.09-15.82a17.55,17.55,0,0,0-7.17-3.76,30.68,30.68,0,0,0-8.4-1.16c-15.81.26-21.63,20.79-27.11,32.47-3.06,6.53-6.17,13.29-6.36,20.49-.22,8.42,3.57,17,1.11,25-.73,2.38-2.22,7.38-1,10.13.72-2.56,1.23-5.17,1.9-7.74a206.55,206.55,0,0,1,6.49-21.7c1.92-5,4.18-10.06,7.68-14A24.29,24.29,0,0,1,1308.78,695.54Z" transform="translate(-374.18 -113.92)"/><path class="cls-51" d="M1339.51,617c-1.3-10.15-5.12-19.78-8.91-29.28q-11.1-27.84-22.19-55.67c-3.85-9.65-7.87-19.57-15.15-27-5.62-5.71-13.09-9.83-17-16.84-5-9.17-2.94-21.7-10.08-29.34-8.06,17.63-1,38,1.51,57.21,2.25,17.3,1,36,10.23,50.8,4.44,7.06,11.06,12.72,14.54,20.31,2.6,5.67,3.26,12,5.45,17.89,4.17,11.13,13.25,19.07,20.4,28.21a62.19,62.19,0,0,1,9.18,16.86c2,5.28,1.86,13,5.85,17.09,2.47-7.59,3.88-16,5.38-23.79A85.3,85.3,0,0,0,1339.51,617Z" transform="translate(-374.18 -113.92)"/><path class="cls-34" d="M1326.76,617c-3.67-13-10.44-24.21-17-35.65a10.73,10.73,0,0,1-1.94-1.76c-8.83-10.25-14.55-21.82-18.89-34.57-2-5.93-4.18-11.91-5.92-17.93-.29-1-.53-2-.74-3a81,81,0,0,1-3.66-10.54c-2.26-8.55-3.14-17.38-5.16-26-2.18-9.32-7.81-16.85-7.94-26.79,0,0,0-.09,0-.14-6.87,17.22-.17,36.88,2.25,55.48,2.25,17.3,1,36,10.23,50.8,4.44,7.06,11.06,12.72,14.54,20.31,2.6,5.67,3.26,12,5.45,17.89,4.17,11.13,13.25,19.07,20.4,28.21a62.19,62.19,0,0,1,9.18,16.86c2,5.28,1.86,13,5.85,17.09.08-.25.15-.5.23-.75C1331.9,649.93,1331.29,633.1,1326.76,617Z" transform="translate(-374.18 -113.92)"/><path class="cls-52" d="M1318.52,714.48c0-4,9.6-7.15,21.44-7.15s21.45,3.2,21.45,7.15-9.6,7.15-21.45,7.15S1318.52,718.42,1318.52,714.48Z" transform="translate(-374.18 -113.92)"/><path class="cls-53" d="M1341,761.73l-.25,0a1.23,1.23,0,0,1-1-1.45c9.26-45.53,13.23-93.91,11.8-143.79-.29-10.18-1.69-20.49-3-30.47-1.77-13.09-3.6-26.63-3-40.15,1.14-25.22,9.45-50.63,16.22-67.52a1.23,1.23,0,0,1,2.28.92c-6.69,16.71-14.91,41.84-16,66.71-.6,13.3,1.21,26.73,3,39.71,1.35,10,2.76,20.42,3,30.73,1.44,50.07-2.54,98.64-11.85,144.35A1.22,1.22,0,0,1,1341,761.73Z" transform="translate(-374.18 -113.92)"/><path class="cls-53" d="M1335.42,744.31h-.06a1.23,1.23,0,0,1-1.17-1.29c1.14-21.75,5.39-37.86,13.36-50.7,5.88-9.46,13.07-18.55,20-27.33,2.75-3.46,5.58-7.05,8.26-10.57,8.4-11,18.84-24.71,20.56-40.19a1.23,1.23,0,0,1,2.45.27c-1.79,16.16-12.47,30.16-21,41.42-2.69,3.53-5.54,7.13-8.29,10.6-6.9,8.73-14,17.75-19.84,27.1-7.75,12.47-11.88,28.21-13,49.53A1.23,1.23,0,0,1,1335.42,744.31Z" transform="translate(-374.18 -113.92)"/><path class="cls-53" d="M1340.67,733.22a1.22,1.22,0,0,1-1-.57c-4.61-7.31-6.88-15.27-9.07-23-2.76-9.64-5.35-18.75-12.17-26.94-3.67-4.41-7-6.61-10.43-6.94a13.91,13.91,0,0,0-5.6.82c-9.6,3.16-14.14,12.28-18.31,22.15a1.23,1.23,0,0,1-2.27-1c4.4-10.42,9.23-20.05,19.81-23.53a16.27,16.27,0,0,1,6.6-.93c5.43.51,9.5,4.71,12.09,7.82,7.15,8.58,9.94,18.37,12.64,27.83,2.15,7.53,4.37,15.31,8.79,22.33a1.22,1.22,0,0,1-.38,1.69A1.21,1.21,0,0,1,1340.67,733.22Z" transform="translate(-374.18 -113.92)"/><path class="cls-53" d="M1341.08,754.73a1.24,1.24,0,0,1-1.22-1.05c-3.25-21.84-5.46-44.11-6.58-66.18q-.19-4-.37-8c-.79-17.21-1.53-33.48-6.32-50.68-3.93-14.14-8-28.77-15.57-41.59-2.48-4.22-5.39-8.29-8.19-12.24a148.64,148.64,0,0,1-9.34-14.2c-3.82-6.87-6.52-14.11-9.41-22.86a467.15,467.15,0,0,1-13.44-50,1.23,1.23,0,0,1,2.41-.51,464,464,0,0,0,13.37,49.77c2.84,8.62,5.5,15.74,9.22,22.44a152.08,152.08,0,0,0,9.19,14c2.84,4,5.78,8.11,8.32,12.42,7.72,13.1,11.84,27.88,15.82,42.18,4.86,17.47,5.61,33.87,6.4,51.23.12,2.62.24,5.26.37,7.94,1.12,22,3.32,44.18,6.56,65.94a1.24,1.24,0,0,1-1,1.4Z" transform="translate(-374.18 -113.92)"/><path class="cls-29" d="M1318.52,714.48s-35.75,99.44-35.75,127.39,119.59,26,119.59,0-40.95-127.39-40.95-127.39-4.44,5.85-21.45,5.85C1324,720.33,1318.52,714.48,1318.52,714.48Z" transform="translate(-374.18 -113.92)"/><path class="cls-33" d="M1383.33,800.15c-18.22,20.59-42.23,34.54-70,35.91a83.13,83.13,0,0,1-29.57-4.18,68.57,68.57,0,0,0-.94,10c0,28,119.59,26,119.59,0,0-9.45-5.41-28.88-12.3-49.77C1387.86,794.83,1385.64,797.53,1383.33,800.15Z" transform="translate(-374.18 -113.92)"/><path class="cls-23" d="M1303.13,850.25l-.24,0a1.23,1.23,0,0,1-1-1.46l23.88-117a1.23,1.23,0,0,1,2.41.49l-23.88,117A1.23,1.23,0,0,1,1303.13,850.25Z" transform="translate(-374.18 -113.92)"/><ellipse class="cls-12" cx="555.68" cy="786.51" rx="107.14" ry="26.22"/><path class="cls-12" d="M807.46,902.3c-.76-2.53-6.59-3-13-1.1s-11,5.53-10.29,8.06,6.58,3,13,1.09S808.21,904.82,807.46,902.3Z" transform="translate(-374.18 -113.92)"/><path class="cls-12" d="M851.78,881.12c2.51-3-2.15-9.29-6.21-6.9s.8,10.2,5.23,7.71A3.32,3.32,0,0,0,851.78,881.12Z" transform="translate(-374.18 -113.92)"/><path class="cls-12" d="M1010.07,873.45a24.62,24.62,0,0,0-3.05,3.16,3.52,3.52,0,0,0-.75,1.31,2.33,2.33,0,0,0,1.39,2.47,4.41,4.41,0,0,0,3,.08,5.85,5.85,0,0,0,3.22-2.07,3.62,3.62,0,0,0,.37-3.69,2.62,2.62,0,0,0-3.31-1.19Z" transform="translate(-374.18 -113.92)"/><path class="cls-12" d="M1063.15,905l-3.52-.55c-2.74-.43-5.72-.81-8.13.56a3.23,3.23,0,0,0-1.86,3.12c.31,1.66,2.3,2.29,4,2.55q4,.64,8.06.9a4.67,4.67,0,0,0,3.18-.58A3.36,3.36,0,0,0,1063.15,905Z" transform="translate(-374.18 -113.92)"/><path class="cls-12" d="M936,853.13c1.45,3.37,7.83,9.83,10.66,11.48,2.54,1.48,5.33,2.47,7.92,3.86s4.74,3,7.19,4.38a32.24,32.24,0,0,0,9.83,3.53c6.59,1.2,2.15-8,.37-10.5-7-9.9-16.08-18.52-26.88-24.08-2.31-1.19-10.8-4-13.42-3.39C931.9,843.34,933.67,847.69,936,853.13Z" transform="translate(-374.18 -113.92)"/><path class="cls-12" d="M902.34,860.68a5.8,5.8,0,0,0,3.33-.28,6.66,6.66,0,0,0,2-1.67q7.7-8.54,14.74-17.64a36.26,36.26,0,0,0,5.51-8.86c1.26-3.26,3.43-10.88,2-14.06-.18-.4-2.27,3-2.71,2.94a1.56,1.56,0,0,0-1,.33q-15.11,9.45-29.31,20.25c-3.4,2.58-10.29,7.06-7.5,11.58C891.85,857.38,897.76,860,902.34,860.68Z" transform="translate(-374.18 -113.92)"/><polygon class="cls-54" points="420.93 208.63 665.29 359.49 636.24 208.63 420.93 208.63"/><path class="cls-43" d="M951.24,860c2.62,1.81,5.75,3.1,8.35,4.63,2.89,1.7,5.77,3.43,8.78,4.91a17.73,17.73,0,0,0,9.52,1.85c4.62-.45,6.25-4,6.36-8.21a18.85,18.85,0,0,0-.59-6c-.94-3.06-3.47-4.89-5.89-6.78-7.61-5.93-13.81-13.41-22-18.78-2.37-1.55-4.93-3-7.75-3.25s-5.94.88-7.23,3.4a9.25,9.25,0,0,0-.8,4.24,29.56,29.56,0,0,0,1.92,10.65c1.28,3.43,3.44,6.09,5.23,9.18A13,13,0,0,0,951.24,860Z" transform="translate(-374.18 -113.92)"/><path class="cls-43" d="M887,852.29a4.29,4.29,0,0,0,.68,1.35,8.33,8.33,0,0,0,3.5,2.4,16.34,16.34,0,0,0,7.25,1.38,10.91,10.91,0,0,0,5.61-1.86c1.49-1.08,2.69-3,4-4.33L919.33,839c1.08-1.18,2.25-2.63,1.9-4.19-.76-3.44-8.87-3.89-11.5-3.67a24.07,24.07,0,0,0-13.07,5.52,32.77,32.77,0,0,0-5.89,6.39C889.12,845.32,886.11,849.17,887,852.29Z" transform="translate(-374.18 -113.92)"/><path class="cls-31" d="M876.91,801.91s7.59,21.34,7.59,29.14,1.3,14.3,9.65,16.51c13.84,3.67,13.12-11.23,24.15-16.51,8.12-3.89.49-6-9.17-14.67-4.26-3.81-18-55.41-18-55.41Z" transform="translate(-374.18 -113.92)"/><path class="cls-26" d="M913,839.47c1.84-4.11,3.2-8.17,1.2-13.09a67.29,67.29,0,0,0-3-6.5c-.68-1.27-3.36-4.11-3-5.61a22,22,0,0,1,4.59-2.16c4.31-.75,9.46-1.73,13.65,0,6.21,2.56,3.83,10.77,2,15.47-2.72,7-6.77,13.47-13,17.81-.64.44-4,1.17-4,2.18A19.63,19.63,0,0,1,913,839.47Z" transform="translate(-374.18 -113.92)"/><path class="cls-31" d="M964.52,811.21c-.44.21-3.16,18.23-5.08,18.15-3.92-.16-7.45,1.47-8.64,2.72-1.83,1.93-4.91,10.84-6.62,14.78-4,9.23-7.54-7.82,13.41,10.59,4.77,4.18,14.64,12.76,21.47,9.57,2.37-1.11,5-7.3,3.45-13.54-2-7.87,2.79-37.93,6.62-45.16C995.29,796.68,964.53,811.21,964.52,811.21Z" transform="translate(-374.18 -113.92)"/><path class="cls-26" d="M952.13,859.64a2.15,2.15,0,0,1-.14.87.41.41,0,0,1-.22.26.53.53,0,0,1-.28,0,13.47,13.47,0,0,1-4.62-2.15A40,40,0,0,1,934,846.74c-2.61-3.73-4.48-7.94-3.27-12.41a6.2,6.2,0,0,1,.77-1.84,8.11,8.11,0,0,1,1.75-1.76c4.44-3.55,9.22-4.72,15-5,3.77-.18,8.61,0,11.25,2.88a.76.76,0,0,1,.16.25c.11.33-.28.61-.6.78-3.27,1.78-4.55,5.21-5.87,8.33a33.6,33.6,0,0,0-2.06,6.74,29,29,0,0,0-.46,7.61C950.81,854.8,952,857.25,952.13,859.64Z" transform="translate(-374.18 -113.92)"/><path class="cls-37" d="M913.06,388.37c-.15,4.69-.32,9.47-1.94,13.88-2.49,6.77-8.09,11.85-13.49,16.64.06-.05,12.79,5.48,14.19,5.85a62.11,62.11,0,0,0,16.5,2.13c12-.05,21.18-3.77,31.68-9.05,1.4-.71,3-2,2.48-3.46a3.15,3.15,0,0,0-1.29-1.32c-5-3.43-9.69-7.31-12.71-12.67-4.35-7.73,2.39-18.86-3.17-25.43-2.3-2.73-6.28-3.21-9.85-3.12-5.49.13-13.22.77-18,3.73C912.07,378.86,913.27,381.75,913.06,388.37Z" transform="translate(-374.18 -113.92)"/><path class="cls-31" d="M911.72,400.35c3.68-.65,7.57-.42,11.37-.37,8.54.13,15.34,5.34,23.94,4.92,1.4-.07,2.88-.2,4.4-.33a27.06,27.06,0,0,1-2.95-4.2c-4.35-7.73,2.39-18.86-3.17-25.43-2.3-2.73-6.28-3.21-9.85-3.12-5.49.13-13.22.77-18,3.73-5.36,3.31-4.16,6.2-4.37,12.82A51.54,51.54,0,0,1,911.72,400.35Z" transform="translate(-374.18 -113.92)"/><path class="cls-55" d="M895.51,395.1c0,1.23.42,2.31,1.55,2.6,1.35.34,2.53-.87,3.61-1.74,3.39-2.7,12.81,3.55,17.43,3.06,2.45-.26,4.79-1.26,7.25-1.4,4.92-.29,9.35,2.81,14.17,3.83s10-.12,14.91-1.27c3.16-.75,6.5-1.59,8.83-3.85s3.13-6.46.77-8.7l-5.44,2.82c.4-.27,1.23-4.87,1.78-5.8,1.14-1.93,2.54-3.79,3.65-5.81a14.55,14.55,0,0,0,2.2-5.92,21.43,21.43,0,0,1,.1-3.31,11.45,11.45,0,0,1,1.44-3.12c2.48-4.49,2.76-9.85,3-14.88A62.47,62.47,0,0,1,973,336.82c2.13-7.86.2-16.22-2.34-24-3.91-11.91-10.36-24.41-22.09-28.81-5.39-2-11.3-2.07-17-1.71-12.94.81-26.41,3.87-36.07,12.52-10.26,9.17-10,20.65-8.44,33.26.72,5.83.78,11.82,1.76,17.59.89,5.21,5,9.5,7,14.35,2.65,6.46,5.16,16.66,3.47,23.58-.74,3-2.35,5.95-3.32,8.92A8.25,8.25,0,0,0,895.51,395.1Z" transform="translate(-374.18 -113.92)"/><path class="cls-56" d="M963.91,379a46.59,46.59,0,0,1-.49-4.75,35,35,0,0,1,7.29-22.56v-.11A62.47,62.47,0,0,1,973,336.82a32.69,32.69,0,0,0,.1-14.89c-2.7,1.74-5.67,1.5-10.21,3.86-1.75.91-6,5.42-7.2,5.8-12.09,3.79-16.21,2.86-28.47,3.19-8.76.24-19.49-.3-28.66-3.19-1.74-.55-3.43-4-5-4.44a63.58,63.58,0,0,1-6.92-2.52c.12,1.15.25,2.32.4,3.49.72,5.83.78,11.82,1.76,17.59.89,5.21,5,9.5,7,14.35,2.65,6.46,5.16,16.66,3.47,23.58l-.09.34a43.77,43.77,0,0,1,.84,6.72,33,33,0,0,1-.3,6.06c.33-.26.66-.54,1-.8,3.39-2.7,12.81,3.55,17.42,3.06,2.46-.26,4.8-1.26,7.26-1.4,4.92-.29,9.35,2.81,14.17,3.83,4.53,1,9.19.05,13.72-1a37.84,37.84,0,0,1,5.89-10.28l-.54.28c.4-.27,1.23-4.87,1.78-5.8C961.48,382.78,962.82,381,963.91,379Z" transform="translate(-374.18 -113.92)"/><path class="cls-43" d="M896.46,340.37a.62.62,0,0,1-.6-.47c-1.61-6.56-1.52-13.41-1.43-19.46.1-7.1.58-14.45,5.12-19.53a.63.63,0,0,1,.87-.05.62.62,0,0,1,.05.87c-4.26,4.76-4.71,11.86-4.81,18.73-.08,6-.18,12.74,1.4,19.15a.61.61,0,0,1-.45.74A.39.39,0,0,1,896.46,340.37Z" transform="translate(-374.18 -113.92)"/><path class="cls-43" d="M946.75,381.78a.58.58,0,0,1-.26-.06.61.61,0,0,1-.29-.82A35.5,35.5,0,0,0,949.59,363a5.39,5.39,0,0,0-1.25-3.64,6.68,6.68,0,0,0-.74-.54,4.39,4.39,0,0,1-1.38-1.25,3.9,3.9,0,0,1-.42-2.5,25.78,25.78,0,0,1,1.86-6.72,31.49,31.49,0,0,0,1.64-5.24c1.09-6-1.55-12.15-3.67-17.12a.61.61,0,1,1,1.13-.48c2.19,5.12,4.91,11.49,3.75,17.82a32.64,32.64,0,0,1-1.7,5.46,24.47,24.47,0,0,0-1.79,6.39,2.89,2.89,0,0,0,.24,1.74,3.42,3.42,0,0,0,1,.87,6.73,6.73,0,0,1,.88.66,6.4,6.4,0,0,1,1.66,4.47,36.69,36.69,0,0,1-3.51,18.47A.63.63,0,0,1,946.75,381.78Z" transform="translate(-374.18 -113.92)"/><path class="cls-37" d="M1060.27,501.68c7.35.59,23.36,15.37,23.36,21.53s-9.85,11.08-15.18,9S1060.27,501.68,1060.27,501.68Z" transform="translate(-374.18 -113.92)"/><path class="cls-43" d="M914.41,392.1a.55.55,0,0,1-.32-.1.62.62,0,0,1-.2-.85,14.88,14.88,0,0,0-.17-15.66.61.61,0,0,1,.17-.85.62.62,0,0,1,.86.17,16.19,16.19,0,0,1,.19,17A.64.64,0,0,1,914.41,392.1Z" transform="translate(-374.18 -113.92)"/><path class="cls-34" d="M1029,528.13c9-11.3,20.93-27.3,27.71-27.61s20.73,19.81,22,25.76-18.18,25.78-34,31.12S1029,528.13,1029,528.13Z" transform="translate(-374.18 -113.92)"/><path class="cls-53" d="M903.36,412.12s7.42,5.5,28,5.5,28.22-6.86,28.22-6.86,42.9,8.88,61.07,35.76,30.54,88.4,31.78,99.48c.61,5.52.71,7.7-4.08,9.93s-14.55,4.51-18.78,4.3c-8.41-.41-24.42-16.83-45.56-27.5s-129.92,8.62-138.54,18.88-14,16.42-25,15.6-21.35-7.67-25-17.24,25.86-96.47,50.08-114.12S903.36,412.12,903.36,412.12Z" transform="translate(-374.18 -113.92)"/><path class="cls-57" d="M1035.39,535.52c-.59-4-.78-8.08-2-11.93-2.89-9-11-15.35-14.82-24-7.26-16.5-5.3-32.3-24.11-41.39-20.22-9.77-42-4.56-63.23-3.5a29.25,29.25,0,0,1-7.3-.36c-31-6.29-82,.4-86.46,40.49a25.23,25.23,0,0,1-1.13,6.49,17.35,17.35,0,0,1-3.21,4.85,93.09,93.09,0,0,1-8.47,8.73c-6.52,5.9-11.52,13.2-15.83,20.82a52.4,52.4,0,0,1-7.13,10.07c-1.28,1.43-5.76,5.68-4.34,8,4.66,7.54,13.58,12.72,23.13,13.43,11.08.82,16.42-5.34,25-15.6s117.4-29.56,138.54-18.88,37.15,27.09,45.56,27.5c3.86.19,12.3-1.69,17.41-3.72-3.11,1.24-11.1-17.74-11.51-20.22Z" transform="translate(-374.18 -113.92)"/><path class="cls-43" d="M866.8,630.17c-16.36-2.33-55.42-12.21-62,5.66s.41,47.12,13.65,68.48,19.44,46.55,19.83,64.8,5.85,45.54,5.85,45.54,20.26,14.23,27.27,7.24,9.74-17.48,19.09-16.7,12.85-19.81,12.85-19.81-5.49-9.31-12.65-32.71C884.56,732.77,866.8,630.17,866.8,630.17Z" transform="translate(-374.18 -113.92)"/><path class="cls-58" d="M866.8,630.17c-16.36-2.33-55.42-12.21-62,5.66s.41,47.12,13.65,68.48,19.44,46.55,19.83,64.8,5.85,45.54,5.85,45.54,20.26,14.23,27.27,7.24,9.74-17.48,19.09-16.7,12.85-19.81,12.85-19.81-5.49-9.31-12.65-32.71C884.56,732.77,866.8,630.17,866.8,630.17Z" transform="translate(-374.18 -113.92)"/><path class="cls-43" d="M975.09,632.38s59.45-12.86,71.15,1.64.61,44.1-6.16,68.27-20.93,45.12-19.7,70.29.61,61.12.61,61.12-12.93,11.77-24.63,6.94-31.84-29.43-31.84-29.43,6.62-44.64,8.45-68.44C975.09,715,975.09,632.38,975.09,632.38Z" transform="translate(-374.18 -113.92)"/><path class="cls-58" d="M975.09,632.38s59.45-12.86,71.15,1.64.61,44.1-6.16,68.27-20.93,45.12-19.7,70.29.61,61.12.61,61.12-12.93,11.77-24.63,6.94-31.84-29.43-31.84-29.43,6.62-44.64,8.45-68.44C975.09,715,975.09,632.38,975.09,632.38Z" transform="translate(-374.18 -113.92)"/><path class="cls-43" d="M810.71,664.13c4.33,4.83,9.94,9,15.48,13l-8.16-6.3c12,9.29,21.36,20.94,36.18,26.5,7.84,2.93,23.08,7.07,18.63-5.93-3.69-10.77-8.29-21.3-12.34-31.94q-4.71-12.4-9.33-24.85c-.3-.81-1.95-11.86-2.79-12-16.36-2.33-37-4.67-43.62,13.2C800.37,647.68,804,656.65,810.71,664.13Z" transform="translate(-374.18 -113.92)"/><path class="cls-43" d="M987.58,698.72a10.88,10.88,0,0,0,4.3,1.49c3.56.45,7.13-.59,10.51-1.81,18.82-6.82,39.24-21.15,48.47-39.12,1.21-10.11.38-19.07-4.62-25.26-11.7-14.5-54.59-5.18-54.6-5.18-2.18,1.17,1.48,29.59,1,32-1.11,6-1.68,12.6-3.79,18.37-1.71,4.71-6.48,9.46-5,14.82A8,8,0,0,0,987.58,698.72Z" transform="translate(-374.18 -113.92)"/><path class="cls-43" d="M972.66,332.2h-.12a.61.61,0,0,1-.49-.72c.8-4.08,1.62-8.3,1.21-12.48-.44-4.58-2.45-8.41-5.49-10.49l-.28-.19a5.33,5.33,0,0,1-1.39-1.18,5.42,5.42,0,0,1-.86-2.84l-.94-9.48a4.66,4.66,0,0,0-.59-2.2,4,4,0,0,0-1.2-1,25.19,25.19,0,0,0-12.94-3.72.62.62,0,0,1,0-1.24,26.47,26.47,0,0,1,13.57,3.91,5.15,5.15,0,0,1,1.56,1.31,5.58,5.58,0,0,1,.81,2.8l.94,9.47a4.49,4.49,0,0,0,.62,2.23,4.1,4.1,0,0,0,1.09.89l.29.2c3.35,2.29,5.55,6.45,6,11.39.43,4.36-.42,8.67-1.23,12.84A.62.62,0,0,1,972.66,332.2Z" transform="translate(-374.18 -113.92)"/><path class="cls-43" d="M899,388.29a.62.62,0,0,1-.27-1.17c2.08-1,2.57-4,1.83-6.2a17.91,17.91,0,0,0-3-5c-.39-.52-.78-1-1.14-1.55-2.86-4.07-3.7-8.21-2.3-11.37a13.67,13.67,0,0,1,1.06-1.87,10,10,0,0,0,1.18-2.26,12.61,12.61,0,0,0,.39-2.2c.2-1.74.41-3.54,2-4.49a.62.62,0,0,1,.85.21.63.63,0,0,1-.22.85c-1.07.63-1.23,2-1.41,3.57a13.3,13.3,0,0,1-.43,2.43,11.19,11.19,0,0,1-1.32,2.55,13.58,13.58,0,0,0-1,1.71c-1.73,3.91,1,8.41,2.18,10.16.36.51.74,1,1.12,1.52a19,19,0,0,1,3.16,5.33c.9,2.75.23,6.37-2.46,7.69A.54.54,0,0,1,899,388.29Z" transform="translate(-374.18 -113.92)"/><path class="cls-59" d="M929.2,425.36a56.32,56.32,0,0,1-29.76-8.55,3,3,0,0,1-1.51-1.79.62.62,0,0,1,.5-.72.62.62,0,0,1,.72.5c.06.36.49.68,1,1a54.55,54.55,0,0,0,62.39-3,.62.62,0,1,1,.76,1,56.32,56.32,0,0,1-31.42,11.58C931,425.34,930.08,425.36,929.2,425.36Z" transform="translate(-374.18 -113.92)"/><path class="cls-59" d="M901.55,416.19a.61.61,0,0,1-.18-1.2,2.69,2.69,0,0,0,1.32-.89.62.62,0,0,1,.87-.08.63.63,0,0,1,.09.87,4,4,0,0,1-1.92,1.27Z" transform="translate(-374.18 -113.92)"/><path class="cls-59" d="M904.83,418a.66.66,0,0,1-.35-.11.61.61,0,0,1-.15-.86,20.13,20.13,0,0,1,1.9-2.33.63.63,0,0,1,.87,0,.62.62,0,0,1,0,.87,18.79,18.79,0,0,0-1.79,2.19A.62.62,0,0,1,904.83,418Z" transform="translate(-374.18 -113.92)"/><path class="cls-59" d="M910,420.28a.63.63,0,0,1-.44-.19.62.62,0,0,1,0-.87,4.86,4.86,0,0,0,1.27-2,.62.62,0,0,1,.78-.39.6.6,0,0,1,.39.77,6.23,6.23,0,0,1-1.58,2.54A.65.65,0,0,1,910,420.28Z" transform="translate(-374.18 -113.92)"/><path class="cls-59" d="M917.29,421.88a.47.47,0,0,1-.17,0,.61.61,0,0,1-.42-.76l.86-2.87a.61.61,0,1,1,1.17.35l-.85,2.87A.61.61,0,0,1,917.29,421.88Z" transform="translate(-374.18 -113.92)"/><path class="cls-59" d="M921.58,423.11h-.12a.62.62,0,0,1-.48-.73,34.55,34.55,0,0,1,1.19-4.35.61.61,0,1,1,1.16.4,32.17,32.17,0,0,0-1.14,4.2A.62.62,0,0,1,921.58,423.11Z" transform="translate(-374.18 -113.92)"/><path class="cls-59" d="M930.05,423.12l-.15,0a.61.61,0,0,1-.45-.74l.91-3.88a.62.62,0,0,1,.75-.45.61.61,0,0,1,.45.74l-.92,3.87A.6.6,0,0,1,930.05,423.12Z" transform="translate(-374.18 -113.92)"/><path class="cls-59" d="M938.07,422.1a.62.62,0,0,1-.55-.33,7.79,7.79,0,0,1-.88-3.57.61.61,0,0,1,.61-.62h0a.62.62,0,0,1,.62.62,6.53,6.53,0,0,0,.74,3,.61.61,0,0,1-.26.83A.58.58,0,0,1,938.07,422.1Z" transform="translate(-374.18 -113.92)"/><path class="cls-59" d="M945.23,420.49a.62.62,0,0,1-.39-.14,6.36,6.36,0,0,1-1.77-2.31.62.62,0,1,1,1.12-.51,5.23,5.23,0,0,0,1.43,1.87.62.62,0,0,1,.09.86A.63.63,0,0,1,945.23,420.49Z" transform="translate(-374.18 -113.92)"/><path class="cls-59" d="M951.85,418.59a.6.6,0,0,1-.46-.21l-1.85-2a.62.62,0,0,1,.91-.83l1.86,2.05a.63.63,0,0,1,0,.87A.64.64,0,0,1,951.85,418.59Z" transform="translate(-374.18 -113.92)"/><path class="cls-59" d="M956,416.42a.62.62,0,0,1-.57-.37l-.62-1.5a.62.62,0,0,1,1.14-.47l.62,1.49a.63.63,0,0,1-.33.81A.67.67,0,0,1,956,416.42Z" transform="translate(-374.18 -113.92)"/><path class="cls-59" d="M959.25,414.42a.58.58,0,0,1-.26-.06,1.88,1.88,0,0,1-1-1.41.62.62,0,0,1,.53-.69.6.6,0,0,1,.69.52.65.65,0,0,0,.35.47.62.62,0,0,1,.29.82A.63.63,0,0,1,959.25,414.42Z" transform="translate(-374.18 -113.92)"/><path class="cls-59" d="M961.31,413.21a.64.64,0,0,1-.35-.1l-1.08-.74a.62.62,0,1,1,.69-1l1.08.74a.61.61,0,0,1-.34,1.12Z" transform="translate(-374.18 -113.92)"/><path class="cls-26" d="M1011.76,876.72a2.47,2.47,0,0,1-2.39-1.85L967.15,709.5h-79L847.9,874.84a2.46,2.46,0,0,1-4.79-1.16l40.67-167.22a2.46,2.46,0,0,1,2.4-1.88h82.89a2.46,2.46,0,0,1,2.38,1.85l42.69,167.22a2.44,2.44,0,0,1-1.77,3A2.18,2.18,0,0,1,1011.76,876.72Z" transform="translate(-374.18 -113.92)"/><path class="cls-60" d="M830.32,611.42c0-73,50.12-147.66,99.79-147.66s94,74.66,94,147.66-44.29,116.7-94,116.7S830.32,684.42,830.32,611.42Z" transform="translate(-374.18 -113.92)"/><path class="cls-29" d="M841.83,667.39c24.16,20.74,56.7,32.07,89.1,32.07,30.53,0,59.47-10.05,81.33-28.57,7.48-16.66,11.81-36.63,11.81-59.47,0-73-44.29-147.66-94-147.66s-99.79,74.66-99.79,147.66C830.32,632.68,834.58,651.46,841.83,667.39Z" transform="translate(-374.18 -113.92)"/><path class="cls-61" d="M841.83,667.39c24.16,20.74,56.7,32.07,89.1,32.07,30.53,0,59.47-10.05,81.33-28.57,7.48-16.66,11.81-36.63,11.81-59.47,0-73-44.29-147.66-94-147.66s-99.79,74.66-99.79,147.66C830.32,632.68,834.58,651.46,841.83,667.39Z" transform="translate(-374.18 -113.92)"/><path class="cls-62" d="M841.83,668.71c24.16,19.89,56.7,30.75,89.1,30.75,30.53,0,59.47-9.64,81.33-27.4,7.48-16,11.81-35.13,11.81-57,0-70-44.29-141.61-94-141.61S830.32,545,830.32,615C830.32,635.42,834.58,653.42,841.83,668.71Z" transform="translate(-374.18 -113.92)"/><path class="cls-8" d="M1065.15,911.2a2.46,2.46,0,0,1-2.27-1.51L977.7,705c-6.88,3.48-27.07,12.8-46.75,13.24-22.32.49-45.54-8-53.51-13.15-8.64,16.09-56.82,128.76-88.77,204.58a2.46,2.46,0,1,1-4.54-1.92c.21-.52,22.08-52.39,44-103.59,12.91-30.08,23.32-54.05,31-71.24,15-33.84,15.61-33.82,17.73-33.81a2.58,2.58,0,0,1,2.1,1.17c2.75,2.51,26.84,13.56,51.87,13,22.51-.5,46.66-13.76,46.91-13.89a2.44,2.44,0,0,1,3.46,1.2l86.22,207.14a2.47,2.47,0,0,1-1.33,3.22A2.44,2.44,0,0,1,1065.15,911.2Zm-186-210.47h0Z" transform="translate(-374.18 -113.92)"/><rect class="cls-23" x="417.75" y="214.85" width="24.62" height="14.14"/><circle class="cls-63" cx="461.7" cy="229.92" r="0.75"/><rect class="cls-63" x="461" y="231.48" width="1.39" height="7.8"/><path class="cls-63" d="M814.83,350.23l.19-.12a1,1,0,0,0-.43-.14l.15-.11c.15-.12.7,0,.7,0l.61-.69a.16.16,0,0,0,0-.22l0,0-1.35-.57c.13-.3,1.15-.06,1.15-.06l.25-.24a.21.21,0,0,1,.13-.07h.05a.06.06,0,0,1,0,.06.24.24,0,0,1-.06.11l-.16.16.68.1.74-.6c.19-.16.31-.13.35-.11l0,0s.05.17-.1.36l-.61.73.11.68.16-.15a.23.23,0,0,1,.1-.07s0,0,.06,0a.09.09,0,0,1,0,0,.2.2,0,0,1-.06.13l-.25.25s.24,1-.06,1.16l-.57-1.36a.17.17,0,0,0-.21-.08.05.05,0,0,0,0,0l-.69.6s.13.55,0,.7l-.11.15a1,1,0,0,0-.14-.43h0c-.07.1-.1.17-.12.19l0,0a1.15,1.15,0,0,0,.13,1.38,1.1,1.1,0,0,0,.79.3h0a3.09,3.09,0,1,0-3-3.16v.11h0a1.09,1.09,0,0,0,.3.79,1.13,1.13,0,0,0,1.38.13l0,0m5.28-.93a3.9,3.9,0,1,1-3.9-3.9,3.9,3.9,0,0,1,3.9,3.9Z" transform="translate(-374.18 -113.92)"/><path class="cls-63" d="M829.85,350.37v-3.72h-1.41V345.4h1.41v-2.08l1.4-.23v2.31h2.29v1.25h-2.29v3.46c0,.94.14,1.81,1.15,1.81a2.28,2.28,0,0,0,1.14-.32v1.31a3.3,3.3,0,0,1-1.38.28,2.21,2.21,0,0,1-1.73-.71A3,3,0,0,1,829.85,350.37Z" transform="translate(-374.18 -113.92)"/><path class="cls-63" d="M823.12,350.37v-3.72h-1.41V345.4h1.41v-2.08l1.39-.23v2.31h2.3v1.25h-2.3v3.46c0,.94.14,1.81,1.15,1.81a2.34,2.34,0,0,0,1.15-.32v1.31a3.34,3.34,0,0,1-1.38.28,2.23,2.23,0,0,1-1.74-.71A3,3,0,0,1,823.12,350.37Z" transform="translate(-374.18 -113.92)"/></g></g></svg>